%TF.GenerationSoftware,KiCad,Pcbnew,10.0.6*%
%TF.CreationDate,2026-09-18T15:10:07+05:30*%
%TF.ProjectId,bug-pad,6275672d-7061-4642-9e6b-696361645f70,rev?*%
%TF.SameCoordinates,Original*%
%TF.FileFunction,Copper,L1,Top*%
%TF.FilePolarity,Positive*%
%FSLAX46Y46*%
G04 Gerber Fmt 4.6, Leading zero omitted, Abs format (unit mm)*
G04 Created by KiCad (PCBNEW 10.0.6) date 2026-09-18 15:10:07*
%MOMM*%
%LPD*%
G01*
G04 APERTURE LIST*
G04 Aperture macros list*
%AMRoundRect*
0 Rectangle with rounded corners*
0 $1 Rounding radius*
0 $2 $3 $4 $5 $6 $7 $8 $9 X,Y pos of 4 corners*
0 Add a 4 corners polygon primitive as box body*
4,1,4,$2,$3,$4,$5,$6,$7,$8,$9,$2,$3,0*
0 Add four circle primitives for the rounded corners*
1,1,$1+$1,$2,$3*
1,1,$1+$1,$4,$5*
1,1,$1+$1,$6,$7*
1,1,$1+$1,$8,$9*
0 Add four rect primitives between the rounded corners*
20,1,$1+$1,$2,$3,$4,$5,0*
20,1,$1+$1,$4,$5,$6,$7,0*
20,1,$1+$1,$6,$7,$8,$9,0*
20,1,$1+$1,$8,$9,$2,$3,0*%
G04 Aperture macros list end*
%TA.AperFunction,ComponentPad*%
%ADD10R,2.000000X2.000000*%
%TD*%
%TA.AperFunction,ComponentPad*%
%ADD11C,2.000000*%
%TD*%
%TA.AperFunction,ComponentPad*%
%ADD12R,3.200000X2.000000*%
%TD*%
%TA.AperFunction,ComponentPad*%
%ADD13C,2.200000*%
%TD*%
%TA.AperFunction,ComponentPad*%
%ADD14RoundRect,0.170000X-0.680000X0.680000X-0.680000X-0.680000X0.680000X-0.680000X0.680000X0.680000X0*%
%TD*%
%TA.AperFunction,ComponentPad*%
%ADD15C,1.700000*%
%TD*%
%TA.AperFunction,ComponentPad*%
%ADD16R,3.500000X1.700000*%
%TD*%
%TA.AperFunction,ComponentPad*%
%ADD17O,3.600000X1.700000*%
%TD*%
%TA.AperFunction,ComponentPad*%
%ADD18O,3.700000X1.700000*%
%TD*%
%TA.AperFunction,Conductor*%
%ADD19C,0.200000*%
%TD*%
G04 APERTURE END LIST*
D10*
%TO.P,SW5,A,A_A*%
%TO.N,Net-(U1-PB08_A6_D6_TX)*%
X122660000Y-85678000D03*
D11*
%TO.P,SW5,B,B_B*%
%TO.N,Net-(U1-PB09_A7_D7_RX)*%
X122660000Y-90678000D03*
%TO.P,SW5,C,C_C*%
%TO.N,Net-(U1-GND)*%
X122660000Y-88178000D03*
D12*
%TO.P,SW5,MP*%
%TO.N,N/C*%
X130160000Y-82578000D03*
X130160000Y-93778000D03*
D11*
%TO.P,SW5,S1,S1_S1*%
%TO.N,Net-(U1-PA7_A8_D8_SCK)*%
X137160000Y-90678000D03*
%TO.P,SW5,S2,S2_S2*%
%TO.N,Net-(U1-GND)*%
X137160000Y-85678000D03*
%TD*%
D13*
%TO.P,SW4,1,1_1*%
%TO.N,Net-(U1-PA11_A3_D3)*%
X171704000Y-103378000D03*
%TO.P,SW4,2,2_2*%
%TO.N,Net-(U1-GND)*%
X165354000Y-105918000D03*
%TD*%
D14*
%TO.P,U2,1,GND_1*%
%TO.N,Net-(U1-GND)*%
X157200000Y-69088000D03*
D15*
%TO.P,U2,2,VCC_2*%
%TO.N,Net-(U1-3V3)*%
X157200000Y-71628000D03*
%TO.P,U2,3,SCL_3*%
%TO.N,Net-(U1-PA9_A5_D5_SCL)*%
X157200000Y-74168000D03*
%TO.P,U2,4,SDA_4*%
%TO.N,Net-(U1-PA8_A4_D4_SDA)*%
X157200000Y-76708000D03*
%TD*%
D13*
%TO.P,SW2,1,1_1*%
%TO.N,Net-(U1-PA4_A1_D1)*%
X133604000Y-103378000D03*
%TO.P,SW2,2,2_2*%
%TO.N,Net-(U1-GND)*%
X127254000Y-105918000D03*
%TD*%
%TO.P,SW3,1,1_1*%
%TO.N,Net-(U1-PA10_A2_D2)*%
X152654000Y-103378000D03*
%TO.P,SW3,2,2_2*%
%TO.N,Net-(U1-GND)*%
X146304000Y-105918000D03*
%TD*%
%TO.P,SW1,1,1_1*%
%TO.N,Net-(U1-PA02_A0_D0)*%
X152654000Y-84328000D03*
%TO.P,SW1,2,2_2*%
%TO.N,Net-(U1-GND)*%
X146304000Y-86868000D03*
%TD*%
D16*
%TO.P,U1,1,PA02_A0_D0_1*%
%TO.N,Net-(U1-PA02_A0_D0)*%
X179821000Y-67310000D03*
D17*
%TO.P,U1,2,PA4_A1_D1_2*%
%TO.N,Net-(U1-PA4_A1_D1)*%
X179821000Y-69850000D03*
%TO.P,U1,3,PA10_A2_D2_3*%
%TO.N,Net-(U1-PA10_A2_D2)*%
X179821000Y-72390000D03*
%TO.P,U1,4,PA11_A3_D3_4*%
%TO.N,Net-(U1-PA11_A3_D3)*%
X179821000Y-74930000D03*
%TO.P,U1,5,PA8_A4_D4_SDA_5*%
%TO.N,Net-(U1-PA8_A4_D4_SDA)*%
X179821000Y-77470000D03*
%TO.P,U1,6,PA9_A5_D5_SCL_6*%
%TO.N,Net-(U1-PA9_A5_D5_SCL)*%
X179821000Y-80010000D03*
%TO.P,U1,7,PB08_A6_D6_TX_7*%
%TO.N,Net-(U1-PB08_A6_D6_TX)*%
X179821000Y-82550000D03*
%TO.P,U1,8,PB09_A7_D7_RX_8*%
%TO.N,Net-(U1-PB09_A7_D7_RX)*%
X162571000Y-82550000D03*
%TO.P,U1,9,PA7_A8_D8_SCK_9*%
%TO.N,Net-(U1-PA7_A8_D8_SCK)*%
X162571000Y-80010000D03*
%TO.P,U1,10,PA5_A9_D9_MISO_10*%
%TO.N,unconnected-(U1-PA5_A9_D9_MISO-Pad10)*%
X162571000Y-77470000D03*
D18*
%TO.P,U1,11,PA6_A10_D10_MOSI_11*%
%TO.N,unconnected-(U1-PA6_A10_D10_MOSI-Pad11)*%
X162571000Y-74930000D03*
%TO.P,U1,12,3V3_12*%
%TO.N,Net-(U1-3V3)*%
X162571000Y-72390000D03*
%TO.P,U1,13,GND_13*%
%TO.N,Net-(U1-GND)*%
X162571000Y-69850000D03*
%TO.P,U1,14,5V_14*%
%TO.N,unconnected-(U1-5V-Pad14)*%
X162571000Y-67310000D03*
%TD*%
%TO.N,Net-(U1-GND)*%
D19*
X145114000Y-85678000D02*
X137160000Y-85678000D01*
X119340000Y-88178000D02*
X122660000Y-88178000D01*
X157200000Y-69088000D02*
X162809000Y-69088000D01*
X127254000Y-105918000D02*
X120396000Y-105918000D01*
X162809000Y-69088000D02*
X163571000Y-69850000D01*
X165354000Y-105918000D02*
X146304000Y-105918000D01*
X146304000Y-105918000D02*
X146304000Y-86868000D01*
X157200000Y-69088000D02*
X157200000Y-69316000D01*
X146304000Y-86868000D02*
X145114000Y-85678000D01*
X145114000Y-81174000D02*
X145114000Y-85678000D01*
X119126000Y-88392000D02*
X119340000Y-88178000D01*
X119126000Y-104648000D02*
X119126000Y-88392000D01*
X134660000Y-88178000D02*
X122660000Y-88178000D01*
X137160000Y-85678000D02*
X134660000Y-88178000D01*
X157200000Y-69088000D02*
X145114000Y-81174000D01*
X120396000Y-105918000D02*
X119126000Y-104648000D01*
%TO.N,Net-(U1-PA11_A3_D3)*%
X182372000Y-101600000D02*
X182372000Y-74930000D01*
X182372000Y-74930000D02*
X178821000Y-74930000D01*
X180594000Y-103378000D02*
X182372000Y-101600000D01*
X171704000Y-103378000D02*
X180594000Y-103378000D01*
%TO.N,Net-(U1-3V3)*%
X157200000Y-71628000D02*
X162809000Y-71628000D01*
X162809000Y-71628000D02*
X163571000Y-72390000D01*
%TO.N,Net-(U1-PA9_A5_D5_SCL)*%
X174891000Y-76080000D02*
X178821000Y-80010000D01*
X157200000Y-74168000D02*
X159112000Y-76080000D01*
X159112000Y-76080000D02*
X174891000Y-76080000D01*
%TO.N,Net-(U1-PA8_A4_D4_SDA)*%
X158198346Y-73540000D02*
X174891000Y-73540000D01*
X156723654Y-73018000D02*
X157676346Y-73018000D01*
X156050000Y-75558000D02*
X156050000Y-73691654D01*
X174891000Y-73540000D02*
X178821000Y-77470000D01*
X156050000Y-73691654D02*
X156723654Y-73018000D01*
X157676346Y-73018000D02*
X158198346Y-73540000D01*
X157200000Y-76708000D02*
X156050000Y-75558000D01*
%TO.N,Net-(U1-PA4_A1_D1)*%
X183370222Y-71137778D02*
X183388000Y-71120000D01*
X175686222Y-110808000D02*
X183370222Y-103124000D01*
X183388000Y-71120000D02*
X182118000Y-69850000D01*
X141034000Y-110808000D02*
X175686222Y-110808000D01*
X182118000Y-69850000D02*
X178821000Y-69850000D01*
X183370222Y-103124000D02*
X183370222Y-71137778D01*
X133604000Y-103378000D02*
X141034000Y-110808000D01*
%TO.N,Net-(U1-PA10_A2_D2)*%
X156723654Y-99308346D02*
X156723654Y-77858000D01*
X157676346Y-70478000D02*
X158198346Y-71000000D01*
X178214968Y-72656000D02*
X178821000Y-72656000D01*
X180993346Y-72256000D02*
X178380654Y-72256000D01*
X156723654Y-77858000D02*
X155650000Y-76784346D01*
X156723654Y-70478000D02*
X157676346Y-70478000D01*
X158198346Y-71000000D02*
X176558968Y-71000000D01*
X155650000Y-76784346D02*
X155650000Y-71551654D01*
X176558968Y-71000000D02*
X178214968Y-72656000D01*
X152654000Y-103378000D02*
X156723654Y-99308346D01*
X155650000Y-71551654D02*
X156723654Y-70478000D01*
%TO.N,Net-(U1-PA02_A0_D0)*%
X152654000Y-84328000D02*
X152654000Y-101398101D01*
X181356000Y-71120000D02*
X177546000Y-71120000D01*
X154054000Y-103957899D02*
X170304000Y-103957899D01*
X151254000Y-102798101D02*
X151254000Y-103957899D01*
X152074101Y-104778000D02*
X153233899Y-104778000D01*
X177546000Y-71120000D02*
X177292000Y-70866000D01*
X179759685Y-104778000D02*
X182772000Y-101765685D01*
X182772000Y-72536000D02*
X181356000Y-71120000D01*
X153233899Y-104778000D02*
X154054000Y-103957899D01*
X170304000Y-103957899D02*
X171124101Y-104778000D01*
X151254000Y-103957899D02*
X152074101Y-104778000D01*
X182772000Y-101765685D02*
X182772000Y-72536000D01*
X177292000Y-70866000D02*
X177292000Y-68839000D01*
X177292000Y-68839000D02*
X178821000Y-67310000D01*
X152654000Y-101398101D02*
X151254000Y-102798101D01*
X171124101Y-104778000D02*
X179759685Y-104778000D01*
%TD*%
M02*
