%TF.GenerationSoftware,KiCad,Pcbnew,10.0.6*%
%TF.CreationDate,2026-09-16T23:56:23+05:30*%
%TF.ProjectId,bug-pad,6275672d-7061-4642-9e6b-696361645f70,rev?*%
%TF.SameCoordinates,Original*%
%TF.FileFunction,Soldermask,Top*%
%TF.FilePolarity,Negative*%
%FSLAX46Y46*%
G04 Gerber Fmt 4.6, Leading zero omitted, Abs format (unit mm)*
G04 Created by KiCad (PCBNEW 10.0.6) date 2026-09-16 23:56:23*
%MOMM*%
%LPD*%
G01*
G04 APERTURE LIST*
G04 Aperture macros list*
%AMRoundRect*
0 Rectangle with rounded corners*
0 $1 Rounding radius*
0 $2 $3 $4 $5 $6 $7 $8 $9 X,Y pos of 4 corners*
0 Add a 4 corners polygon primitive as box body*
4,1,4,$2,$3,$4,$5,$6,$7,$8,$9,$2,$3,0*
0 Add four circle primitives for the rounded corners*
1,1,$1+$1,$2,$3*
1,1,$1+$1,$4,$5*
1,1,$1+$1,$6,$7*
1,1,$1+$1,$8,$9*
0 Add four rect primitives between the rounded corners*
20,1,$1+$1,$2,$3,$4,$5,0*
20,1,$1+$1,$4,$5,$6,$7,0*
20,1,$1+$1,$6,$7,$8,$9,0*
20,1,$1+$1,$8,$9,$2,$3,0*%
G04 Aperture macros list end*
%ADD10C,1.700000*%
%ADD11C,4.000000*%
%ADD12C,2.200000*%
%ADD13R,2.000000X2.000000*%
%ADD14C,2.000000*%
%ADD15R,3.200000X2.000000*%
%ADD16RoundRect,0.170000X0.680000X-0.680000X0.680000X0.680000X-0.680000X0.680000X-0.680000X-0.680000X0*%
%ADD17R,3.500000X1.700000*%
%ADD18O,3.600000X1.700000*%
%ADD19O,3.700000X1.700000*%
G04 APERTURE END LIST*
D10*
%TO.C,SW1*%
X155784000Y-123080000D03*
D11*
X155784000Y-118000000D03*
D10*
X155784000Y-112920000D03*
D12*
X150704000Y-115460000D03*
X153244000Y-121810000D03*
%TD*%
D13*
%TO.C,SW5*%
X190250000Y-85000000D03*
D14*
X190250000Y-90000000D03*
X190250000Y-87500000D03*
D15*
X197750000Y-81900000D03*
X197750000Y-93100000D03*
D14*
X204750000Y-90000000D03*
X204750000Y-85000000D03*
%TD*%
D10*
%TO.C,SW3*%
X155500000Y-144580000D03*
D11*
X155500000Y-139500000D03*
D10*
X155500000Y-134420000D03*
D12*
X150420000Y-136960000D03*
X152960000Y-143310000D03*
%TD*%
D10*
%TO.C,SW4*%
X177500000Y-144580000D03*
D11*
X177500000Y-139500000D03*
D10*
X177500000Y-134420000D03*
D12*
X172420000Y-136960000D03*
X174960000Y-143310000D03*
%TD*%
D16*
%TO.C,U2*%
X145000000Y-91310000D03*
D10*
X145000000Y-88770000D03*
X145000000Y-86230000D03*
X145000000Y-83690000D03*
%TD*%
%TO.C,SW2*%
X132500000Y-144580000D03*
D11*
X132500000Y-139500000D03*
D10*
X132500000Y-134420000D03*
D12*
X127420000Y-136960000D03*
X129960000Y-143310000D03*
%TD*%
D17*
%TO.C,U1*%
X117613000Y-78740000D03*
D18*
X117613000Y-81280000D03*
X117613000Y-83820000D03*
X117613000Y-86360000D03*
X117613000Y-88900000D03*
X117613000Y-91440000D03*
X117613000Y-93980000D03*
X134863000Y-93980000D03*
X134863000Y-91440000D03*
X134863000Y-88900000D03*
D19*
X134863000Y-86360000D03*
X134863000Y-83820000D03*
X134863000Y-81280000D03*
X134863000Y-78740000D03*
%TD*%
M02*
