%TF.GenerationSoftware,KiCad,Pcbnew,10.0.6*%
%TF.CreationDate,2026-09-18T15:10:07+05:30*%
%TF.ProjectId,bug-pad,6275672d-7061-4642-9e6b-696361645f70,rev?*%
%TF.SameCoordinates,Original*%
%TF.FileFunction,Legend,Top*%
%TF.FilePolarity,Positive*%
%FSLAX46Y46*%
G04 Gerber Fmt 4.6, Leading zero omitted, Abs format (unit mm)*
G04 Created by KiCad (PCBNEW 10.0.6) date 2026-09-18 15:10:07*
%MOMM*%
%LPD*%
G01*
G04 APERTURE LIST*
%ADD10C,0.100000*%
%ADD11C,0.300000*%
%ADD12C,0.150000*%
%ADD13C,0.120000*%
%ADD14C,0.000000*%
G04 APERTURE END LIST*
D10*
X140970000Y-82524600D02*
X140995400Y-82524600D01*
X140995400Y-82550000D01*
X140970000Y-82550000D01*
X140970000Y-82524600D01*
D11*
X141262510Y-119411114D02*
X141476796Y-119482542D01*
X141476796Y-119482542D02*
X141548225Y-119553971D01*
X141548225Y-119553971D02*
X141619653Y-119696828D01*
X141619653Y-119696828D02*
X141619653Y-119911114D01*
X141619653Y-119911114D02*
X141548225Y-120053971D01*
X141548225Y-120053971D02*
X141476796Y-120125400D01*
X141476796Y-120125400D02*
X141333939Y-120196828D01*
X141333939Y-120196828D02*
X140762510Y-120196828D01*
X140762510Y-120196828D02*
X140762510Y-118696828D01*
X140762510Y-118696828D02*
X141262510Y-118696828D01*
X141262510Y-118696828D02*
X141405368Y-118768257D01*
X141405368Y-118768257D02*
X141476796Y-118839685D01*
X141476796Y-118839685D02*
X141548225Y-118982542D01*
X141548225Y-118982542D02*
X141548225Y-119125400D01*
X141548225Y-119125400D02*
X141476796Y-119268257D01*
X141476796Y-119268257D02*
X141405368Y-119339685D01*
X141405368Y-119339685D02*
X141262510Y-119411114D01*
X141262510Y-119411114D02*
X140762510Y-119411114D01*
X142262510Y-118696828D02*
X142262510Y-119911114D01*
X142262510Y-119911114D02*
X142333939Y-120053971D01*
X142333939Y-120053971D02*
X142405368Y-120125400D01*
X142405368Y-120125400D02*
X142548225Y-120196828D01*
X142548225Y-120196828D02*
X142833939Y-120196828D01*
X142833939Y-120196828D02*
X142976796Y-120125400D01*
X142976796Y-120125400D02*
X143048225Y-120053971D01*
X143048225Y-120053971D02*
X143119653Y-119911114D01*
X143119653Y-119911114D02*
X143119653Y-118696828D01*
X144619654Y-118768257D02*
X144476797Y-118696828D01*
X144476797Y-118696828D02*
X144262511Y-118696828D01*
X144262511Y-118696828D02*
X144048225Y-118768257D01*
X144048225Y-118768257D02*
X143905368Y-118911114D01*
X143905368Y-118911114D02*
X143833939Y-119053971D01*
X143833939Y-119053971D02*
X143762511Y-119339685D01*
X143762511Y-119339685D02*
X143762511Y-119553971D01*
X143762511Y-119553971D02*
X143833939Y-119839685D01*
X143833939Y-119839685D02*
X143905368Y-119982542D01*
X143905368Y-119982542D02*
X144048225Y-120125400D01*
X144048225Y-120125400D02*
X144262511Y-120196828D01*
X144262511Y-120196828D02*
X144405368Y-120196828D01*
X144405368Y-120196828D02*
X144619654Y-120125400D01*
X144619654Y-120125400D02*
X144691082Y-120053971D01*
X144691082Y-120053971D02*
X144691082Y-119553971D01*
X144691082Y-119553971D02*
X144405368Y-119553971D01*
X145333939Y-120196828D02*
X145333939Y-118696828D01*
X145333939Y-118696828D02*
X145905368Y-118696828D01*
X145905368Y-118696828D02*
X146048225Y-118768257D01*
X146048225Y-118768257D02*
X146119654Y-118839685D01*
X146119654Y-118839685D02*
X146191082Y-118982542D01*
X146191082Y-118982542D02*
X146191082Y-119196828D01*
X146191082Y-119196828D02*
X146119654Y-119339685D01*
X146119654Y-119339685D02*
X146048225Y-119411114D01*
X146048225Y-119411114D02*
X145905368Y-119482542D01*
X145905368Y-119482542D02*
X145333939Y-119482542D01*
X146762511Y-119768257D02*
X147476797Y-119768257D01*
X146619654Y-120196828D02*
X147119654Y-118696828D01*
X147119654Y-118696828D02*
X147619654Y-120196828D01*
X148119653Y-120196828D02*
X148119653Y-118696828D01*
X148119653Y-118696828D02*
X148476796Y-118696828D01*
X148476796Y-118696828D02*
X148691082Y-118768257D01*
X148691082Y-118768257D02*
X148833939Y-118911114D01*
X148833939Y-118911114D02*
X148905368Y-119053971D01*
X148905368Y-119053971D02*
X148976796Y-119339685D01*
X148976796Y-119339685D02*
X148976796Y-119553971D01*
X148976796Y-119553971D02*
X148905368Y-119839685D01*
X148905368Y-119839685D02*
X148833939Y-119982542D01*
X148833939Y-119982542D02*
X148691082Y-120125400D01*
X148691082Y-120125400D02*
X148476796Y-120196828D01*
X148476796Y-120196828D02*
X148119653Y-120196828D01*
X150762510Y-120196828D02*
X150762510Y-118696828D01*
X150762510Y-119268257D02*
X150905368Y-119196828D01*
X150905368Y-119196828D02*
X151191082Y-119196828D01*
X151191082Y-119196828D02*
X151333939Y-119268257D01*
X151333939Y-119268257D02*
X151405368Y-119339685D01*
X151405368Y-119339685D02*
X151476796Y-119482542D01*
X151476796Y-119482542D02*
X151476796Y-119911114D01*
X151476796Y-119911114D02*
X151405368Y-120053971D01*
X151405368Y-120053971D02*
X151333939Y-120125400D01*
X151333939Y-120125400D02*
X151191082Y-120196828D01*
X151191082Y-120196828D02*
X150905368Y-120196828D01*
X150905368Y-120196828D02*
X150762510Y-120125400D01*
X151976796Y-119196828D02*
X152333939Y-120196828D01*
X152691082Y-119196828D02*
X152333939Y-120196828D01*
X152333939Y-120196828D02*
X152191082Y-120553971D01*
X152191082Y-120553971D02*
X152119653Y-120625400D01*
X152119653Y-120625400D02*
X151976796Y-120696828D01*
X154333939Y-119768257D02*
X155048225Y-119768257D01*
X154191082Y-120196828D02*
X154691082Y-118696828D01*
X154691082Y-118696828D02*
X155191082Y-120196828D01*
X155548224Y-119196828D02*
X155905367Y-120196828D01*
X156262510Y-119196828D02*
X155905367Y-120196828D01*
X155905367Y-120196828D02*
X155762510Y-120553971D01*
X155762510Y-120553971D02*
X155691081Y-120625400D01*
X155691081Y-120625400D02*
X155548224Y-120696828D01*
X157476796Y-119196828D02*
X157476796Y-120196828D01*
X156833938Y-119196828D02*
X156833938Y-119982542D01*
X156833938Y-119982542D02*
X156905367Y-120125400D01*
X156905367Y-120125400D02*
X157048224Y-120196828D01*
X157048224Y-120196828D02*
X157262510Y-120196828D01*
X157262510Y-120196828D02*
X157405367Y-120125400D01*
X157405367Y-120125400D02*
X157476796Y-120053971D01*
X158119653Y-120125400D02*
X158262510Y-120196828D01*
X158262510Y-120196828D02*
X158548224Y-120196828D01*
X158548224Y-120196828D02*
X158691081Y-120125400D01*
X158691081Y-120125400D02*
X158762510Y-119982542D01*
X158762510Y-119982542D02*
X158762510Y-119911114D01*
X158762510Y-119911114D02*
X158691081Y-119768257D01*
X158691081Y-119768257D02*
X158548224Y-119696828D01*
X158548224Y-119696828D02*
X158333939Y-119696828D01*
X158333939Y-119696828D02*
X158191081Y-119625400D01*
X158191081Y-119625400D02*
X158119653Y-119482542D01*
X158119653Y-119482542D02*
X158119653Y-119411114D01*
X158119653Y-119411114D02*
X158191081Y-119268257D01*
X158191081Y-119268257D02*
X158333939Y-119196828D01*
X158333939Y-119196828D02*
X158548224Y-119196828D01*
X158548224Y-119196828D02*
X158691081Y-119268257D01*
X159405367Y-120196828D02*
X159405367Y-118696828D01*
X160048225Y-120196828D02*
X160048225Y-119411114D01*
X160048225Y-119411114D02*
X159976796Y-119268257D01*
X159976796Y-119268257D02*
X159833939Y-119196828D01*
X159833939Y-119196828D02*
X159619653Y-119196828D01*
X159619653Y-119196828D02*
X159476796Y-119268257D01*
X159476796Y-119268257D02*
X159405367Y-119339685D01*
X166043368Y-97590828D02*
X166043368Y-96805114D01*
X166043368Y-96805114D02*
X165971939Y-96662257D01*
X165971939Y-96662257D02*
X165829082Y-96590828D01*
X165829082Y-96590828D02*
X165543368Y-96590828D01*
X165543368Y-96590828D02*
X165400510Y-96662257D01*
X166043368Y-97519400D02*
X165900510Y-97590828D01*
X165900510Y-97590828D02*
X165543368Y-97590828D01*
X165543368Y-97590828D02*
X165400510Y-97519400D01*
X165400510Y-97519400D02*
X165329082Y-97376542D01*
X165329082Y-97376542D02*
X165329082Y-97233685D01*
X165329082Y-97233685D02*
X165400510Y-97090828D01*
X165400510Y-97090828D02*
X165543368Y-97019400D01*
X165543368Y-97019400D02*
X165900510Y-97019400D01*
X165900510Y-97019400D02*
X166043368Y-96947971D01*
X166614796Y-96590828D02*
X166971939Y-97590828D01*
X167329082Y-96590828D02*
X166971939Y-97590828D01*
X166971939Y-97590828D02*
X166829082Y-97947971D01*
X166829082Y-97947971D02*
X166757653Y-98019400D01*
X166757653Y-98019400D02*
X166614796Y-98090828D01*
X168543368Y-96590828D02*
X168543368Y-97590828D01*
X167900510Y-96590828D02*
X167900510Y-97376542D01*
X167900510Y-97376542D02*
X167971939Y-97519400D01*
X167971939Y-97519400D02*
X168114796Y-97590828D01*
X168114796Y-97590828D02*
X168329082Y-97590828D01*
X168329082Y-97590828D02*
X168471939Y-97519400D01*
X168471939Y-97519400D02*
X168543368Y-97447971D01*
X169186225Y-97519400D02*
X169329082Y-97590828D01*
X169329082Y-97590828D02*
X169614796Y-97590828D01*
X169614796Y-97590828D02*
X169757653Y-97519400D01*
X169757653Y-97519400D02*
X169829082Y-97376542D01*
X169829082Y-97376542D02*
X169829082Y-97305114D01*
X169829082Y-97305114D02*
X169757653Y-97162257D01*
X169757653Y-97162257D02*
X169614796Y-97090828D01*
X169614796Y-97090828D02*
X169400511Y-97090828D01*
X169400511Y-97090828D02*
X169257653Y-97019400D01*
X169257653Y-97019400D02*
X169186225Y-96876542D01*
X169186225Y-96876542D02*
X169186225Y-96805114D01*
X169186225Y-96805114D02*
X169257653Y-96662257D01*
X169257653Y-96662257D02*
X169400511Y-96590828D01*
X169400511Y-96590828D02*
X169614796Y-96590828D01*
X169614796Y-96590828D02*
X169757653Y-96662257D01*
X170471939Y-97590828D02*
X170471939Y-96090828D01*
X171114797Y-97590828D02*
X171114797Y-96805114D01*
X171114797Y-96805114D02*
X171043368Y-96662257D01*
X171043368Y-96662257D02*
X170900511Y-96590828D01*
X170900511Y-96590828D02*
X170686225Y-96590828D01*
X170686225Y-96590828D02*
X170543368Y-96662257D01*
X170543368Y-96662257D02*
X170471939Y-96733685D01*
X171829082Y-97019400D02*
X172971940Y-97019400D01*
X173686225Y-97590828D02*
X173686225Y-96090828D01*
X173686225Y-96662257D02*
X173829083Y-96590828D01*
X173829083Y-96590828D02*
X174114797Y-96590828D01*
X174114797Y-96590828D02*
X174257654Y-96662257D01*
X174257654Y-96662257D02*
X174329083Y-96733685D01*
X174329083Y-96733685D02*
X174400511Y-96876542D01*
X174400511Y-96876542D02*
X174400511Y-97305114D01*
X174400511Y-97305114D02*
X174329083Y-97447971D01*
X174329083Y-97447971D02*
X174257654Y-97519400D01*
X174257654Y-97519400D02*
X174114797Y-97590828D01*
X174114797Y-97590828D02*
X173829083Y-97590828D01*
X173829083Y-97590828D02*
X173686225Y-97519400D01*
X175686226Y-96590828D02*
X175686226Y-97590828D01*
X175043368Y-96590828D02*
X175043368Y-97376542D01*
X175043368Y-97376542D02*
X175114797Y-97519400D01*
X175114797Y-97519400D02*
X175257654Y-97590828D01*
X175257654Y-97590828D02*
X175471940Y-97590828D01*
X175471940Y-97590828D02*
X175614797Y-97519400D01*
X175614797Y-97519400D02*
X175686226Y-97447971D01*
X177043369Y-96590828D02*
X177043369Y-97805114D01*
X177043369Y-97805114D02*
X176971940Y-97947971D01*
X176971940Y-97947971D02*
X176900511Y-98019400D01*
X176900511Y-98019400D02*
X176757654Y-98090828D01*
X176757654Y-98090828D02*
X176543369Y-98090828D01*
X176543369Y-98090828D02*
X176400511Y-98019400D01*
X177043369Y-97519400D02*
X176900511Y-97590828D01*
X176900511Y-97590828D02*
X176614797Y-97590828D01*
X176614797Y-97590828D02*
X176471940Y-97519400D01*
X176471940Y-97519400D02*
X176400511Y-97447971D01*
X176400511Y-97447971D02*
X176329083Y-97305114D01*
X176329083Y-97305114D02*
X176329083Y-96876542D01*
X176329083Y-96876542D02*
X176400511Y-96733685D01*
X176400511Y-96733685D02*
X176471940Y-96662257D01*
X176471940Y-96662257D02*
X176614797Y-96590828D01*
X176614797Y-96590828D02*
X176900511Y-96590828D01*
X176900511Y-96590828D02*
X177043369Y-96662257D01*
D12*
X120549200Y-90233332D02*
X120596819Y-90090475D01*
X120596819Y-90090475D02*
X120596819Y-89852380D01*
X120596819Y-89852380D02*
X120549200Y-89757142D01*
X120549200Y-89757142D02*
X120501580Y-89709523D01*
X120501580Y-89709523D02*
X120406342Y-89661904D01*
X120406342Y-89661904D02*
X120311104Y-89661904D01*
X120311104Y-89661904D02*
X120215866Y-89709523D01*
X120215866Y-89709523D02*
X120168247Y-89757142D01*
X120168247Y-89757142D02*
X120120628Y-89852380D01*
X120120628Y-89852380D02*
X120073009Y-90042856D01*
X120073009Y-90042856D02*
X120025390Y-90138094D01*
X120025390Y-90138094D02*
X119977771Y-90185713D01*
X119977771Y-90185713D02*
X119882533Y-90233332D01*
X119882533Y-90233332D02*
X119787295Y-90233332D01*
X119787295Y-90233332D02*
X119692057Y-90185713D01*
X119692057Y-90185713D02*
X119644438Y-90138094D01*
X119644438Y-90138094D02*
X119596819Y-90042856D01*
X119596819Y-90042856D02*
X119596819Y-89804761D01*
X119596819Y-89804761D02*
X119644438Y-89661904D01*
X119596819Y-89328570D02*
X120596819Y-89090475D01*
X120596819Y-89090475D02*
X119882533Y-88899999D01*
X119882533Y-88899999D02*
X120596819Y-88709523D01*
X120596819Y-88709523D02*
X119596819Y-88471428D01*
X119596819Y-87614285D02*
X119596819Y-88090475D01*
X119596819Y-88090475D02*
X120073009Y-88138094D01*
X120073009Y-88138094D02*
X120025390Y-88090475D01*
X120025390Y-88090475D02*
X119977771Y-87995237D01*
X119977771Y-87995237D02*
X119977771Y-87757142D01*
X119977771Y-87757142D02*
X120025390Y-87661904D01*
X120025390Y-87661904D02*
X120073009Y-87614285D01*
X120073009Y-87614285D02*
X120168247Y-87566666D01*
X120168247Y-87566666D02*
X120406342Y-87566666D01*
X120406342Y-87566666D02*
X120501580Y-87614285D01*
X120501580Y-87614285D02*
X120549200Y-87661904D01*
X120549200Y-87661904D02*
X120596819Y-87757142D01*
X120596819Y-87757142D02*
X120596819Y-87995237D01*
X120596819Y-87995237D02*
X120549200Y-88090475D01*
X120549200Y-88090475D02*
X120501580Y-88138094D01*
X155058095Y-67162819D02*
X155058095Y-67972342D01*
X155058095Y-67972342D02*
X155105714Y-68067580D01*
X155105714Y-68067580D02*
X155153333Y-68115200D01*
X155153333Y-68115200D02*
X155248571Y-68162819D01*
X155248571Y-68162819D02*
X155439047Y-68162819D01*
X155439047Y-68162819D02*
X155534285Y-68115200D01*
X155534285Y-68115200D02*
X155581904Y-68067580D01*
X155581904Y-68067580D02*
X155629523Y-67972342D01*
X155629523Y-67972342D02*
X155629523Y-67162819D01*
X156058095Y-67258057D02*
X156105714Y-67210438D01*
X156105714Y-67210438D02*
X156200952Y-67162819D01*
X156200952Y-67162819D02*
X156439047Y-67162819D01*
X156439047Y-67162819D02*
X156534285Y-67210438D01*
X156534285Y-67210438D02*
X156581904Y-67258057D01*
X156581904Y-67258057D02*
X156629523Y-67353295D01*
X156629523Y-67353295D02*
X156629523Y-67448533D01*
X156629523Y-67448533D02*
X156581904Y-67591390D01*
X156581904Y-67591390D02*
X156010476Y-68162819D01*
X156010476Y-68162819D02*
X156629523Y-68162819D01*
X129984667Y-100483200D02*
X130127524Y-100530819D01*
X130127524Y-100530819D02*
X130365619Y-100530819D01*
X130365619Y-100530819D02*
X130460857Y-100483200D01*
X130460857Y-100483200D02*
X130508476Y-100435580D01*
X130508476Y-100435580D02*
X130556095Y-100340342D01*
X130556095Y-100340342D02*
X130556095Y-100245104D01*
X130556095Y-100245104D02*
X130508476Y-100149866D01*
X130508476Y-100149866D02*
X130460857Y-100102247D01*
X130460857Y-100102247D02*
X130365619Y-100054628D01*
X130365619Y-100054628D02*
X130175143Y-100007009D01*
X130175143Y-100007009D02*
X130079905Y-99959390D01*
X130079905Y-99959390D02*
X130032286Y-99911771D01*
X130032286Y-99911771D02*
X129984667Y-99816533D01*
X129984667Y-99816533D02*
X129984667Y-99721295D01*
X129984667Y-99721295D02*
X130032286Y-99626057D01*
X130032286Y-99626057D02*
X130079905Y-99578438D01*
X130079905Y-99578438D02*
X130175143Y-99530819D01*
X130175143Y-99530819D02*
X130413238Y-99530819D01*
X130413238Y-99530819D02*
X130556095Y-99578438D01*
X130889429Y-99530819D02*
X131127524Y-100530819D01*
X131127524Y-100530819D02*
X131318000Y-99816533D01*
X131318000Y-99816533D02*
X131508476Y-100530819D01*
X131508476Y-100530819D02*
X131746572Y-99530819D01*
X132079905Y-99626057D02*
X132127524Y-99578438D01*
X132127524Y-99578438D02*
X132222762Y-99530819D01*
X132222762Y-99530819D02*
X132460857Y-99530819D01*
X132460857Y-99530819D02*
X132556095Y-99578438D01*
X132556095Y-99578438D02*
X132603714Y-99626057D01*
X132603714Y-99626057D02*
X132651333Y-99721295D01*
X132651333Y-99721295D02*
X132651333Y-99816533D01*
X132651333Y-99816533D02*
X132603714Y-99959390D01*
X132603714Y-99959390D02*
X132032286Y-100530819D01*
X132032286Y-100530819D02*
X132651333Y-100530819D01*
X150304667Y-100587200D02*
X150447524Y-100634819D01*
X150447524Y-100634819D02*
X150685619Y-100634819D01*
X150685619Y-100634819D02*
X150780857Y-100587200D01*
X150780857Y-100587200D02*
X150828476Y-100539580D01*
X150828476Y-100539580D02*
X150876095Y-100444342D01*
X150876095Y-100444342D02*
X150876095Y-100349104D01*
X150876095Y-100349104D02*
X150828476Y-100253866D01*
X150828476Y-100253866D02*
X150780857Y-100206247D01*
X150780857Y-100206247D02*
X150685619Y-100158628D01*
X150685619Y-100158628D02*
X150495143Y-100111009D01*
X150495143Y-100111009D02*
X150399905Y-100063390D01*
X150399905Y-100063390D02*
X150352286Y-100015771D01*
X150352286Y-100015771D02*
X150304667Y-99920533D01*
X150304667Y-99920533D02*
X150304667Y-99825295D01*
X150304667Y-99825295D02*
X150352286Y-99730057D01*
X150352286Y-99730057D02*
X150399905Y-99682438D01*
X150399905Y-99682438D02*
X150495143Y-99634819D01*
X150495143Y-99634819D02*
X150733238Y-99634819D01*
X150733238Y-99634819D02*
X150876095Y-99682438D01*
X151209429Y-99634819D02*
X151447524Y-100634819D01*
X151447524Y-100634819D02*
X151638000Y-99920533D01*
X151638000Y-99920533D02*
X151828476Y-100634819D01*
X151828476Y-100634819D02*
X152066572Y-99634819D01*
X152352286Y-99634819D02*
X152971333Y-99634819D01*
X152971333Y-99634819D02*
X152638000Y-100015771D01*
X152638000Y-100015771D02*
X152780857Y-100015771D01*
X152780857Y-100015771D02*
X152876095Y-100063390D01*
X152876095Y-100063390D02*
X152923714Y-100111009D01*
X152923714Y-100111009D02*
X152971333Y-100206247D01*
X152971333Y-100206247D02*
X152971333Y-100444342D01*
X152971333Y-100444342D02*
X152923714Y-100539580D01*
X152923714Y-100539580D02*
X152876095Y-100587200D01*
X152876095Y-100587200D02*
X152780857Y-100634819D01*
X152780857Y-100634819D02*
X152495143Y-100634819D01*
X152495143Y-100634819D02*
X152399905Y-100587200D01*
X152399905Y-100587200D02*
X152352286Y-100539580D01*
X148780667Y-81941200D02*
X148923524Y-81988819D01*
X148923524Y-81988819D02*
X149161619Y-81988819D01*
X149161619Y-81988819D02*
X149256857Y-81941200D01*
X149256857Y-81941200D02*
X149304476Y-81893580D01*
X149304476Y-81893580D02*
X149352095Y-81798342D01*
X149352095Y-81798342D02*
X149352095Y-81703104D01*
X149352095Y-81703104D02*
X149304476Y-81607866D01*
X149304476Y-81607866D02*
X149256857Y-81560247D01*
X149256857Y-81560247D02*
X149161619Y-81512628D01*
X149161619Y-81512628D02*
X148971143Y-81465009D01*
X148971143Y-81465009D02*
X148875905Y-81417390D01*
X148875905Y-81417390D02*
X148828286Y-81369771D01*
X148828286Y-81369771D02*
X148780667Y-81274533D01*
X148780667Y-81274533D02*
X148780667Y-81179295D01*
X148780667Y-81179295D02*
X148828286Y-81084057D01*
X148828286Y-81084057D02*
X148875905Y-81036438D01*
X148875905Y-81036438D02*
X148971143Y-80988819D01*
X148971143Y-80988819D02*
X149209238Y-80988819D01*
X149209238Y-80988819D02*
X149352095Y-81036438D01*
X149685429Y-80988819D02*
X149923524Y-81988819D01*
X149923524Y-81988819D02*
X150114000Y-81274533D01*
X150114000Y-81274533D02*
X150304476Y-81988819D01*
X150304476Y-81988819D02*
X150542572Y-80988819D01*
X151447333Y-81988819D02*
X150875905Y-81988819D01*
X151161619Y-81988819D02*
X151161619Y-80988819D01*
X151161619Y-80988819D02*
X151066381Y-81131676D01*
X151066381Y-81131676D02*
X150971143Y-81226914D01*
X150971143Y-81226914D02*
X150875905Y-81274533D01*
%TO.C,SW5*%
D13*
X122360000Y-84078000D02*
X122960000Y-84078000D01*
X122660000Y-84378000D02*
X122360000Y-84078000D01*
X122960000Y-84078000D02*
X122660000Y-84378000D01*
X124060000Y-82278000D02*
X124060000Y-94078000D01*
X128160000Y-82278000D02*
X124060000Y-82278000D01*
X128160000Y-94078000D02*
X124060000Y-94078000D01*
X129660000Y-88178000D02*
X130660000Y-88178000D01*
X130160000Y-87678000D02*
X130160000Y-88678000D01*
X132160000Y-82278000D02*
X136260000Y-82278000D01*
X136260000Y-82278000D02*
X136260000Y-84678000D01*
X136260000Y-86878000D02*
X136260000Y-89478000D01*
X136260000Y-91678000D02*
X136260000Y-94078000D01*
X136260000Y-94078000D02*
X132160000Y-94078000D01*
X133160000Y-88178000D02*
G75*
G02*
X127160000Y-88178000I-3000000J0D01*
G01*
X127160000Y-88178000D02*
G75*
G02*
X133160000Y-88178000I3000000J0D01*
G01*
%TO.C,SW4*%
X162179000Y-101473000D02*
X176149000Y-101473000D01*
X162179000Y-115443000D02*
X162179000Y-101473000D01*
X176149000Y-101473000D02*
X176149000Y-115443000D01*
X176149000Y-115443000D02*
X162179000Y-115443000D01*
%TO.C,U2*%
X155820000Y-69088000D02*
X155820000Y-67708000D01*
X157200000Y-67708000D02*
X155820000Y-67708000D01*
X120700000Y-66898000D02*
X158700000Y-66898000D01*
X158700000Y-78898000D01*
X120700000Y-78898000D01*
X120700000Y-66898000D01*
%TO.C,SW2*%
X124079000Y-101473000D02*
X138049000Y-101473000D01*
X124079000Y-115443000D02*
X124079000Y-101473000D01*
X138049000Y-101473000D02*
X138049000Y-115443000D01*
X138049000Y-115443000D02*
X124079000Y-115443000D01*
%TO.C,SW3*%
X143129000Y-101473000D02*
X157099000Y-101473000D01*
X143129000Y-115443000D02*
X143129000Y-101473000D01*
X157099000Y-101473000D02*
X157099000Y-115443000D01*
X157099000Y-115443000D02*
X143129000Y-115443000D01*
D14*
%TO.C,G\u002A\u002A\u002A*%
G36*
X171408765Y-85807994D02*
G01*
X171593993Y-85815122D01*
X171763023Y-85828301D01*
X171927197Y-85848597D01*
X172097855Y-85877072D01*
X172228469Y-85902692D01*
X172572101Y-85985588D01*
X172898634Y-86090701D01*
X173221542Y-86222734D01*
X173427126Y-86320822D01*
X173814868Y-86536696D01*
X174178970Y-86782886D01*
X174517995Y-87057740D01*
X174830505Y-87359601D01*
X175115063Y-87686817D01*
X175370231Y-88037733D01*
X175594572Y-88410694D01*
X175786648Y-88804047D01*
X175945022Y-89216138D01*
X175946192Y-89219632D01*
X176047607Y-89563210D01*
X176121177Y-89907287D01*
X176168779Y-90262578D01*
X176191631Y-90619384D01*
X176188534Y-91071379D01*
X176148216Y-91511557D01*
X176070821Y-91939550D01*
X175956488Y-92354991D01*
X175805361Y-92757511D01*
X175617581Y-93146744D01*
X175393291Y-93522322D01*
X175132631Y-93883876D01*
X174835743Y-94231039D01*
X174772689Y-94298025D01*
X174470466Y-94586374D01*
X174140680Y-94849027D01*
X173787245Y-95083448D01*
X173414072Y-95287100D01*
X173025074Y-95457446D01*
X172929069Y-95493354D01*
X172824874Y-95529477D01*
X172747678Y-95551243D01*
X172688568Y-95559694D01*
X172638627Y-95555872D01*
X172588942Y-95540819D01*
X172574131Y-95534847D01*
X172546173Y-95522662D01*
X172522804Y-95509238D01*
X172503570Y-95491160D01*
X172488015Y-95465014D01*
X172475687Y-95427386D01*
X172466131Y-95374859D01*
X172458891Y-95304020D01*
X172453515Y-95211455D01*
X172449548Y-95093747D01*
X172446534Y-94947484D01*
X172444021Y-94769249D01*
X172441553Y-94555629D01*
X172441343Y-94536846D01*
X172438901Y-94328329D01*
X172436517Y-94154847D01*
X172433994Y-94012359D01*
X172431131Y-93896821D01*
X172427729Y-93804195D01*
X172423588Y-93730436D01*
X172418510Y-93671505D01*
X172412294Y-93623360D01*
X172404742Y-93581960D01*
X172395653Y-93543262D01*
X172391535Y-93527604D01*
X172327702Y-93339881D01*
X172246171Y-93186260D01*
X172179267Y-93099551D01*
X172141708Y-93054984D01*
X172119783Y-93023013D01*
X172117272Y-93013137D01*
X172139333Y-93006428D01*
X172189922Y-92996419D01*
X172258847Y-92985088D01*
X172271435Y-92983205D01*
X172558913Y-92932515D01*
X172815772Y-92868780D01*
X173049013Y-92789527D01*
X173265638Y-92692282D01*
X173472648Y-92574572D01*
X173526618Y-92539743D01*
X173722685Y-92388292D01*
X173892832Y-92209987D01*
X174037426Y-92004120D01*
X174156835Y-91769981D01*
X174251428Y-91506862D01*
X174321573Y-91214052D01*
X174363728Y-90928003D01*
X174374713Y-90779263D01*
X174377873Y-90614999D01*
X174373700Y-90446115D01*
X174362687Y-90283516D01*
X174345328Y-90138106D01*
X174322807Y-90023461D01*
X174268136Y-89855631D01*
X174189952Y-89677827D01*
X174095337Y-89504386D01*
X173991372Y-89349648D01*
X173987646Y-89344741D01*
X173868964Y-89189139D01*
X173898661Y-89108070D01*
X173948297Y-88922495D01*
X173970729Y-88716123D01*
X173966163Y-88496001D01*
X173934810Y-88269179D01*
X173876878Y-88042706D01*
X173866140Y-88009887D01*
X173820457Y-87874230D01*
X173699375Y-87868395D01*
X173608396Y-87870511D01*
X173510113Y-87882365D01*
X173461645Y-87892444D01*
X173328666Y-87933908D01*
X173173782Y-87994454D01*
X173006334Y-88069699D01*
X172835669Y-88155263D01*
X172671128Y-88246766D01*
X172558599Y-88315857D01*
X172446045Y-88388353D01*
X172343676Y-88360778D01*
X172098351Y-88305354D01*
X171828050Y-88263047D01*
X171544975Y-88234937D01*
X171261326Y-88222103D01*
X170989304Y-88225623D01*
X170886281Y-88231868D01*
X170677422Y-88251583D01*
X170470887Y-88278230D01*
X170277459Y-88310150D01*
X170107922Y-88345685D01*
X170048323Y-88360778D01*
X169945954Y-88388353D01*
X169833400Y-88316037D01*
X169674758Y-88219129D01*
X169519173Y-88135577D01*
X169351215Y-88057491D01*
X169222100Y-88003505D01*
X169077916Y-87947545D01*
X168960801Y-87907807D01*
X168863185Y-87882424D01*
X168777497Y-87869528D01*
X168696167Y-87867254D01*
X168673572Y-87868241D01*
X168569113Y-87874230D01*
X168532700Y-87971923D01*
X168474990Y-88163807D01*
X168437931Y-88368749D01*
X168421847Y-88577409D01*
X168427060Y-88780453D01*
X168453892Y-88968543D01*
X168493468Y-89108408D01*
X168523295Y-89189817D01*
X168405302Y-89342870D01*
X168270595Y-89541353D01*
X168163396Y-89753861D01*
X168079800Y-89988767D01*
X168047046Y-90111384D01*
X168035272Y-90185480D01*
X168027050Y-90290212D01*
X168022297Y-90417307D01*
X168020929Y-90558494D01*
X168022863Y-90705501D01*
X168028016Y-90850055D01*
X168036304Y-90983886D01*
X168047643Y-91098721D01*
X168057680Y-91165161D01*
X168110702Y-91395868D01*
X168182265Y-91622742D01*
X168268611Y-91836012D01*
X168365980Y-92025909D01*
X168425289Y-92120414D01*
X168558232Y-92284294D01*
X168724682Y-92437652D01*
X168919813Y-92577568D01*
X169138803Y-92701127D01*
X169376828Y-92805410D01*
X169629064Y-92887500D01*
X169738704Y-92914799D01*
X169798522Y-92927145D01*
X169879164Y-92942190D01*
X169971171Y-92958360D01*
X170065086Y-92974082D01*
X170151453Y-92987784D01*
X170220813Y-92997892D01*
X170263709Y-93002832D01*
X170269424Y-93003077D01*
X170266673Y-93016373D01*
X170245081Y-93049134D01*
X170239242Y-93056807D01*
X170123288Y-93224699D01*
X170043078Y-93384404D01*
X169997009Y-93539229D01*
X169992329Y-93566119D01*
X169979326Y-93624898D01*
X169956842Y-93666816D01*
X169917241Y-93698595D01*
X169852884Y-93726955D01*
X169783149Y-93750224D01*
X169715098Y-93769464D01*
X169648955Y-93782331D01*
X169574037Y-93789992D01*
X169479662Y-93793613D01*
X169378574Y-93794384D01*
X169271625Y-93794051D01*
X169194419Y-93792027D01*
X169137621Y-93786773D01*
X169091897Y-93776750D01*
X169047914Y-93760420D01*
X168996336Y-93736244D01*
X168981404Y-93728913D01*
X168833822Y-93635972D01*
X168693224Y-93506615D01*
X168562079Y-93343242D01*
X168520706Y-93281349D01*
X168392137Y-93110412D01*
X168244712Y-92968590D01*
X168082835Y-92860041D01*
X168064289Y-92850287D01*
X167951485Y-92801717D01*
X167839120Y-92769710D01*
X167734093Y-92754768D01*
X167643308Y-92757393D01*
X167573667Y-92778089D01*
X167535274Y-92811774D01*
X167533174Y-92849417D01*
X167559771Y-92901000D01*
X167610235Y-92960392D01*
X167679737Y-93021458D01*
X167727104Y-93055384D01*
X167865402Y-93163355D01*
X167988684Y-93295599D01*
X168100630Y-93456791D01*
X168204918Y-93651611D01*
X168218291Y-93680055D01*
X168271195Y-93793614D01*
X168311935Y-93878406D01*
X168344624Y-93941187D01*
X168373373Y-93988715D01*
X168402296Y-94027749D01*
X168435502Y-94065047D01*
X168477106Y-94107366D01*
X168480154Y-94110406D01*
X168601154Y-94211554D01*
X168741082Y-94290927D01*
X168903428Y-94349582D01*
X169091682Y-94388579D01*
X169309336Y-94408978D01*
X169476615Y-94412765D01*
X169584331Y-94411202D01*
X169687257Y-94407143D01*
X169774298Y-94401187D01*
X169834361Y-94393933D01*
X169838061Y-94393238D01*
X169895518Y-94384019D01*
X169935383Y-94381538D01*
X169945523Y-94383757D01*
X169948505Y-94405207D01*
X169951670Y-94460272D01*
X169954833Y-94543493D01*
X169957808Y-94649409D01*
X169960410Y-94772560D01*
X169961925Y-94867086D01*
X169963657Y-95034369D01*
X169963157Y-95167295D01*
X169959680Y-95270556D01*
X169952479Y-95348843D01*
X169940809Y-95406850D01*
X169923923Y-95449266D01*
X169901076Y-95480785D01*
X169871522Y-95506098D01*
X169858965Y-95514681D01*
X169799650Y-95544112D01*
X169733390Y-95555982D01*
X169653610Y-95549729D01*
X169553734Y-95524795D01*
X169427189Y-95480619D01*
X169418000Y-95477113D01*
X169006940Y-95299324D01*
X168618631Y-95089940D01*
X168253854Y-94849685D01*
X167913395Y-94579284D01*
X167598036Y-94279461D01*
X167308562Y-93950940D01*
X167045755Y-93594445D01*
X166810401Y-93210701D01*
X166666505Y-92934692D01*
X166506682Y-92562665D01*
X166379612Y-92172788D01*
X166285553Y-91768921D01*
X166224766Y-91354920D01*
X166197511Y-90934645D01*
X166204046Y-90511953D01*
X166244631Y-90090703D01*
X166319525Y-89674752D01*
X166421495Y-89291866D01*
X166566691Y-88889253D01*
X166746138Y-88502978D01*
X166957796Y-88134890D01*
X167199624Y-87786835D01*
X167469584Y-87460662D01*
X167765634Y-87158218D01*
X168085736Y-86881349D01*
X168427848Y-86631905D01*
X168789932Y-86411733D01*
X169169947Y-86222680D01*
X169565853Y-86066594D01*
X169975610Y-85945322D01*
X170163530Y-85902692D01*
X170345603Y-85867799D01*
X170513181Y-85841836D01*
X170677605Y-85823740D01*
X170850216Y-85812448D01*
X171042354Y-85806896D01*
X171196000Y-85805854D01*
X171408765Y-85807994D01*
G37*
%TO.C,SW1*%
D13*
X143129000Y-82423000D02*
X157099000Y-82423000D01*
X143129000Y-96393000D02*
X143129000Y-82423000D01*
X157099000Y-82423000D02*
X157099000Y-96393000D01*
X157099000Y-96393000D02*
X143129000Y-96393000D01*
%TD*%
M02*
