%TF.GenerationSoftware,KiCad,Pcbnew,10.0.6*%
%TF.CreationDate,2026-09-16T23:56:23+05:30*%
%TF.ProjectId,bug-pad,6275672d-7061-4642-9e6b-696361645f70,rev?*%
%TF.SameCoordinates,Original*%
%TF.FileFunction,Copper,L1,Top*%
%TF.FilePolarity,Positive*%
%FSLAX46Y46*%
G04 Gerber Fmt 4.6, Leading zero omitted, Abs format (unit mm)*
G04 Created by KiCad (PCBNEW 10.0.6) date 2026-09-16 23:56:23*
%MOMM*%
%LPD*%
G01*
G04 APERTURE LIST*
G04 Aperture macros list*
%AMRoundRect*
0 Rectangle with rounded corners*
0 $1 Rounding radius*
0 $2 $3 $4 $5 $6 $7 $8 $9 X,Y pos of 4 corners*
0 Add a 4 corners polygon primitive as box body*
4,1,4,$2,$3,$4,$5,$6,$7,$8,$9,$2,$3,0*
0 Add four circle primitives for the rounded corners*
1,1,$1+$1,$2,$3*
1,1,$1+$1,$4,$5*
1,1,$1+$1,$6,$7*
1,1,$1+$1,$8,$9*
0 Add four rect primitives between the rounded corners*
20,1,$1+$1,$2,$3,$4,$5,0*
20,1,$1+$1,$4,$5,$6,$7,0*
20,1,$1+$1,$6,$7,$8,$9,0*
20,1,$1+$1,$8,$9,$2,$3,0*%
G04 Aperture macros list end*
%TA.AperFunction,ComponentPad*%
%ADD10C,2.200000*%
%TD*%
%TA.AperFunction,ComponentPad*%
%ADD11R,2.000000X2.000000*%
%TD*%
%TA.AperFunction,ComponentPad*%
%ADD12C,2.000000*%
%TD*%
%TA.AperFunction,ComponentPad*%
%ADD13R,3.200000X2.000000*%
%TD*%
%TA.AperFunction,ComponentPad*%
%ADD14RoundRect,0.170000X0.680000X-0.680000X0.680000X0.680000X-0.680000X0.680000X-0.680000X-0.680000X0*%
%TD*%
%TA.AperFunction,ComponentPad*%
%ADD15C,1.700000*%
%TD*%
%TA.AperFunction,ComponentPad*%
%ADD16R,3.500000X1.700000*%
%TD*%
%TA.AperFunction,ComponentPad*%
%ADD17O,3.600000X1.700000*%
%TD*%
%TA.AperFunction,ComponentPad*%
%ADD18O,3.700000X1.700000*%
%TD*%
%TA.AperFunction,Conductor*%
%ADD19C,0.200000*%
%TD*%
G04 APERTURE END LIST*
D10*
%TO.P,SW1,1,1_1*%
%TO.N,Net-(U1-PA02_A0_D0)*%
X150704000Y-115460000D03*
%TO.P,SW1,2,2_2*%
%TO.N,Net-(U1-GND)*%
X153244000Y-121810000D03*
%TD*%
D11*
%TO.P,SW5,A,A_A*%
%TO.N,Net-(U1-PB08_A6_D6_TX)*%
X190250000Y-85000000D03*
D12*
%TO.P,SW5,B,B_B*%
%TO.N,Net-(U1-PB09_A7_D7_RX)*%
X190250000Y-90000000D03*
%TO.P,SW5,C,C_C*%
%TO.N,Net-(U1-GND)*%
X190250000Y-87500000D03*
D13*
%TO.P,SW5,MP*%
%TO.N,N/C*%
X197750000Y-81900000D03*
X197750000Y-93100000D03*
D12*
%TO.P,SW5,S1,S1_S1*%
%TO.N,Net-(U1-PA7_A8_D8_SCK)*%
X204750000Y-90000000D03*
%TO.P,SW5,S2,S2_S2*%
%TO.N,Net-(U1-GND)*%
X204750000Y-85000000D03*
%TD*%
D10*
%TO.P,SW3,1,1_1*%
%TO.N,Net-(U1-PA10_A2_D2)*%
X150420000Y-136960000D03*
%TO.P,SW3,2,2_2*%
%TO.N,Net-(U1-GND)*%
X152960000Y-143310000D03*
%TD*%
%TO.P,SW4,1,1_1*%
%TO.N,Net-(U1-PA11_A3_D3)*%
X172420000Y-136960000D03*
%TO.P,SW4,2,2_2*%
%TO.N,Net-(U1-GND)*%
X174960000Y-143310000D03*
%TD*%
D14*
%TO.P,U2,1,GND_1*%
%TO.N,Net-(U1-GND)*%
X145000000Y-91310000D03*
D15*
%TO.P,U2,2,VCC_2*%
%TO.N,Net-(U1-3V3)*%
X145000000Y-88770000D03*
%TO.P,U2,3,SCL_3*%
%TO.N,Net-(U1-PA9_A5_D5_SCL)*%
X145000000Y-86230000D03*
%TO.P,U2,4,SDA_4*%
%TO.N,Net-(U1-PA8_A4_D4_SDA)*%
X145000000Y-83690000D03*
%TD*%
D10*
%TO.P,SW2,1,1_1*%
%TO.N,Net-(U1-PA4_A1_D1)*%
X127420000Y-136960000D03*
%TO.P,SW2,2,2_2*%
%TO.N,Net-(U1-GND)*%
X129960000Y-143310000D03*
%TD*%
D16*
%TO.P,U1,1,PA02_A0_D0_1*%
%TO.N,Net-(U1-PA02_A0_D0)*%
X117613000Y-78740000D03*
D17*
%TO.P,U1,2,PA4_A1_D1_2*%
%TO.N,Net-(U1-PA4_A1_D1)*%
X117613000Y-81280000D03*
%TO.P,U1,3,PA10_A2_D2_3*%
%TO.N,Net-(U1-PA10_A2_D2)*%
X117613000Y-83820000D03*
%TO.P,U1,4,PA11_A3_D3_4*%
%TO.N,Net-(U1-PA11_A3_D3)*%
X117613000Y-86360000D03*
%TO.P,U1,5,PA8_A4_D4_SDA_5*%
%TO.N,Net-(U1-PA8_A4_D4_SDA)*%
X117613000Y-88900000D03*
%TO.P,U1,6,PA9_A5_D5_SCL_6*%
%TO.N,Net-(U1-PA9_A5_D5_SCL)*%
X117613000Y-91440000D03*
%TO.P,U1,7,PB08_A6_D6_TX_7*%
%TO.N,Net-(U1-PB08_A6_D6_TX)*%
X117613000Y-93980000D03*
%TO.P,U1,8,PB09_A7_D7_RX_8*%
%TO.N,Net-(U1-PB09_A7_D7_RX)*%
X134863000Y-93980000D03*
%TO.P,U1,9,PA7_A8_D8_SCK_9*%
%TO.N,Net-(U1-PA7_A8_D8_SCK)*%
X134863000Y-91440000D03*
%TO.P,U1,10,PA5_A9_D9_MISO_10*%
%TO.N,unconnected-(U1-PA5_A9_D9_MISO-Pad10)*%
X134863000Y-88900000D03*
D18*
%TO.P,U1,11,PA6_A10_D10_MOSI_11*%
%TO.N,unconnected-(U1-PA6_A10_D10_MOSI-Pad11)*%
X134863000Y-86360000D03*
%TO.P,U1,12,3V3_12*%
%TO.N,Net-(U1-3V3)*%
X134863000Y-83820000D03*
%TO.P,U1,13,GND_13*%
%TO.N,Net-(U1-GND)*%
X134863000Y-81280000D03*
%TO.P,U1,14,5V_14*%
%TO.N,unconnected-(U1-5V-Pad14)*%
X134863000Y-78740000D03*
%TD*%
%TO.N,Net-(U1-PA02_A0_D0)*%
D19*
X121666000Y-78740000D02*
X118613000Y-78740000D01*
X122682000Y-87438000D02*
X122682000Y-79756000D01*
X150704000Y-115460000D02*
X122682000Y-87438000D01*
X122682000Y-79756000D02*
X121666000Y-78740000D01*
%TO.N,Net-(U1-PB08_A6_D6_TX)*%
X184568478Y-97520000D02*
X172940598Y-97520000D01*
X192500000Y-87250000D02*
X192500000Y-89588478D01*
X153434000Y-117026598D02*
X139906598Y-117026598D01*
X118613000Y-95733000D02*
X118613000Y-93980000D01*
X190250000Y-85000000D02*
X192500000Y-87250000D01*
X192500000Y-89588478D02*
X184568478Y-97520000D01*
X172940598Y-97520000D02*
X153434000Y-117026598D01*
X139906598Y-117026598D02*
X118613000Y-95733000D01*
%TO.N,Net-(U1-PB09_A7_D7_RX)*%
X186270000Y-93980000D02*
X133863000Y-93980000D01*
X190250000Y-90000000D02*
X186270000Y-93980000D01*
%TD*%
M02*
