%TF.GenerationSoftware,KiCad,Pcbnew,10.0.6*%
%TF.CreationDate,2026-09-18T15:10:08+05:30*%
%TF.ProjectId,bug-pad,6275672d-7061-4642-9e6b-696361645f70,rev?*%
%TF.SameCoordinates,Original*%
%TF.FileFunction,Soldermask,Bot*%
%TF.FilePolarity,Negative*%
%FSLAX46Y46*%
G04 Gerber Fmt 4.6, Leading zero omitted, Abs format (unit mm)*
G04 Created by KiCad (PCBNEW 10.0.6) date 2026-09-18 15:10:08*
%MOMM*%
%LPD*%
G01*
G04 APERTURE LIST*
G04 Aperture macros list*
%AMRoundRect*
0 Rectangle with rounded corners*
0 $1 Rounding radius*
0 $2 $3 $4 $5 $6 $7 $8 $9 X,Y pos of 4 corners*
0 Add a 4 corners polygon primitive as box body*
4,1,4,$2,$3,$4,$5,$6,$7,$8,$9,$2,$3,0*
0 Add four circle primitives for the rounded corners*
1,1,$1+$1,$2,$3*
1,1,$1+$1,$4,$5*
1,1,$1+$1,$6,$7*
1,1,$1+$1,$8,$9*
0 Add four rect primitives between the rounded corners*
20,1,$1+$1,$2,$3,$4,$5,0*
20,1,$1+$1,$4,$5,$6,$7,0*
20,1,$1+$1,$6,$7,$8,$9,0*
20,1,$1+$1,$8,$9,$2,$3,0*%
G04 Aperture macros list end*
%ADD10R,2.000000X2.000000*%
%ADD11C,2.000000*%
%ADD12R,3.200000X2.000000*%
%ADD13C,1.700000*%
%ADD14C,4.000000*%
%ADD15C,2.200000*%
%ADD16RoundRect,0.170000X-0.680000X0.680000X-0.680000X-0.680000X0.680000X-0.680000X0.680000X0.680000X0*%
%ADD17R,3.500000X1.700000*%
%ADD18O,3.600000X1.700000*%
%ADD19O,3.700000X1.700000*%
G04 APERTURE END LIST*
D10*
%TO.C,SW5*%
X122660000Y-85678000D03*
D11*
X122660000Y-90678000D03*
X122660000Y-88178000D03*
D12*
X130160000Y-82578000D03*
X130160000Y-93778000D03*
D11*
X137160000Y-90678000D03*
X137160000Y-85678000D03*
%TD*%
D13*
%TO.C,SW4*%
X164084000Y-108458000D03*
D14*
X169164000Y-108458000D03*
D13*
X174244000Y-108458000D03*
D15*
X171704000Y-103378000D03*
X165354000Y-105918000D03*
%TD*%
D16*
%TO.C,U2*%
X157200000Y-69088000D03*
D13*
X157200000Y-71628000D03*
X157200000Y-74168000D03*
X157200000Y-76708000D03*
%TD*%
%TO.C,SW2*%
X125984000Y-108458000D03*
D14*
X131064000Y-108458000D03*
D13*
X136144000Y-108458000D03*
D15*
X133604000Y-103378000D03*
X127254000Y-105918000D03*
%TD*%
D13*
%TO.C,SW3*%
X145034000Y-108458000D03*
D14*
X150114000Y-108458000D03*
D13*
X155194000Y-108458000D03*
D15*
X152654000Y-103378000D03*
X146304000Y-105918000D03*
%TD*%
D13*
%TO.C,SW1*%
X145034000Y-89408000D03*
D14*
X150114000Y-89408000D03*
D13*
X155194000Y-89408000D03*
D15*
X152654000Y-84328000D03*
X146304000Y-86868000D03*
%TD*%
D17*
%TO.C,U1*%
X179821000Y-67310000D03*
D18*
X179821000Y-69850000D03*
X179821000Y-72390000D03*
X179821000Y-74930000D03*
X179821000Y-77470000D03*
X179821000Y-80010000D03*
X179821000Y-82550000D03*
X162571000Y-82550000D03*
X162571000Y-80010000D03*
X162571000Y-77470000D03*
D19*
X162571000Y-74930000D03*
X162571000Y-72390000D03*
X162571000Y-69850000D03*
X162571000Y-67310000D03*
%TD*%
M02*
