M48
; DRILL file KiCad 10.0.6 date 2026-09-16T23:57:30
; FORMAT={-:-/ absolute / metric / decimal}
; #@! TF.CreationDate,2026-09-16T23:57:30+05:30
; #@! TF.GenerationSoftware,Kicad,Pcbnew,10.0.6
; #@! TF.FileFunction,Plated,1,2,PTH
FMAT,2
METRIC
; #@! TA.AperFunction,Plated,PTH,ComponentDrill
T1C1.000
; #@! TA.AperFunction,Plated,PTH,ComponentDrill
T2C1.500
%
G90
G05
T1
X118.613Y-78.74
X118.613Y-81.28
X118.613Y-83.82
X118.613Y-86.36
X118.613Y-88.9
X118.613Y-91.44
X118.613Y-93.98
X133.863Y-78.74
X133.863Y-81.28
X133.863Y-83.82
X133.863Y-86.36
X133.863Y-88.9
X133.863Y-91.44
X133.863Y-93.98
X145.0Y-83.69
X145.0Y-86.23
X145.0Y-88.77
X145.0Y-91.31
X190.25Y-85.0
X190.25Y-87.5
X190.25Y-90.0
X204.75Y-85.0
X204.75Y-90.0
T2
X127.42Y-136.96
X129.96Y-143.31
X150.42Y-136.96
X150.704Y-115.46
X152.96Y-143.31
X153.244Y-121.81
X172.42Y-136.96
X174.96Y-143.31
T2
G00X197.1Y-81.9
M15
G01X198.4Y-81.9
M16
G05
G00X197.1Y-93.1
M15
G01X198.4Y-93.1
M16
G05
M30
