ISO-10303-21;
HEADER;
/* Generated by software containing ST-Developer
 * from STEP Tools, Inc. (www.steptools.com) 
 */

FILE_DESCRIPTION(
/* description */ (''),
/* implementation_level */ '2;1');

FILE_NAME(
/* name */ 'Base.step',
/* time_stamp */ '2026-09-27T09:13:02+05:30',
/* author */ (''),
/* organization */ (''),
/* preprocessor_version */ 'ST-DEVELOPER v20.2',
/* originating_system */ 'Autodesk Translation Framework v15.15.0.0',
/* authorisation */ '');

FILE_SCHEMA (('AUTOMOTIVE_DESIGN { 1 0 10303 214 3 1 1 }'));
ENDSEC;

DATA;
#10=MECHANICAL_DESIGN_GEOMETRIC_PRESENTATION_REPRESENTATION('',(#13),#1597);
#11=SHAPE_REPRESENTATION_RELATIONSHIP('SRR','None',#1604,#12);
#12=ADVANCED_BREP_SHAPE_REPRESENTATION('',(#14),#1596);
#13=STYLED_ITEM('',(#1614),#14);
#14=MANIFOLD_SOLID_BREP('Base',#903);
#15=TOROIDAL_SURFACE('',#946,5.30392063717637,2.);
#16=TOROIDAL_SURFACE('',#951,5.25,2.);
#17=TOROIDAL_SURFACE('',#957,5.25,2.);
#18=TOROIDAL_SURFACE('',#962,4.82764783158645,2.);
#19=B_SPLINE_CURVE_WITH_KNOTS('',3,(#1349,#1350,#1351,#1352,#1353,#1354,
#1355,#1356,#1357,#1358,#1359,#1360),.UNSPECIFIED.,.F.,.F.,(4,2,2,2,2,4),
(-0.315286303469064,-0.313750361978643,-0.234319433744672,-0.156130921560114,
-0.0780376601542664,0.),.UNSPECIFIED.);
#20=B_SPLINE_CURVE_WITH_KNOTS('',3,(#1363,#1364,#1365,#1366,#1367,#1368,
#1369,#1370,#1371,#1372,#1373,#1374),.UNSPECIFIED.,.F.,.F.,(4,2,2,2,2,4),
(-0.313625420721153,-0.235551561456936,-0.15744337426049,-0.0792755573992156,
0.,0.00161882785332916),.UNSPECIFIED.);
#21=B_SPLINE_CURVE_WITH_KNOTS('',3,(#1379,#1380,#1381,#1382,#1383,#1384,
#1385,#1386,#1387,#1388,#1389,#1390,#1391,#1392),.UNSPECIFIED.,.F.,.F.,
(4,2,2,2,2,2,4),(-0.315279620635041,-0.237884679307236,-0.160038461411729,
-0.0813978476086417,-0.0407030081734371,0.,0.000936875796662711),
 .UNSPECIFIED.);
#22=B_SPLINE_CURVE_WITH_KNOTS('',3,(#1423,#1424,#1425,#1426,#1427,#1428,
#1429,#1430,#1431,#1432,#1433,#1434),.UNSPECIFIED.,.F.,.F.,(4,2,2,2,2,4),
(0.,0.0778907153357644,0.155926227402943,0.234210512824991,0.314269357608692,
0.315508173760418),.UNSPECIFIED.);
#23=FACE_BOUND('',#129,.T.);
#24=FACE_BOUND('',#132,.T.);
#25=FACE_BOUND('',#135,.T.);
#26=FACE_BOUND('',#138,.T.);
#27=FACE_BOUND('',#152,.T.);
#28=FACE_BOUND('',#166,.T.);
#29=FACE_BOUND('',#170,.T.);
#30=FACE_BOUND('',#171,.T.);
#31=FACE_BOUND('',#172,.T.);
#32=FACE_BOUND('',#173,.T.);
#33=FACE_BOUND('',#177,.T.);
#34=FACE_BOUND('',#178,.T.);
#35=FACE_BOUND('',#179,.T.);
#36=FACE_BOUND('',#180,.T.);
#37=FACE_BOUND('',#181,.T.);
#38=FACE_BOUND('',#189,.T.);
#39=PLANE('',#932);
#40=PLANE('',#936);
#41=PLANE('',#940);
#42=PLANE('',#944);
#43=PLANE('',#967);
#44=PLANE('',#970);
#45=PLANE('',#971);
#46=PLANE('',#972);
#47=PLANE('',#976);
#48=PLANE('',#980);
#49=PLANE('',#984);
#50=PLANE('',#988);
#51=PLANE('',#991);
#52=PLANE('',#994);
#53=PLANE('',#998);
#54=PLANE('',#999);
#55=PLANE('',#1005);
#56=PLANE('',#1006);
#57=PLANE('',#1010);
#58=PLANE('',#1012);
#59=PLANE('',#1013);
#60=PLANE('',#1014);
#61=PLANE('',#1015);
#62=PLANE('',#1016);
#63=ELLIPSE('',#930,3.00400308354059,3.);
#64=ELLIPSE('',#934,3.0040030835406,3.);
#65=ELLIPSE('',#938,3.00400308354059,3.);
#66=ELLIPSE('',#942,3.00400308354059,3.);
#67=ELLIPSE('',#997,5.00667180590099,5.);
#68=ELLIPSE('',#1000,5.00667180590099,5.);
#69=ELLIPSE('',#1001,5.00667180590099,5.);
#70=ELLIPSE('',#1002,5.00667180590099,5.);
#71=FACE_OUTER_BOUND('',#123,.T.);
#72=FACE_OUTER_BOUND('',#124,.T.);
#73=FACE_OUTER_BOUND('',#125,.T.);
#74=FACE_OUTER_BOUND('',#126,.T.);
#75=FACE_OUTER_BOUND('',#127,.T.);
#76=FACE_OUTER_BOUND('',#128,.T.);
#77=FACE_OUTER_BOUND('',#130,.T.);
#78=FACE_OUTER_BOUND('',#131,.T.);
#79=FACE_OUTER_BOUND('',#133,.T.);
#80=FACE_OUTER_BOUND('',#134,.T.);
#81=FACE_OUTER_BOUND('',#136,.T.);
#82=FACE_OUTER_BOUND('',#137,.T.);
#83=FACE_OUTER_BOUND('',#139,.T.);
#84=FACE_OUTER_BOUND('',#140,.T.);
#85=FACE_OUTER_BOUND('',#141,.T.);
#86=FACE_OUTER_BOUND('',#142,.T.);
#87=FACE_OUTER_BOUND('',#143,.T.);
#88=FACE_OUTER_BOUND('',#144,.T.);
#89=FACE_OUTER_BOUND('',#145,.T.);
#90=FACE_OUTER_BOUND('',#146,.T.);
#91=FACE_OUTER_BOUND('',#147,.T.);
#92=FACE_OUTER_BOUND('',#148,.T.);
#93=FACE_OUTER_BOUND('',#149,.T.);
#94=FACE_OUTER_BOUND('',#150,.T.);
#95=FACE_OUTER_BOUND('',#151,.T.);
#96=FACE_OUTER_BOUND('',#153,.T.);
#97=FACE_OUTER_BOUND('',#154,.T.);
#98=FACE_OUTER_BOUND('',#155,.T.);
#99=FACE_OUTER_BOUND('',#156,.T.);
#100=FACE_OUTER_BOUND('',#157,.T.);
#101=FACE_OUTER_BOUND('',#158,.T.);
#102=FACE_OUTER_BOUND('',#159,.T.);
#103=FACE_OUTER_BOUND('',#160,.T.);
#104=FACE_OUTER_BOUND('',#161,.T.);
#105=FACE_OUTER_BOUND('',#162,.T.);
#106=FACE_OUTER_BOUND('',#163,.T.);
#107=FACE_OUTER_BOUND('',#164,.T.);
#108=FACE_OUTER_BOUND('',#165,.T.);
#109=FACE_OUTER_BOUND('',#167,.T.);
#110=FACE_OUTER_BOUND('',#168,.T.);
#111=FACE_OUTER_BOUND('',#169,.T.);
#112=FACE_OUTER_BOUND('',#174,.T.);
#113=FACE_OUTER_BOUND('',#175,.T.);
#114=FACE_OUTER_BOUND('',#176,.T.);
#115=FACE_OUTER_BOUND('',#182,.T.);
#116=FACE_OUTER_BOUND('',#183,.T.);
#117=FACE_OUTER_BOUND('',#184,.T.);
#118=FACE_OUTER_BOUND('',#185,.T.);
#119=FACE_OUTER_BOUND('',#186,.T.);
#120=FACE_OUTER_BOUND('',#187,.T.);
#121=FACE_OUTER_BOUND('',#188,.T.);
#122=FACE_OUTER_BOUND('',#190,.T.);
#123=EDGE_LOOP('',(#579,#580,#581,#582));
#124=EDGE_LOOP('',(#583,#584,#585,#586));
#125=EDGE_LOOP('',(#587,#588,#589,#590));
#126=EDGE_LOOP('',(#591,#592,#593,#594));
#127=EDGE_LOOP('',(#595,#596,#597,#598));
#128=EDGE_LOOP('',(#599));
#129=EDGE_LOOP('',(#600));
#130=EDGE_LOOP('',(#601,#602,#603,#604));
#131=EDGE_LOOP('',(#605));
#132=EDGE_LOOP('',(#606));
#133=EDGE_LOOP('',(#607,#608,#609,#610));
#134=EDGE_LOOP('',(#611));
#135=EDGE_LOOP('',(#612));
#136=EDGE_LOOP('',(#613,#614,#615,#616));
#137=EDGE_LOOP('',(#617));
#138=EDGE_LOOP('',(#618));
#139=EDGE_LOOP('',(#619,#620,#621,#622));
#140=EDGE_LOOP('',(#623,#624,#625,#626));
#141=EDGE_LOOP('',(#627,#628,#629,#630));
#142=EDGE_LOOP('',(#631,#632,#633,#634));
#143=EDGE_LOOP('',(#635,#636,#637,#638));
#144=EDGE_LOOP('',(#639,#640,#641,#642));
#145=EDGE_LOOP('',(#643,#644,#645,#646));
#146=EDGE_LOOP('',(#647,#648,#649,#650));
#147=EDGE_LOOP('',(#651,#652,#653,#654));
#148=EDGE_LOOP('',(#655,#656,#657,#658));
#149=EDGE_LOOP('',(#659,#660,#661,#662));
#150=EDGE_LOOP('',(#663,#664,#665,#666));
#151=EDGE_LOOP('',(#667,#668,#669,#670));
#152=EDGE_LOOP('',(#671,#672,#673,#674,#675,#676,#677,#678));
#153=EDGE_LOOP('',(#679,#680,#681,#682));
#154=EDGE_LOOP('',(#683,#684,#685,#686));
#155=EDGE_LOOP('',(#687,#688,#689,#690));
#156=EDGE_LOOP('',(#691,#692,#693,#694));
#157=EDGE_LOOP('',(#695,#696,#697,#698));
#158=EDGE_LOOP('',(#699,#700,#701,#702));
#159=EDGE_LOOP('',(#703,#704,#705,#706));
#160=EDGE_LOOP('',(#707,#708,#709,#710));
#161=EDGE_LOOP('',(#711,#712,#713,#714));
#162=EDGE_LOOP('',(#715,#716,#717,#718));
#163=EDGE_LOOP('',(#719,#720,#721,#722));
#164=EDGE_LOOP('',(#723,#724,#725,#726));
#165=EDGE_LOOP('',(#727,#728,#729,#730,#731,#732,#733,#734));
#166=EDGE_LOOP('',(#735,#736,#737,#738,#739,#740,#741,#742));
#167=EDGE_LOOP('',(#743,#744,#745,#746));
#168=EDGE_LOOP('',(#747,#748,#749,#750));
#169=EDGE_LOOP('',(#751,#752,#753,#754,#755,#756,#757,#758));
#170=EDGE_LOOP('',(#759));
#171=EDGE_LOOP('',(#760));
#172=EDGE_LOOP('',(#761));
#173=EDGE_LOOP('',(#762));
#174=EDGE_LOOP('',(#763,#764,#765,#766));
#175=EDGE_LOOP('',(#767,#768,#769,#770));
#176=EDGE_LOOP('',(#771,#772,#773,#774,#775,#776,#777,#778));
#177=EDGE_LOOP('',(#779,#780,#781,#782));
#178=EDGE_LOOP('',(#783));
#179=EDGE_LOOP('',(#784));
#180=EDGE_LOOP('',(#785));
#181=EDGE_LOOP('',(#786));
#182=EDGE_LOOP('',(#787,#788,#789,#790));
#183=EDGE_LOOP('',(#791,#792,#793,#794));
#184=EDGE_LOOP('',(#795,#796,#797,#798));
#185=EDGE_LOOP('',(#799,#800,#801,#802));
#186=EDGE_LOOP('',(#803,#804,#805,#806));
#187=EDGE_LOOP('',(#807,#808,#809,#810));
#188=EDGE_LOOP('',(#811,#812,#813,#814));
#189=EDGE_LOOP('',(#815,#816,#817,#818,#819,#820,#821,#822));
#190=EDGE_LOOP('',(#823,#824,#825,#826));
#191=LINE('',#1296,#263);
#192=LINE('',#1302,#264);
#193=LINE('',#1308,#265);
#194=LINE('',#1314,#266);
#195=LINE('',#1320,#267);
#196=LINE('',#1327,#268);
#197=LINE('',#1334,#269);
#198=LINE('',#1341,#270);
#199=LINE('',#1347,#271);
#200=LINE('',#1362,#272);
#201=LINE('',#1396,#273);
#202=LINE('',#1399,#274);
#203=LINE('',#1410,#275);
#204=LINE('',#1411,#276);
#205=LINE('',#1420,#277);
#206=LINE('',#1422,#278);
#207=LINE('',#1440,#279);
#208=LINE('',#1443,#280);
#209=LINE('',#1446,#281);
#210=LINE('',#1447,#282);
#211=LINE('',#1450,#283);
#212=LINE('',#1454,#284);
#213=LINE('',#1455,#285);
#214=LINE('',#1459,#286);
#215=LINE('',#1461,#287);
#216=LINE('',#1463,#288);
#217=LINE('',#1464,#289);
#218=LINE('',#1468,#290);
#219=LINE('',#1470,#291);
#220=LINE('',#1472,#292);
#221=LINE('',#1473,#293);
#222=LINE('',#1479,#294);
#223=LINE('',#1482,#295);
#224=LINE('',#1484,#296);
#225=LINE('',#1485,#297);
#226=LINE('',#1491,#298);
#227=LINE('',#1494,#299);
#228=LINE('',#1496,#300);
#229=LINE('',#1497,#301);
#230=LINE('',#1503,#302);
#231=LINE('',#1506,#303);
#232=LINE('',#1508,#304);
#233=LINE('',#1509,#305);
#234=LINE('',#1515,#306);
#235=LINE('',#1516,#307);
#236=LINE('',#1520,#308);
#237=LINE('',#1523,#309);
#238=LINE('',#1524,#310);
#239=LINE('',#1533,#311);
#240=LINE('',#1536,#312);
#241=LINE('',#1538,#313);
#242=LINE('',#1539,#314);
#243=LINE('',#1544,#315);
#244=LINE('',#1548,#316);
#245=LINE('',#1553,#317);
#246=LINE('',#1556,#318);
#247=LINE('',#1557,#319);
#248=LINE('',#1562,#320);
#249=LINE('',#1566,#321);
#250=LINE('',#1568,#322);
#251=LINE('',#1570,#323);
#252=LINE('',#1571,#324);
#253=LINE('',#1573,#325);
#254=LINE('',#1575,#326);
#255=LINE('',#1580,#327);
#256=LINE('',#1581,#328);
#257=LINE('',#1582,#329);
#258=LINE('',#1585,#330);
#259=LINE('',#1586,#331);
#260=LINE('',#1589,#332);
#261=LINE('',#1590,#333);
#262=LINE('',#1592,#334);
#263=VECTOR('',#1023,1.7);
#264=VECTOR('',#1030,1.7);
#265=VECTOR('',#1037,1.7);
#266=VECTOR('',#1044,1.7);
#267=VECTOR('',#1051,3.);
#268=VECTOR('',#1060,3.);
#269=VECTOR('',#1069,3.);
#270=VECTOR('',#1078,3.);
#271=VECTOR('',#1085,10.);
#272=VECTOR('',#1086,10.);
#273=VECTOR('',#1095,10.);
#274=VECTOR('',#1098,10.);
#275=VECTOR('',#1111,10.);
#276=VECTOR('',#1112,10.);
#277=VECTOR('',#1123,10.);
#278=VECTOR('',#1124,10.);
#279=VECTOR('',#1133,10.);
#280=VECTOR('',#1136,10.);
#281=VECTOR('',#1139,10.);
#282=VECTOR('',#1140,10.);
#283=VECTOR('',#1143,10.);
#284=VECTOR('',#1148,10.);
#285=VECTOR('',#1149,10.);
#286=VECTOR('',#1152,10.);
#287=VECTOR('',#1153,10.);
#288=VECTOR('',#1154,10.);
#289=VECTOR('',#1155,10.);
#290=VECTOR('',#1158,10.);
#291=VECTOR('',#1159,10.);
#292=VECTOR('',#1160,10.);
#293=VECTOR('',#1161,10.);
#294=VECTOR('',#1168,10.);
#295=VECTOR('',#1171,10.);
#296=VECTOR('',#1172,10.);
#297=VECTOR('',#1173,10.);
#298=VECTOR('',#1180,10.);
#299=VECTOR('',#1183,10.);
#300=VECTOR('',#1184,10.);
#301=VECTOR('',#1185,10.);
#302=VECTOR('',#1192,10.);
#303=VECTOR('',#1195,10.);
#304=VECTOR('',#1196,10.);
#305=VECTOR('',#1197,10.);
#306=VECTOR('',#1206,10.);
#307=VECTOR('',#1207,10.);
#308=VECTOR('',#1212,10.);
#309=VECTOR('',#1215,10.);
#310=VECTOR('',#1216,10.);
#311=VECTOR('',#1229,10.);
#312=VECTOR('',#1232,10.);
#313=VECTOR('',#1233,10.);
#314=VECTOR('',#1234,10.);
#315=VECTOR('',#1239,10.);
#316=VECTOR('',#1242,10.);
#317=VECTOR('',#1249,10.);
#318=VECTOR('',#1252,10.);
#319=VECTOR('',#1253,10.);
#320=VECTOR('',#1258,10.);
#321=VECTOR('',#1261,10.);
#322=VECTOR('',#1262,10.);
#323=VECTOR('',#1263,10.);
#324=VECTOR('',#1264,10.);
#325=VECTOR('',#1267,10.);
#326=VECTOR('',#1270,10.);
#327=VECTOR('',#1275,10.);
#328=VECTOR('',#1276,10.);
#329=VECTOR('',#1277,10.);
#330=VECTOR('',#1280,10.);
#331=VECTOR('',#1281,10.);
#332=VECTOR('',#1284,10.);
#333=VECTOR('',#1285,10.);
#334=VECTOR('',#1288,10.);
#335=CIRCLE('',#918,1.7);
#336=CIRCLE('',#919,1.7);
#337=CIRCLE('',#921,1.7);
#338=CIRCLE('',#922,1.7);
#339=CIRCLE('',#924,1.7);
#340=CIRCLE('',#925,1.7);
#341=CIRCLE('',#927,1.7);
#342=CIRCLE('',#928,1.7);
#343=CIRCLE('',#931,3.);
#344=CIRCLE('',#935,3.);
#345=CIRCLE('',#939,3.);
#346=CIRCLE('',#943,3.);
#347=CIRCLE('',#947,3.30392063717637);
#348=CIRCLE('',#948,5.30392063717637);
#349=CIRCLE('',#950,2.);
#350=CIRCLE('',#952,2.);
#351=CIRCLE('',#953,5.25);
#352=CIRCLE('',#954,3.25);
#353=CIRCLE('',#956,2.);
#354=CIRCLE('',#958,2.);
#355=CIRCLE('',#959,5.25);
#356=CIRCLE('',#960,3.25);
#357=CIRCLE('',#963,4.82764783158645);
#358=CIRCLE('',#964,2.82764783158645);
#359=CIRCLE('',#966,3.25);
#360=CIRCLE('',#969,3.30392063717637);
#361=CIRCLE('',#974,1.25);
#362=CIRCLE('',#975,1.25);
#363=CIRCLE('',#978,1.25);
#364=CIRCLE('',#979,1.25);
#365=CIRCLE('',#982,1.25);
#366=CIRCLE('',#983,1.25);
#367=CIRCLE('',#986,1.25);
#368=CIRCLE('',#987,1.25);
#369=CIRCLE('',#990,3.25);
#370=CIRCLE('',#993,2.82764783158645);
#371=CIRCLE('',#996,5.);
#372=CIRCLE('',#1004,5.);
#373=CIRCLE('',#1007,5.);
#374=CIRCLE('',#1008,5.);
#375=VERTEX_POINT('',#1293);
#376=VERTEX_POINT('',#1295);
#377=VERTEX_POINT('',#1299);
#378=VERTEX_POINT('',#1301);
#379=VERTEX_POINT('',#1305);
#380=VERTEX_POINT('',#1307);
#381=VERTEX_POINT('',#1311);
#382=VERTEX_POINT('',#1313);
#383=VERTEX_POINT('',#1317);
#384=VERTEX_POINT('',#1319);
#385=VERTEX_POINT('',#1324);
#386=VERTEX_POINT('',#1326);
#387=VERTEX_POINT('',#1331);
#388=VERTEX_POINT('',#1333);
#389=VERTEX_POINT('',#1338);
#390=VERTEX_POINT('',#1340);
#391=VERTEX_POINT('',#1345);
#392=VERTEX_POINT('',#1346);
#393=VERTEX_POINT('',#1348);
#394=VERTEX_POINT('',#1361);
#395=VERTEX_POINT('',#1376);
#396=VERTEX_POINT('',#1378);
#397=VERTEX_POINT('',#1395);
#398=VERTEX_POINT('',#1397);
#399=VERTEX_POINT('',#1401);
#400=VERTEX_POINT('',#1402);
#401=VERTEX_POINT('',#1407);
#402=VERTEX_POINT('',#1408);
#403=VERTEX_POINT('',#1413);
#404=VERTEX_POINT('',#1414);
#405=VERTEX_POINT('',#1419);
#406=VERTEX_POINT('',#1421);
#407=VERTEX_POINT('',#1439);
#408=VERTEX_POINT('',#1441);
#409=VERTEX_POINT('',#1445);
#410=VERTEX_POINT('',#1449);
#411=VERTEX_POINT('',#1453);
#412=VERTEX_POINT('',#1457);
#413=VERTEX_POINT('',#1458);
#414=VERTEX_POINT('',#1460);
#415=VERTEX_POINT('',#1462);
#416=VERTEX_POINT('',#1466);
#417=VERTEX_POINT('',#1467);
#418=VERTEX_POINT('',#1469);
#419=VERTEX_POINT('',#1471);
#420=VERTEX_POINT('',#1475);
#421=VERTEX_POINT('',#1477);
#422=VERTEX_POINT('',#1481);
#423=VERTEX_POINT('',#1483);
#424=VERTEX_POINT('',#1487);
#425=VERTEX_POINT('',#1489);
#426=VERTEX_POINT('',#1493);
#427=VERTEX_POINT('',#1495);
#428=VERTEX_POINT('',#1499);
#429=VERTEX_POINT('',#1501);
#430=VERTEX_POINT('',#1505);
#431=VERTEX_POINT('',#1507);
#432=VERTEX_POINT('',#1514);
#433=VERTEX_POINT('',#1518);
#434=VERTEX_POINT('',#1522);
#435=VERTEX_POINT('',#1529);
#436=VERTEX_POINT('',#1531);
#437=VERTEX_POINT('',#1535);
#438=VERTEX_POINT('',#1537);
#439=VERTEX_POINT('',#1541);
#440=VERTEX_POINT('',#1543);
#441=VERTEX_POINT('',#1545);
#442=VERTEX_POINT('',#1547);
#443=VERTEX_POINT('',#1551);
#444=VERTEX_POINT('',#1555);
#445=VERTEX_POINT('',#1559);
#446=VERTEX_POINT('',#1561);
#447=VERTEX_POINT('',#1564);
#448=VERTEX_POINT('',#1565);
#449=VERTEX_POINT('',#1567);
#450=VERTEX_POINT('',#1569);
#451=VERTEX_POINT('',#1578);
#452=VERTEX_POINT('',#1579);
#453=VERTEX_POINT('',#1584);
#454=VERTEX_POINT('',#1588);
#455=EDGE_CURVE('',#375,#375,#335,.T.);
#456=EDGE_CURVE('',#375,#376,#191,.T.);
#457=EDGE_CURVE('',#376,#376,#336,.T.);
#458=EDGE_CURVE('',#377,#377,#337,.T.);
#459=EDGE_CURVE('',#377,#378,#192,.T.);
#460=EDGE_CURVE('',#378,#378,#338,.T.);
#461=EDGE_CURVE('',#379,#379,#339,.T.);
#462=EDGE_CURVE('',#379,#380,#193,.T.);
#463=EDGE_CURVE('',#380,#380,#340,.T.);
#464=EDGE_CURVE('',#381,#381,#341,.T.);
#465=EDGE_CURVE('',#381,#382,#194,.T.);
#466=EDGE_CURVE('',#382,#382,#342,.T.);
#467=EDGE_CURVE('',#383,#383,#63,.T.);
#468=EDGE_CURVE('',#383,#384,#195,.T.);
#469=EDGE_CURVE('',#384,#384,#343,.T.);
#470=EDGE_CURVE('',#385,#385,#64,.T.);
#471=EDGE_CURVE('',#385,#386,#196,.T.);
#472=EDGE_CURVE('',#386,#386,#344,.T.);
#473=EDGE_CURVE('',#387,#387,#65,.T.);
#474=EDGE_CURVE('',#387,#388,#197,.T.);
#475=EDGE_CURVE('',#388,#388,#345,.T.);
#476=EDGE_CURVE('',#389,#389,#66,.T.);
#477=EDGE_CURVE('',#389,#390,#198,.T.);
#478=EDGE_CURVE('',#390,#390,#346,.T.);
#479=EDGE_CURVE('',#391,#392,#199,.T.);
#480=EDGE_CURVE('',#392,#393,#19,.T.);
#481=EDGE_CURVE('',#393,#394,#200,.T.);
#482=EDGE_CURVE('',#394,#391,#20,.T.);
#483=EDGE_CURVE('',#394,#395,#347,.T.);
#484=EDGE_CURVE('',#395,#396,#21,.T.);
#485=EDGE_CURVE('',#396,#391,#348,.T.);
#486=EDGE_CURVE('',#395,#397,#201,.T.);
#487=EDGE_CURVE('',#397,#398,#349,.T.);
#488=EDGE_CURVE('',#398,#396,#202,.T.);
#489=EDGE_CURVE('',#399,#400,#350,.T.);
#490=EDGE_CURVE('',#400,#398,#351,.T.);
#491=EDGE_CURVE('',#397,#399,#352,.T.);
#492=EDGE_CURVE('',#401,#402,#353,.T.);
#493=EDGE_CURVE('',#402,#400,#203,.T.);
#494=EDGE_CURVE('',#399,#401,#204,.T.);
#495=EDGE_CURVE('',#403,#404,#354,.T.);
#496=EDGE_CURVE('',#404,#402,#355,.T.);
#497=EDGE_CURVE('',#401,#403,#356,.T.);
#498=EDGE_CURVE('',#405,#404,#205,.T.);
#499=EDGE_CURVE('',#403,#406,#206,.T.);
#500=EDGE_CURVE('',#406,#405,#22,.T.);
#501=EDGE_CURVE('',#392,#405,#357,.T.);
#502=EDGE_CURVE('',#406,#393,#358,.T.);
#503=EDGE_CURVE('',#407,#397,#207,.T.);
#504=EDGE_CURVE('',#408,#407,#359,.T.);
#505=EDGE_CURVE('',#408,#399,#208,.T.);
#506=EDGE_CURVE('',#409,#395,#209,.T.);
#507=EDGE_CURVE('',#407,#409,#210,.T.);
#508=EDGE_CURVE('',#410,#394,#211,.T.);
#509=EDGE_CURVE('',#409,#410,#360,.T.);
#510=EDGE_CURVE('',#411,#393,#212,.T.);
#511=EDGE_CURVE('',#411,#410,#213,.T.);
#512=EDGE_CURVE('',#412,#413,#214,.T.);
#513=EDGE_CURVE('',#414,#412,#215,.T.);
#514=EDGE_CURVE('',#415,#414,#216,.T.);
#515=EDGE_CURVE('',#413,#415,#217,.T.);
#516=EDGE_CURVE('',#416,#417,#218,.T.);
#517=EDGE_CURVE('',#418,#416,#219,.T.);
#518=EDGE_CURVE('',#419,#418,#220,.T.);
#519=EDGE_CURVE('',#419,#417,#221,.T.);
#520=EDGE_CURVE('',#417,#420,#361,.T.);
#521=EDGE_CURVE('',#421,#419,#362,.T.);
#522=EDGE_CURVE('',#421,#420,#222,.T.);
#523=EDGE_CURVE('',#420,#422,#223,.T.);
#524=EDGE_CURVE('',#423,#421,#224,.T.);
#525=EDGE_CURVE('',#423,#422,#225,.T.);
#526=EDGE_CURVE('',#422,#424,#363,.T.);
#527=EDGE_CURVE('',#425,#423,#364,.T.);
#528=EDGE_CURVE('',#425,#424,#226,.T.);
#529=EDGE_CURVE('',#424,#426,#227,.T.);
#530=EDGE_CURVE('',#427,#425,#228,.T.);
#531=EDGE_CURVE('',#427,#426,#229,.T.);
#532=EDGE_CURVE('',#426,#428,#365,.T.);
#533=EDGE_CURVE('',#429,#427,#366,.T.);
#534=EDGE_CURVE('',#429,#428,#230,.T.);
#535=EDGE_CURVE('',#428,#430,#231,.T.);
#536=EDGE_CURVE('',#431,#429,#232,.T.);
#537=EDGE_CURVE('',#431,#430,#233,.T.);
#538=EDGE_CURVE('',#430,#416,#367,.T.);
#539=EDGE_CURVE('',#418,#431,#368,.T.);
#540=EDGE_CURVE('',#432,#408,#234,.T.);
#541=EDGE_CURVE('',#432,#401,#235,.T.);
#542=EDGE_CURVE('',#433,#432,#369,.T.);
#543=EDGE_CURVE('',#433,#403,#236,.T.);
#544=EDGE_CURVE('',#434,#433,#237,.T.);
#545=EDGE_CURVE('',#434,#406,#238,.T.);
#546=EDGE_CURVE('',#411,#434,#370,.T.);
#547=EDGE_CURVE('',#435,#412,#371,.T.);
#548=EDGE_CURVE('',#413,#436,#67,.T.);
#549=EDGE_CURVE('',#436,#435,#239,.T.);
#550=EDGE_CURVE('',#436,#437,#240,.T.);
#551=EDGE_CURVE('',#438,#437,#241,.T.);
#552=EDGE_CURVE('',#435,#438,#242,.T.);
#553=EDGE_CURVE('',#439,#415,#68,.T.);
#554=EDGE_CURVE('',#440,#439,#243,.T.);
#555=EDGE_CURVE('',#441,#440,#69,.T.);
#556=EDGE_CURVE('',#442,#441,#244,.T.);
#557=EDGE_CURVE('',#437,#442,#70,.T.);
#558=EDGE_CURVE('',#414,#443,#372,.T.);
#559=EDGE_CURVE('',#443,#439,#245,.T.);
#560=EDGE_CURVE('',#444,#443,#246,.T.);
#561=EDGE_CURVE('',#440,#444,#247,.T.);
#562=EDGE_CURVE('',#445,#438,#373,.T.);
#563=EDGE_CURVE('',#445,#446,#248,.T.);
#564=EDGE_CURVE('',#444,#446,#374,.T.);
#565=EDGE_CURVE('',#447,#448,#249,.T.);
#566=EDGE_CURVE('',#448,#449,#250,.T.);
#567=EDGE_CURVE('',#449,#450,#251,.T.);
#568=EDGE_CURVE('',#450,#447,#252,.T.);
#569=EDGE_CURVE('',#446,#441,#253,.T.);
#570=EDGE_CURVE('',#442,#445,#254,.T.);
#571=EDGE_CURVE('',#451,#452,#255,.T.);
#572=EDGE_CURVE('',#451,#447,#256,.T.);
#573=EDGE_CURVE('',#452,#450,#257,.T.);
#574=EDGE_CURVE('',#452,#453,#258,.T.);
#575=EDGE_CURVE('',#453,#449,#259,.T.);
#576=EDGE_CURVE('',#453,#454,#260,.T.);
#577=EDGE_CURVE('',#454,#448,#261,.T.);
#578=EDGE_CURVE('',#454,#451,#262,.T.);
#579=ORIENTED_EDGE('',*,*,#455,.F.);
#580=ORIENTED_EDGE('',*,*,#456,.T.);
#581=ORIENTED_EDGE('',*,*,#457,.F.);
#582=ORIENTED_EDGE('',*,*,#456,.F.);
#583=ORIENTED_EDGE('',*,*,#458,.F.);
#584=ORIENTED_EDGE('',*,*,#459,.T.);
#585=ORIENTED_EDGE('',*,*,#460,.F.);
#586=ORIENTED_EDGE('',*,*,#459,.F.);
#587=ORIENTED_EDGE('',*,*,#461,.F.);
#588=ORIENTED_EDGE('',*,*,#462,.T.);
#589=ORIENTED_EDGE('',*,*,#463,.F.);
#590=ORIENTED_EDGE('',*,*,#462,.F.);
#591=ORIENTED_EDGE('',*,*,#464,.F.);
#592=ORIENTED_EDGE('',*,*,#465,.T.);
#593=ORIENTED_EDGE('',*,*,#466,.F.);
#594=ORIENTED_EDGE('',*,*,#465,.F.);
#595=ORIENTED_EDGE('',*,*,#467,.F.);
#596=ORIENTED_EDGE('',*,*,#468,.T.);
#597=ORIENTED_EDGE('',*,*,#469,.T.);
#598=ORIENTED_EDGE('',*,*,#468,.F.);
#599=ORIENTED_EDGE('',*,*,#469,.F.);
#600=ORIENTED_EDGE('',*,*,#458,.T.);
#601=ORIENTED_EDGE('',*,*,#470,.F.);
#602=ORIENTED_EDGE('',*,*,#471,.T.);
#603=ORIENTED_EDGE('',*,*,#472,.T.);
#604=ORIENTED_EDGE('',*,*,#471,.F.);
#605=ORIENTED_EDGE('',*,*,#472,.F.);
#606=ORIENTED_EDGE('',*,*,#464,.T.);
#607=ORIENTED_EDGE('',*,*,#473,.F.);
#608=ORIENTED_EDGE('',*,*,#474,.T.);
#609=ORIENTED_EDGE('',*,*,#475,.T.);
#610=ORIENTED_EDGE('',*,*,#474,.F.);
#611=ORIENTED_EDGE('',*,*,#475,.F.);
#612=ORIENTED_EDGE('',*,*,#461,.T.);
#613=ORIENTED_EDGE('',*,*,#476,.F.);
#614=ORIENTED_EDGE('',*,*,#477,.T.);
#615=ORIENTED_EDGE('',*,*,#478,.T.);
#616=ORIENTED_EDGE('',*,*,#477,.F.);
#617=ORIENTED_EDGE('',*,*,#478,.F.);
#618=ORIENTED_EDGE('',*,*,#455,.T.);
#619=ORIENTED_EDGE('',*,*,#479,.T.);
#620=ORIENTED_EDGE('',*,*,#480,.T.);
#621=ORIENTED_EDGE('',*,*,#481,.T.);
#622=ORIENTED_EDGE('',*,*,#482,.T.);
#623=ORIENTED_EDGE('',*,*,#483,.T.);
#624=ORIENTED_EDGE('',*,*,#484,.T.);
#625=ORIENTED_EDGE('',*,*,#485,.T.);
#626=ORIENTED_EDGE('',*,*,#482,.F.);
#627=ORIENTED_EDGE('',*,*,#486,.T.);
#628=ORIENTED_EDGE('',*,*,#487,.T.);
#629=ORIENTED_EDGE('',*,*,#488,.T.);
#630=ORIENTED_EDGE('',*,*,#484,.F.);
#631=ORIENTED_EDGE('',*,*,#489,.T.);
#632=ORIENTED_EDGE('',*,*,#490,.T.);
#633=ORIENTED_EDGE('',*,*,#487,.F.);
#634=ORIENTED_EDGE('',*,*,#491,.T.);
#635=ORIENTED_EDGE('',*,*,#492,.T.);
#636=ORIENTED_EDGE('',*,*,#493,.T.);
#637=ORIENTED_EDGE('',*,*,#489,.F.);
#638=ORIENTED_EDGE('',*,*,#494,.T.);
#639=ORIENTED_EDGE('',*,*,#495,.T.);
#640=ORIENTED_EDGE('',*,*,#496,.T.);
#641=ORIENTED_EDGE('',*,*,#492,.F.);
#642=ORIENTED_EDGE('',*,*,#497,.T.);
#643=ORIENTED_EDGE('',*,*,#498,.T.);
#644=ORIENTED_EDGE('',*,*,#495,.F.);
#645=ORIENTED_EDGE('',*,*,#499,.T.);
#646=ORIENTED_EDGE('',*,*,#500,.T.);
#647=ORIENTED_EDGE('',*,*,#501,.T.);
#648=ORIENTED_EDGE('',*,*,#500,.F.);
#649=ORIENTED_EDGE('',*,*,#502,.T.);
#650=ORIENTED_EDGE('',*,*,#480,.F.);
#651=ORIENTED_EDGE('',*,*,#491,.F.);
#652=ORIENTED_EDGE('',*,*,#503,.F.);
#653=ORIENTED_EDGE('',*,*,#504,.F.);
#654=ORIENTED_EDGE('',*,*,#505,.T.);
#655=ORIENTED_EDGE('',*,*,#486,.F.);
#656=ORIENTED_EDGE('',*,*,#506,.F.);
#657=ORIENTED_EDGE('',*,*,#507,.F.);
#658=ORIENTED_EDGE('',*,*,#503,.T.);
#659=ORIENTED_EDGE('',*,*,#483,.F.);
#660=ORIENTED_EDGE('',*,*,#508,.F.);
#661=ORIENTED_EDGE('',*,*,#509,.F.);
#662=ORIENTED_EDGE('',*,*,#506,.T.);
#663=ORIENTED_EDGE('',*,*,#481,.F.);
#664=ORIENTED_EDGE('',*,*,#510,.F.);
#665=ORIENTED_EDGE('',*,*,#511,.T.);
#666=ORIENTED_EDGE('',*,*,#508,.T.);
#667=ORIENTED_EDGE('',*,*,#512,.F.);
#668=ORIENTED_EDGE('',*,*,#513,.F.);
#669=ORIENTED_EDGE('',*,*,#514,.F.);
#670=ORIENTED_EDGE('',*,*,#515,.F.);
#671=ORIENTED_EDGE('',*,*,#479,.F.);
#672=ORIENTED_EDGE('',*,*,#485,.F.);
#673=ORIENTED_EDGE('',*,*,#488,.F.);
#674=ORIENTED_EDGE('',*,*,#490,.F.);
#675=ORIENTED_EDGE('',*,*,#493,.F.);
#676=ORIENTED_EDGE('',*,*,#496,.F.);
#677=ORIENTED_EDGE('',*,*,#498,.F.);
#678=ORIENTED_EDGE('',*,*,#501,.F.);
#679=ORIENTED_EDGE('',*,*,#516,.F.);
#680=ORIENTED_EDGE('',*,*,#517,.F.);
#681=ORIENTED_EDGE('',*,*,#518,.F.);
#682=ORIENTED_EDGE('',*,*,#519,.T.);
#683=ORIENTED_EDGE('',*,*,#520,.F.);
#684=ORIENTED_EDGE('',*,*,#519,.F.);
#685=ORIENTED_EDGE('',*,*,#521,.F.);
#686=ORIENTED_EDGE('',*,*,#522,.T.);
#687=ORIENTED_EDGE('',*,*,#523,.F.);
#688=ORIENTED_EDGE('',*,*,#522,.F.);
#689=ORIENTED_EDGE('',*,*,#524,.F.);
#690=ORIENTED_EDGE('',*,*,#525,.T.);
#691=ORIENTED_EDGE('',*,*,#526,.F.);
#692=ORIENTED_EDGE('',*,*,#525,.F.);
#693=ORIENTED_EDGE('',*,*,#527,.F.);
#694=ORIENTED_EDGE('',*,*,#528,.T.);
#695=ORIENTED_EDGE('',*,*,#529,.F.);
#696=ORIENTED_EDGE('',*,*,#528,.F.);
#697=ORIENTED_EDGE('',*,*,#530,.F.);
#698=ORIENTED_EDGE('',*,*,#531,.T.);
#699=ORIENTED_EDGE('',*,*,#532,.F.);
#700=ORIENTED_EDGE('',*,*,#531,.F.);
#701=ORIENTED_EDGE('',*,*,#533,.F.);
#702=ORIENTED_EDGE('',*,*,#534,.T.);
#703=ORIENTED_EDGE('',*,*,#535,.F.);
#704=ORIENTED_EDGE('',*,*,#534,.F.);
#705=ORIENTED_EDGE('',*,*,#536,.F.);
#706=ORIENTED_EDGE('',*,*,#537,.T.);
#707=ORIENTED_EDGE('',*,*,#538,.F.);
#708=ORIENTED_EDGE('',*,*,#537,.F.);
#709=ORIENTED_EDGE('',*,*,#539,.F.);
#710=ORIENTED_EDGE('',*,*,#517,.T.);
#711=ORIENTED_EDGE('',*,*,#494,.F.);
#712=ORIENTED_EDGE('',*,*,#505,.F.);
#713=ORIENTED_EDGE('',*,*,#540,.F.);
#714=ORIENTED_EDGE('',*,*,#541,.T.);
#715=ORIENTED_EDGE('',*,*,#497,.F.);
#716=ORIENTED_EDGE('',*,*,#541,.F.);
#717=ORIENTED_EDGE('',*,*,#542,.F.);
#718=ORIENTED_EDGE('',*,*,#543,.T.);
#719=ORIENTED_EDGE('',*,*,#499,.F.);
#720=ORIENTED_EDGE('',*,*,#543,.F.);
#721=ORIENTED_EDGE('',*,*,#544,.F.);
#722=ORIENTED_EDGE('',*,*,#545,.T.);
#723=ORIENTED_EDGE('',*,*,#502,.F.);
#724=ORIENTED_EDGE('',*,*,#545,.F.);
#725=ORIENTED_EDGE('',*,*,#546,.F.);
#726=ORIENTED_EDGE('',*,*,#510,.T.);
#727=ORIENTED_EDGE('',*,*,#546,.T.);
#728=ORIENTED_EDGE('',*,*,#544,.T.);
#729=ORIENTED_EDGE('',*,*,#542,.T.);
#730=ORIENTED_EDGE('',*,*,#540,.T.);
#731=ORIENTED_EDGE('',*,*,#504,.T.);
#732=ORIENTED_EDGE('',*,*,#507,.T.);
#733=ORIENTED_EDGE('',*,*,#509,.T.);
#734=ORIENTED_EDGE('',*,*,#511,.F.);
#735=ORIENTED_EDGE('',*,*,#530,.T.);
#736=ORIENTED_EDGE('',*,*,#527,.T.);
#737=ORIENTED_EDGE('',*,*,#524,.T.);
#738=ORIENTED_EDGE('',*,*,#521,.T.);
#739=ORIENTED_EDGE('',*,*,#518,.T.);
#740=ORIENTED_EDGE('',*,*,#539,.T.);
#741=ORIENTED_EDGE('',*,*,#536,.T.);
#742=ORIENTED_EDGE('',*,*,#533,.T.);
#743=ORIENTED_EDGE('',*,*,#547,.T.);
#744=ORIENTED_EDGE('',*,*,#512,.T.);
#745=ORIENTED_EDGE('',*,*,#548,.T.);
#746=ORIENTED_EDGE('',*,*,#549,.T.);
#747=ORIENTED_EDGE('',*,*,#549,.F.);
#748=ORIENTED_EDGE('',*,*,#550,.T.);
#749=ORIENTED_EDGE('',*,*,#551,.F.);
#750=ORIENTED_EDGE('',*,*,#552,.F.);
#751=ORIENTED_EDGE('',*,*,#548,.F.);
#752=ORIENTED_EDGE('',*,*,#515,.T.);
#753=ORIENTED_EDGE('',*,*,#553,.F.);
#754=ORIENTED_EDGE('',*,*,#554,.F.);
#755=ORIENTED_EDGE('',*,*,#555,.F.);
#756=ORIENTED_EDGE('',*,*,#556,.F.);
#757=ORIENTED_EDGE('',*,*,#557,.F.);
#758=ORIENTED_EDGE('',*,*,#550,.F.);
#759=ORIENTED_EDGE('',*,*,#467,.T.);
#760=ORIENTED_EDGE('',*,*,#470,.T.);
#761=ORIENTED_EDGE('',*,*,#473,.T.);
#762=ORIENTED_EDGE('',*,*,#476,.T.);
#763=ORIENTED_EDGE('',*,*,#558,.T.);
#764=ORIENTED_EDGE('',*,*,#559,.T.);
#765=ORIENTED_EDGE('',*,*,#553,.T.);
#766=ORIENTED_EDGE('',*,*,#514,.T.);
#767=ORIENTED_EDGE('',*,*,#559,.F.);
#768=ORIENTED_EDGE('',*,*,#560,.F.);
#769=ORIENTED_EDGE('',*,*,#561,.F.);
#770=ORIENTED_EDGE('',*,*,#554,.T.);
#771=ORIENTED_EDGE('',*,*,#547,.F.);
#772=ORIENTED_EDGE('',*,*,#552,.T.);
#773=ORIENTED_EDGE('',*,*,#562,.F.);
#774=ORIENTED_EDGE('',*,*,#563,.T.);
#775=ORIENTED_EDGE('',*,*,#564,.F.);
#776=ORIENTED_EDGE('',*,*,#560,.T.);
#777=ORIENTED_EDGE('',*,*,#558,.F.);
#778=ORIENTED_EDGE('',*,*,#513,.T.);
#779=ORIENTED_EDGE('',*,*,#565,.T.);
#780=ORIENTED_EDGE('',*,*,#566,.T.);
#781=ORIENTED_EDGE('',*,*,#567,.T.);
#782=ORIENTED_EDGE('',*,*,#568,.T.);
#783=ORIENTED_EDGE('',*,*,#466,.T.);
#784=ORIENTED_EDGE('',*,*,#463,.T.);
#785=ORIENTED_EDGE('',*,*,#460,.T.);
#786=ORIENTED_EDGE('',*,*,#457,.T.);
#787=ORIENTED_EDGE('',*,*,#564,.T.);
#788=ORIENTED_EDGE('',*,*,#569,.T.);
#789=ORIENTED_EDGE('',*,*,#555,.T.);
#790=ORIENTED_EDGE('',*,*,#561,.T.);
#791=ORIENTED_EDGE('',*,*,#569,.F.);
#792=ORIENTED_EDGE('',*,*,#563,.F.);
#793=ORIENTED_EDGE('',*,*,#570,.F.);
#794=ORIENTED_EDGE('',*,*,#556,.T.);
#795=ORIENTED_EDGE('',*,*,#562,.T.);
#796=ORIENTED_EDGE('',*,*,#551,.T.);
#797=ORIENTED_EDGE('',*,*,#557,.T.);
#798=ORIENTED_EDGE('',*,*,#570,.T.);
#799=ORIENTED_EDGE('',*,*,#571,.F.);
#800=ORIENTED_EDGE('',*,*,#572,.T.);
#801=ORIENTED_EDGE('',*,*,#568,.F.);
#802=ORIENTED_EDGE('',*,*,#573,.F.);
#803=ORIENTED_EDGE('',*,*,#574,.F.);
#804=ORIENTED_EDGE('',*,*,#573,.T.);
#805=ORIENTED_EDGE('',*,*,#567,.F.);
#806=ORIENTED_EDGE('',*,*,#575,.F.);
#807=ORIENTED_EDGE('',*,*,#576,.F.);
#808=ORIENTED_EDGE('',*,*,#575,.T.);
#809=ORIENTED_EDGE('',*,*,#566,.F.);
#810=ORIENTED_EDGE('',*,*,#577,.F.);
#811=ORIENTED_EDGE('',*,*,#578,.F.);
#812=ORIENTED_EDGE('',*,*,#577,.T.);
#813=ORIENTED_EDGE('',*,*,#565,.F.);
#814=ORIENTED_EDGE('',*,*,#572,.F.);
#815=ORIENTED_EDGE('',*,*,#529,.T.);
#816=ORIENTED_EDGE('',*,*,#532,.T.);
#817=ORIENTED_EDGE('',*,*,#535,.T.);
#818=ORIENTED_EDGE('',*,*,#538,.T.);
#819=ORIENTED_EDGE('',*,*,#516,.T.);
#820=ORIENTED_EDGE('',*,*,#520,.T.);
#821=ORIENTED_EDGE('',*,*,#523,.T.);
#822=ORIENTED_EDGE('',*,*,#526,.T.);
#823=ORIENTED_EDGE('',*,*,#571,.T.);
#824=ORIENTED_EDGE('',*,*,#574,.T.);
#825=ORIENTED_EDGE('',*,*,#576,.T.);
#826=ORIENTED_EDGE('',*,*,#578,.T.);
#827=CYLINDRICAL_SURFACE('',#917,1.7);
#828=CYLINDRICAL_SURFACE('',#920,1.7);
#829=CYLINDRICAL_SURFACE('',#923,1.7);
#830=CYLINDRICAL_SURFACE('',#926,1.7);
#831=CYLINDRICAL_SURFACE('',#929,3.);
#832=CYLINDRICAL_SURFACE('',#933,3.);
#833=CYLINDRICAL_SURFACE('',#937,3.);
#834=CYLINDRICAL_SURFACE('',#941,3.);
#835=CYLINDRICAL_SURFACE('',#945,2.);
#836=CYLINDRICAL_SURFACE('',#949,2.);
#837=CYLINDRICAL_SURFACE('',#955,2.);
#838=CYLINDRICAL_SURFACE('',#961,2.);
#839=CYLINDRICAL_SURFACE('',#965,3.25);
#840=CYLINDRICAL_SURFACE('',#968,3.30392063717637);
#841=CYLINDRICAL_SURFACE('',#973,1.25);
#842=CYLINDRICAL_SURFACE('',#977,1.25);
#843=CYLINDRICAL_SURFACE('',#981,1.25);
#844=CYLINDRICAL_SURFACE('',#985,1.25);
#845=CYLINDRICAL_SURFACE('',#989,3.25);
#846=CYLINDRICAL_SURFACE('',#992,2.82764783158645);
#847=CYLINDRICAL_SURFACE('',#995,5.);
#848=CYLINDRICAL_SURFACE('',#1003,5.);
#849=CYLINDRICAL_SURFACE('',#1009,5.);
#850=CYLINDRICAL_SURFACE('',#1011,5.);
#851=ADVANCED_FACE('',(#71),#827,.F.);
#852=ADVANCED_FACE('',(#72),#828,.F.);
#853=ADVANCED_FACE('',(#73),#829,.F.);
#854=ADVANCED_FACE('',(#74),#830,.F.);
#855=ADVANCED_FACE('',(#75),#831,.F.);
#856=ADVANCED_FACE('',(#76,#23),#39,.F.);
#857=ADVANCED_FACE('',(#77),#832,.F.);
#858=ADVANCED_FACE('',(#78,#24),#40,.F.);
#859=ADVANCED_FACE('',(#79),#833,.F.);
#860=ADVANCED_FACE('',(#80,#25),#41,.F.);
#861=ADVANCED_FACE('',(#81),#834,.F.);
#862=ADVANCED_FACE('',(#82,#26),#42,.F.);
#863=ADVANCED_FACE('',(#83),#835,.T.);
#864=ADVANCED_FACE('',(#84),#15,.T.);
#865=ADVANCED_FACE('',(#85),#836,.T.);
#866=ADVANCED_FACE('',(#86),#16,.T.);
#867=ADVANCED_FACE('',(#87),#837,.T.);
#868=ADVANCED_FACE('',(#88),#17,.T.);
#869=ADVANCED_FACE('',(#89),#838,.T.);
#870=ADVANCED_FACE('',(#90),#18,.T.);
#871=ADVANCED_FACE('',(#91),#839,.F.);
#872=ADVANCED_FACE('',(#92),#43,.F.);
#873=ADVANCED_FACE('',(#93),#840,.F.);
#874=ADVANCED_FACE('',(#94),#44,.F.);
#875=ADVANCED_FACE('',(#95,#27),#45,.T.);
#876=ADVANCED_FACE('',(#96),#46,.F.);
#877=ADVANCED_FACE('',(#97),#841,.F.);
#878=ADVANCED_FACE('',(#98),#47,.F.);
#879=ADVANCED_FACE('',(#99),#842,.F.);
#880=ADVANCED_FACE('',(#100),#48,.F.);
#881=ADVANCED_FACE('',(#101),#843,.F.);
#882=ADVANCED_FACE('',(#102),#49,.F.);
#883=ADVANCED_FACE('',(#103),#844,.F.);
#884=ADVANCED_FACE('',(#104),#50,.F.);
#885=ADVANCED_FACE('',(#105),#845,.F.);
#886=ADVANCED_FACE('',(#106),#51,.F.);
#887=ADVANCED_FACE('',(#107),#846,.F.);
#888=ADVANCED_FACE('',(#108,#28),#52,.T.);
#889=ADVANCED_FACE('',(#109),#847,.T.);
#890=ADVANCED_FACE('',(#110),#53,.T.);
#891=ADVANCED_FACE('',(#111,#29,#30,#31,#32),#54,.F.);
#892=ADVANCED_FACE('',(#112),#848,.T.);
#893=ADVANCED_FACE('',(#113),#55,.T.);
#894=ADVANCED_FACE('',(#114,#33,#34,#35,#36,#37),#56,.T.);
#895=ADVANCED_FACE('',(#115),#849,.T.);
#896=ADVANCED_FACE('',(#116),#57,.T.);
#897=ADVANCED_FACE('',(#117),#850,.T.);
#898=ADVANCED_FACE('',(#118),#58,.T.);
#899=ADVANCED_FACE('',(#119),#59,.T.);
#900=ADVANCED_FACE('',(#120),#60,.T.);
#901=ADVANCED_FACE('',(#121,#38),#61,.T.);
#902=ADVANCED_FACE('',(#122),#62,.T.);
#903=CLOSED_SHELL('',(#851,#852,#853,#854,#855,#856,#857,#858,#859,#860,
#861,#862,#863,#864,#865,#866,#867,#868,#869,#870,#871,#872,#873,#874,#875,
#876,#877,#878,#879,#880,#881,#882,#883,#884,#885,#886,#887,#888,#889,#890,
#891,#892,#893,#894,#895,#896,#897,#898,#899,#900,#901,#902));
#904=DERIVED_UNIT_ELEMENT(#906,1.);
#905=DERIVED_UNIT_ELEMENT(#1599,-3.);
#906=(
MASS_UNIT()
NAMED_UNIT(*)
SI_UNIT(.KILO.,.GRAM.)
);
#907=DERIVED_UNIT((#904,#905));
#908=MEASURE_REPRESENTATION_ITEM('density measure',
POSITIVE_RATIO_MEASURE(7850.),#907);
#909=PROPERTY_DEFINITION_REPRESENTATION(#914,#911);
#910=PROPERTY_DEFINITION_REPRESENTATION(#915,#912);
#911=REPRESENTATION('material name',(#913),#1596);
#912=REPRESENTATION('density',(#908),#1596);
#913=DESCRIPTIVE_REPRESENTATION_ITEM('Steel','Steel');
#914=PROPERTY_DEFINITION('material property','material name',#1606);
#915=PROPERTY_DEFINITION('material property','density of part',#1606);
#916=AXIS2_PLACEMENT_3D('',#1291,#1017,#1018);
#917=AXIS2_PLACEMENT_3D('',#1292,#1019,#1020);
#918=AXIS2_PLACEMENT_3D('',#1294,#1021,#1022);
#919=AXIS2_PLACEMENT_3D('',#1297,#1024,#1025);
#920=AXIS2_PLACEMENT_3D('',#1298,#1026,#1027);
#921=AXIS2_PLACEMENT_3D('',#1300,#1028,#1029);
#922=AXIS2_PLACEMENT_3D('',#1303,#1031,#1032);
#923=AXIS2_PLACEMENT_3D('',#1304,#1033,#1034);
#924=AXIS2_PLACEMENT_3D('',#1306,#1035,#1036);
#925=AXIS2_PLACEMENT_3D('',#1309,#1038,#1039);
#926=AXIS2_PLACEMENT_3D('',#1310,#1040,#1041);
#927=AXIS2_PLACEMENT_3D('',#1312,#1042,#1043);
#928=AXIS2_PLACEMENT_3D('',#1315,#1045,#1046);
#929=AXIS2_PLACEMENT_3D('',#1316,#1047,#1048);
#930=AXIS2_PLACEMENT_3D('',#1318,#1049,#1050);
#931=AXIS2_PLACEMENT_3D('',#1321,#1052,#1053);
#932=AXIS2_PLACEMENT_3D('',#1322,#1054,#1055);
#933=AXIS2_PLACEMENT_3D('',#1323,#1056,#1057);
#934=AXIS2_PLACEMENT_3D('',#1325,#1058,#1059);
#935=AXIS2_PLACEMENT_3D('',#1328,#1061,#1062);
#936=AXIS2_PLACEMENT_3D('',#1329,#1063,#1064);
#937=AXIS2_PLACEMENT_3D('',#1330,#1065,#1066);
#938=AXIS2_PLACEMENT_3D('',#1332,#1067,#1068);
#939=AXIS2_PLACEMENT_3D('',#1335,#1070,#1071);
#940=AXIS2_PLACEMENT_3D('',#1336,#1072,#1073);
#941=AXIS2_PLACEMENT_3D('',#1337,#1074,#1075);
#942=AXIS2_PLACEMENT_3D('',#1339,#1076,#1077);
#943=AXIS2_PLACEMENT_3D('',#1342,#1079,#1080);
#944=AXIS2_PLACEMENT_3D('',#1343,#1081,#1082);
#945=AXIS2_PLACEMENT_3D('',#1344,#1083,#1084);
#946=AXIS2_PLACEMENT_3D('',#1375,#1087,#1088);
#947=AXIS2_PLACEMENT_3D('',#1377,#1089,#1090);
#948=AXIS2_PLACEMENT_3D('',#1393,#1091,#1092);
#949=AXIS2_PLACEMENT_3D('',#1394,#1093,#1094);
#950=AXIS2_PLACEMENT_3D('',#1398,#1096,#1097);
#951=AXIS2_PLACEMENT_3D('',#1400,#1099,#1100);
#952=AXIS2_PLACEMENT_3D('',#1403,#1101,#1102);
#953=AXIS2_PLACEMENT_3D('',#1404,#1103,#1104);
#954=AXIS2_PLACEMENT_3D('',#1405,#1105,#1106);
#955=AXIS2_PLACEMENT_3D('',#1406,#1107,#1108);
#956=AXIS2_PLACEMENT_3D('',#1409,#1109,#1110);
#957=AXIS2_PLACEMENT_3D('',#1412,#1113,#1114);
#958=AXIS2_PLACEMENT_3D('',#1415,#1115,#1116);
#959=AXIS2_PLACEMENT_3D('',#1416,#1117,#1118);
#960=AXIS2_PLACEMENT_3D('',#1417,#1119,#1120);
#961=AXIS2_PLACEMENT_3D('',#1418,#1121,#1122);
#962=AXIS2_PLACEMENT_3D('',#1435,#1125,#1126);
#963=AXIS2_PLACEMENT_3D('',#1436,#1127,#1128);
#964=AXIS2_PLACEMENT_3D('',#1437,#1129,#1130);
#965=AXIS2_PLACEMENT_3D('',#1438,#1131,#1132);
#966=AXIS2_PLACEMENT_3D('',#1442,#1134,#1135);
#967=AXIS2_PLACEMENT_3D('',#1444,#1137,#1138);
#968=AXIS2_PLACEMENT_3D('',#1448,#1141,#1142);
#969=AXIS2_PLACEMENT_3D('',#1451,#1144,#1145);
#970=AXIS2_PLACEMENT_3D('',#1452,#1146,#1147);
#971=AXIS2_PLACEMENT_3D('',#1456,#1150,#1151);
#972=AXIS2_PLACEMENT_3D('',#1465,#1156,#1157);
#973=AXIS2_PLACEMENT_3D('',#1474,#1162,#1163);
#974=AXIS2_PLACEMENT_3D('',#1476,#1164,#1165);
#975=AXIS2_PLACEMENT_3D('',#1478,#1166,#1167);
#976=AXIS2_PLACEMENT_3D('',#1480,#1169,#1170);
#977=AXIS2_PLACEMENT_3D('',#1486,#1174,#1175);
#978=AXIS2_PLACEMENT_3D('',#1488,#1176,#1177);
#979=AXIS2_PLACEMENT_3D('',#1490,#1178,#1179);
#980=AXIS2_PLACEMENT_3D('',#1492,#1181,#1182);
#981=AXIS2_PLACEMENT_3D('',#1498,#1186,#1187);
#982=AXIS2_PLACEMENT_3D('',#1500,#1188,#1189);
#983=AXIS2_PLACEMENT_3D('',#1502,#1190,#1191);
#984=AXIS2_PLACEMENT_3D('',#1504,#1193,#1194);
#985=AXIS2_PLACEMENT_3D('',#1510,#1198,#1199);
#986=AXIS2_PLACEMENT_3D('',#1511,#1200,#1201);
#987=AXIS2_PLACEMENT_3D('',#1512,#1202,#1203);
#988=AXIS2_PLACEMENT_3D('',#1513,#1204,#1205);
#989=AXIS2_PLACEMENT_3D('',#1517,#1208,#1209);
#990=AXIS2_PLACEMENT_3D('',#1519,#1210,#1211);
#991=AXIS2_PLACEMENT_3D('',#1521,#1213,#1214);
#992=AXIS2_PLACEMENT_3D('',#1525,#1217,#1218);
#993=AXIS2_PLACEMENT_3D('',#1526,#1219,#1220);
#994=AXIS2_PLACEMENT_3D('',#1527,#1221,#1222);
#995=AXIS2_PLACEMENT_3D('',#1528,#1223,#1224);
#996=AXIS2_PLACEMENT_3D('',#1530,#1225,#1226);
#997=AXIS2_PLACEMENT_3D('',#1532,#1227,#1228);
#998=AXIS2_PLACEMENT_3D('',#1534,#1230,#1231);
#999=AXIS2_PLACEMENT_3D('',#1540,#1235,#1236);
#1000=AXIS2_PLACEMENT_3D('',#1542,#1237,#1238);
#1001=AXIS2_PLACEMENT_3D('',#1546,#1240,#1241);
#1002=AXIS2_PLACEMENT_3D('',#1549,#1243,#1244);
#1003=AXIS2_PLACEMENT_3D('',#1550,#1245,#1246);
#1004=AXIS2_PLACEMENT_3D('',#1552,#1247,#1248);
#1005=AXIS2_PLACEMENT_3D('',#1554,#1250,#1251);
#1006=AXIS2_PLACEMENT_3D('',#1558,#1254,#1255);
#1007=AXIS2_PLACEMENT_3D('',#1560,#1256,#1257);
#1008=AXIS2_PLACEMENT_3D('',#1563,#1259,#1260);
#1009=AXIS2_PLACEMENT_3D('',#1572,#1265,#1266);
#1010=AXIS2_PLACEMENT_3D('',#1574,#1268,#1269);
#1011=AXIS2_PLACEMENT_3D('',#1576,#1271,#1272);
#1012=AXIS2_PLACEMENT_3D('',#1577,#1273,#1274);
#1013=AXIS2_PLACEMENT_3D('',#1583,#1278,#1279);
#1014=AXIS2_PLACEMENT_3D('',#1587,#1282,#1283);
#1015=AXIS2_PLACEMENT_3D('',#1591,#1286,#1287);
#1016=AXIS2_PLACEMENT_3D('',#1593,#1289,#1290);
#1017=DIRECTION('axis',(0.,0.,1.));
#1018=DIRECTION('refdir',(1.,0.,0.));
#1019=DIRECTION('center_axis',(0.,0.,1.));
#1020=DIRECTION('ref_axis',(1.,0.,0.));
#1021=DIRECTION('center_axis',(0.,0.,1.));
#1022=DIRECTION('ref_axis',(1.,0.,0.));
#1023=DIRECTION('',(0.,0.,1.));
#1024=DIRECTION('center_axis',(0.,0.,-1.));
#1025=DIRECTION('ref_axis',(1.,0.,0.));
#1026=DIRECTION('center_axis',(0.,0.,1.));
#1027=DIRECTION('ref_axis',(1.,0.,0.));
#1028=DIRECTION('center_axis',(0.,0.,1.));
#1029=DIRECTION('ref_axis',(1.,0.,0.));
#1030=DIRECTION('',(0.,0.,1.));
#1031=DIRECTION('center_axis',(0.,0.,-1.));
#1032=DIRECTION('ref_axis',(1.,0.,0.));
#1033=DIRECTION('center_axis',(0.,0.,1.));
#1034=DIRECTION('ref_axis',(1.,0.,0.));
#1035=DIRECTION('center_axis',(0.,0.,1.));
#1036=DIRECTION('ref_axis',(1.,0.,0.));
#1037=DIRECTION('',(0.,0.,1.));
#1038=DIRECTION('center_axis',(0.,0.,-1.));
#1039=DIRECTION('ref_axis',(1.,0.,0.));
#1040=DIRECTION('center_axis',(0.,0.,1.));
#1041=DIRECTION('ref_axis',(1.,0.,0.));
#1042=DIRECTION('center_axis',(0.,0.,1.));
#1043=DIRECTION('ref_axis',(1.,0.,0.));
#1044=DIRECTION('',(0.,0.,1.));
#1045=DIRECTION('center_axis',(0.,0.,-1.));
#1046=DIRECTION('ref_axis',(1.,0.,0.));
#1047=DIRECTION('center_axis',(0.,0.,1.));
#1048=DIRECTION('ref_axis',(1.,0.,0.));
#1049=DIRECTION('center_axis',(0.,0.0516080448061985,0.998667416966871));
#1050=DIRECTION('ref_axis',(0.,0.998667416966871,-0.0516080448061985));
#1051=DIRECTION('',(0.,0.,1.));
#1052=DIRECTION('center_axis',(0.,0.,1.));
#1053=DIRECTION('ref_axis',(1.,0.,0.));
#1054=DIRECTION('center_axis',(0.,0.,1.));
#1055=DIRECTION('ref_axis',(1.,0.,0.));
#1056=DIRECTION('center_axis',(0.,0.,1.));
#1057=DIRECTION('ref_axis',(1.,0.,0.));
#1058=DIRECTION('center_axis',(0.,0.0516080448061985,0.998667416966871));
#1059=DIRECTION('ref_axis',(0.,0.998667416966871,-0.0516080448061985));
#1060=DIRECTION('',(0.,0.,1.));
#1061=DIRECTION('center_axis',(0.,0.,1.));
#1062=DIRECTION('ref_axis',(1.,0.,0.));
#1063=DIRECTION('center_axis',(0.,0.,1.));
#1064=DIRECTION('ref_axis',(1.,0.,0.));
#1065=DIRECTION('center_axis',(0.,0.,1.));
#1066=DIRECTION('ref_axis',(1.,0.,0.));
#1067=DIRECTION('center_axis',(0.,0.0516080448061985,0.998667416966871));
#1068=DIRECTION('ref_axis',(0.,0.998667416966871,-0.0516080448061985));
#1069=DIRECTION('',(0.,0.,1.));
#1070=DIRECTION('center_axis',(0.,0.,1.));
#1071=DIRECTION('ref_axis',(1.,0.,0.));
#1072=DIRECTION('center_axis',(0.,0.,1.));
#1073=DIRECTION('ref_axis',(1.,0.,0.));
#1074=DIRECTION('center_axis',(0.,0.,1.));
#1075=DIRECTION('ref_axis',(1.,0.,0.));
#1076=DIRECTION('center_axis',(0.,0.0516080448061985,0.998667416966871));
#1077=DIRECTION('ref_axis',(0.,0.998667416966871,-0.0516080448061985));
#1078=DIRECTION('',(0.,0.,1.));
#1079=DIRECTION('center_axis',(0.,0.,1.));
#1080=DIRECTION('ref_axis',(1.,0.,0.));
#1081=DIRECTION('center_axis',(0.,0.,1.));
#1082=DIRECTION('ref_axis',(1.,0.,0.));
#1083=DIRECTION('center_axis',(1.,0.,4.58573834303196E-30));
#1084=DIRECTION('ref_axis',(0.,0.707106781186546,0.707106781186549));
#1085=DIRECTION('',(-1.,0.,-4.58573834303196E-30));
#1086=DIRECTION('',(1.,0.,4.58573834303196E-30));
#1087=DIRECTION('center_axis',(0.,-1.,0.));
#1088=DIRECTION('ref_axis',(0.,0.,-1.));
#1089=DIRECTION('center_axis',(0.,-1.,0.));
#1090=DIRECTION('ref_axis',(0.567374831476116,0.,-0.823459653296656));
#1091=DIRECTION('center_axis',(0.,1.,0.));
#1092=DIRECTION('ref_axis',(0.567374831476116,0.,-0.823459653296656));
#1093=DIRECTION('center_axis',(1.81319068443884E-31,0.,1.));
#1094=DIRECTION('ref_axis',(-0.707106781186546,0.707106781186549,0.));
#1095=DIRECTION('',(1.81319068443884E-31,0.,1.));
#1096=DIRECTION('center_axis',(0.,0.,-1.));
#1097=DIRECTION('ref_axis',(-1.,2.22044604925031E-15,0.));
#1098=DIRECTION('',(-1.81319068443884E-31,0.,-1.));
#1099=DIRECTION('center_axis',(0.,-1.,0.));
#1100=DIRECTION('ref_axis',(0.,0.,-1.));
#1101=DIRECTION('center_axis',(1.,0.,0.));
#1102=DIRECTION('ref_axis',(0.,0.,-1.));
#1103=DIRECTION('center_axis',(0.,1.,0.));
#1104=DIRECTION('ref_axis',(0.707106781186547,0.,0.707106781186548));
#1105=DIRECTION('center_axis',(0.,-1.,0.));
#1106=DIRECTION('ref_axis',(0.707106781186547,0.,0.707106781186548));
#1107=DIRECTION('center_axis',(-1.,0.,-4.58573834303196E-30));
#1108=DIRECTION('ref_axis',(0.,0.707106781186549,-0.707106781186546));
#1109=DIRECTION('center_axis',(1.,0.,0.));
#1110=DIRECTION('ref_axis',(0.,2.22044604925031E-15,-1.));
#1111=DIRECTION('',(1.,0.,4.58573834303196E-30));
#1112=DIRECTION('',(-1.,0.,-4.58573834303196E-30));
#1113=DIRECTION('center_axis',(0.,-1.,0.));
#1114=DIRECTION('ref_axis',(0.,0.,-1.));
#1115=DIRECTION('center_axis',(0.,0.,1.));
#1116=DIRECTION('ref_axis',(1.,0.,0.));
#1117=DIRECTION('center_axis',(0.,1.,0.));
#1118=DIRECTION('ref_axis',(-0.707106781186546,0.,0.707106781186549));
#1119=DIRECTION('center_axis',(0.,-1.,0.));
#1120=DIRECTION('ref_axis',(-0.707106781186546,0.,0.707106781186549));
#1121=DIRECTION('center_axis',(-1.81319068443884E-31,0.,-1.));
#1122=DIRECTION('ref_axis',(0.707106781186549,0.707106781186546,0.));
#1123=DIRECTION('',(1.81319068443884E-31,0.,1.));
#1124=DIRECTION('',(-1.81319068443884E-31,0.,-1.));
#1125=DIRECTION('center_axis',(0.,-1.,0.));
#1126=DIRECTION('ref_axis',(0.,0.,-1.));
#1127=DIRECTION('center_axis',(0.,1.,0.));
#1128=DIRECTION('ref_axis',(-0.609642668576903,0.,-0.792676363120809));
#1129=DIRECTION('center_axis',(0.,-1.,0.));
#1130=DIRECTION('ref_axis',(-0.609642668576903,0.,-0.792676363120809));
#1131=DIRECTION('center_axis',(1.52655665885959E-15,1.,3.12250225675825E-15));
#1132=DIRECTION('ref_axis',(1.36642833800019E-15,-3.12250225675825E-15,
1.));
#1133=DIRECTION('',(1.52655665885959E-15,1.,3.12250225675825E-15));
#1134=DIRECTION('center_axis',(1.4686100972727E-15,1.,3.1290738134997E-15));
#1135=DIRECTION('ref_axis',(1.36642833800019E-15,-3.1290738134997E-15,1.));
#1136=DIRECTION('',(1.52655665885959E-15,1.,3.12250225675825E-15));
#1137=DIRECTION('center_axis',(1.,-1.52655665885959E-15,-1.81319068443884E-31));
#1138=DIRECTION('ref_axis',(4.59538939761725E-30,3.1290738134997E-15,-1.));
#1139=DIRECTION('',(1.52655665885959E-15,1.,3.12250225675825E-15));
#1140=DIRECTION('',(4.59538939761725E-30,3.1290738134997E-15,-1.));
#1141=DIRECTION('center_axis',(1.52655665885959E-15,1.,3.12250225675825E-15));
#1142=DIRECTION('ref_axis',(0.959432125870932,-5.84270143140576E-16,-0.281939702501764));
#1143=DIRECTION('',(1.52655665885959E-15,1.,3.12250225675825E-15));
#1144=DIRECTION('center_axis',(1.52581830326295E-15,1.,3.32375157687766E-15));
#1145=DIRECTION('ref_axis',(0.959432125870932,-5.26821567617698E-16,-0.281939702501764));
#1146=DIRECTION('center_axis',(4.58573834303196E-30,3.12250225675825E-15,
-1.));
#1147=DIRECTION('ref_axis',(-1.,1.4686100972727E-15,1.75162308040617E-46));
#1148=DIRECTION('',(1.52655665885959E-15,1.,3.12250225675825E-15));
#1149=DIRECTION('',(1.,-1.4686100972727E-15,-1.75162308040617E-46));
#1150=DIRECTION('center_axis',(0.,1.,0.));
#1151=DIRECTION('ref_axis',(-1.,0.,0.));
#1152=DIRECTION('',(0.,0.,-1.));
#1153=DIRECTION('',(-1.,0.,0.));
#1154=DIRECTION('',(0.,0.,1.));
#1155=DIRECTION('',(1.,0.,0.));
#1156=DIRECTION('center_axis',(1.,-2.22044604925031E-15,2.35001648457145E-30));
#1157=DIRECTION('ref_axis',(4.59044014711032E-30,3.12570379002231E-15,1.));
#1158=DIRECTION('',(2.35001648457145E-30,0.,-1.));
#1159=DIRECTION('',(-2.22044604925031E-15,-1.,-2.22044604925031E-15));
#1160=DIRECTION('',(-9.29795607156947E-30,-3.1290738134997E-15,1.));
#1161=DIRECTION('',(-2.22044604925031E-15,-1.,-2.22044604925031E-15));
#1162=DIRECTION('center_axis',(-2.22044604925031E-15,-1.,-2.22044604925031E-15));
#1163=DIRECTION('ref_axis',(1.,-2.22044604925031E-15,-4.89750545623976E-30));
#1164=DIRECTION('center_axis',(0.,1.,0.));
#1165=DIRECTION('ref_axis',(1.,-2.22044604925031E-15,-4.89750545623976E-30));
#1166=DIRECTION('center_axis',(-1.4686100972727E-15,-1.,-3.1290738134997E-15));
#1167=DIRECTION('ref_axis',(1.,-2.22044604925031E-15,-4.89750545623976E-30));
#1168=DIRECTION('',(-2.22044604925031E-15,-1.,-2.22044604925031E-15));
#1169=DIRECTION('center_axis',(3.26096948837828E-30,2.22044604925031E-15,
-1.));
#1170=DIRECTION('ref_axis',(1.,-1.4686100972727E-15,-1.75162308040617E-46));
#1171=DIRECTION('',(-1.,0.,-3.26096948837828E-30));
#1172=DIRECTION('',(1.,-1.4686100972727E-15,0.));
#1173=DIRECTION('',(-2.22044604925031E-15,-1.,-2.22044604925031E-15));
#1174=DIRECTION('center_axis',(-2.22044604925031E-15,-1.,-2.22044604925031E-15));
#1175=DIRECTION('ref_axis',(-1.77635683940025E-15,2.22044604925032E-15,
-1.));
#1176=DIRECTION('center_axis',(0.,1.,0.));
#1177=DIRECTION('ref_axis',(-1.77635683940025E-15,2.22044604925032E-15,
-1.));
#1178=DIRECTION('center_axis',(-1.4686100972727E-15,-1.,-3.1290738134997E-15));
#1179=DIRECTION('ref_axis',(-1.77635683940025E-15,2.22044604925032E-15,
-1.));
#1180=DIRECTION('',(-2.22044604925031E-15,-1.,-2.22044604925031E-15));
#1181=DIRECTION('center_axis',(-1.,2.22044604925031E-15,2.35255018938076E-30));
#1182=DIRECTION('ref_axis',(4.59538939761725E-30,3.1290738134997E-15,-1.));
#1183=DIRECTION('',(2.35255018938076E-30,0.,1.));
#1184=DIRECTION('',(4.59538939761725E-30,3.1290738134997E-15,-1.));
#1185=DIRECTION('',(-2.22044604925031E-15,-1.,-2.22044604925031E-15));
#1186=DIRECTION('center_axis',(-2.22044604925031E-15,-1.,-2.22044604925031E-15));
#1187=DIRECTION('ref_axis',(-1.,2.22044604925031E-15,1.66941116925303E-30));
#1188=DIRECTION('center_axis',(0.,1.,0.));
#1189=DIRECTION('ref_axis',(-1.,2.22044604925031E-15,1.66941116925303E-30));
#1190=DIRECTION('center_axis',(-1.4686100972727E-15,-1.,-3.1290738134997E-15));
#1191=DIRECTION('ref_axis',(-1.,2.22044604925031E-15,1.66941116925303E-30));
#1192=DIRECTION('',(-2.22044604925031E-15,-1.,-2.22044604925031E-15));
#1193=DIRECTION('center_axis',(-3.26096948837828E-30,-2.22044604925031E-15,
1.));
#1194=DIRECTION('ref_axis',(-1.,1.4686100972727E-15,1.75162308040617E-46));
#1195=DIRECTION('',(1.,0.,3.26096948837828E-30));
#1196=DIRECTION('',(-1.,1.4686100972727E-15,0.));
#1197=DIRECTION('',(-2.22044604925031E-15,-1.,-2.22044604925031E-15));
#1198=DIRECTION('center_axis',(-2.22044604925031E-15,-1.,-2.22044604925031E-15));
#1199=DIRECTION('ref_axis',(3.5527136788005E-15,-2.22044604925032E-15,1.));
#1200=DIRECTION('center_axis',(0.,1.,0.));
#1201=DIRECTION('ref_axis',(3.5527136788005E-15,-2.22044604925032E-15,1.));
#1202=DIRECTION('center_axis',(-1.4686100972727E-15,-1.,-3.1290738134997E-15));
#1203=DIRECTION('ref_axis',(3.5527136788005E-15,-2.22044604925032E-15,1.));
#1204=DIRECTION('center_axis',(-4.58573834303196E-30,-3.12250225675825E-15,
1.));
#1205=DIRECTION('ref_axis',(1.,-1.4686100972727E-15,-1.75162308040617E-46));
#1206=DIRECTION('',(1.,-1.4686100972727E-15,-1.75162308040617E-46));
#1207=DIRECTION('',(1.52655665885959E-15,1.,3.12250225675825E-15));
#1208=DIRECTION('center_axis',(1.52655665885959E-15,1.,3.12250225675825E-15));
#1209=DIRECTION('ref_axis',(-1.,1.52655665885959E-15,1.80938269326444E-31));
#1210=DIRECTION('center_axis',(1.4686100972727E-15,1.,3.1290738134997E-15));
#1211=DIRECTION('ref_axis',(-1.,1.4686100972727E-15,1.75162308040602E-46));
#1212=DIRECTION('',(1.52655665885959E-15,1.,3.12250225675825E-15));
#1213=DIRECTION('center_axis',(-1.,1.52655665885959E-15,1.81319068443884E-31));
#1214=DIRECTION('ref_axis',(-4.59538939761725E-30,-3.1290738134997E-15,
1.));
#1215=DIRECTION('',(-4.59538939761725E-30,-3.1290738134997E-15,1.));
#1216=DIRECTION('',(1.52655665885959E-15,1.,3.12250225675825E-15));
#1217=DIRECTION('center_axis',(1.52655665885959E-15,1.,3.12250225675825E-15));
#1218=DIRECTION('ref_axis',(0.0990688476751161,2.95590715188119E-15,-0.995080581370336));
#1219=DIRECTION('center_axis',(1.10348767114884E-15,1.,1.51443329030296E-15));
#1220=DIRECTION('ref_axis',(0.0990688476751161,1.39766190695685E-15,-0.995080581370336));
#1221=DIRECTION('center_axis',(1.4686100972727E-15,1.,3.1290738134997E-15));
#1222=DIRECTION('ref_axis',(-1.,1.4686100972727E-15,1.75162308040602E-46));
#1223=DIRECTION('center_axis',(0.,0.,1.));
#1224=DIRECTION('ref_axis',(-0.707106781186547,0.707106781186547,0.));
#1225=DIRECTION('center_axis',(0.,0.,-1.));
#1226=DIRECTION('ref_axis',(-0.707106781186547,0.707106781186547,0.));
#1227=DIRECTION('center_axis',(0.,0.0516080448061985,0.998667416966871));
#1228=DIRECTION('ref_axis',(0.,0.998667416966871,-0.0516080448061985));
#1229=DIRECTION('',(0.,0.,1.));
#1230=DIRECTION('center_axis',(-1.,1.14745787488988E-16,0.));
#1231=DIRECTION('ref_axis',(-1.14745787488988E-16,-1.,0.));
#1232=DIRECTION('',(-1.14592879199457E-16,-0.998667416966871,0.0516080448061985));
#1233=DIRECTION('',(0.,0.,-1.));
#1234=DIRECTION('',(-1.14745787488988E-16,-1.,0.));
#1235=DIRECTION('center_axis',(0.,0.0516080448061985,0.998667416966871));
#1236=DIRECTION('ref_axis',(0.,0.998667416966871,-0.0516080448061985));
#1237=DIRECTION('center_axis',(0.,0.0516080448061985,0.998667416966871));
#1238=DIRECTION('ref_axis',(-8.31557670194664E-16,0.998667416966871,-0.0516080448061985));
#1239=DIRECTION('',(-1.14592879199457E-16,0.998667416966871,-0.0516080448061985));
#1240=DIRECTION('center_axis',(0.,0.0516080448061985,0.998667416966871));
#1241=DIRECTION('ref_axis',(0.,-0.998667416966871,0.0516080448061985));
#1242=DIRECTION('',(1.,0.,0.));
#1243=DIRECTION('center_axis',(0.,0.0516080448061985,0.998667416966871));
#1244=DIRECTION('ref_axis',(8.31557670194664E-16,-0.998667416966871,0.0516080448061985));
#1245=DIRECTION('center_axis',(0.,0.,1.));
#1246=DIRECTION('ref_axis',(0.707106781186547,0.707106781186548,0.));
#1247=DIRECTION('center_axis',(0.,0.,-1.));
#1248=DIRECTION('ref_axis',(0.707106781186547,0.707106781186548,0.));
#1249=DIRECTION('',(0.,0.,-1.));
#1250=DIRECTION('center_axis',(1.,1.14745787488988E-16,0.));
#1251=DIRECTION('ref_axis',(-1.14745787488988E-16,1.,0.));
#1252=DIRECTION('',(-1.14745787488988E-16,1.,0.));
#1253=DIRECTION('',(0.,0.,1.));
#1254=DIRECTION('center_axis',(0.,0.,1.));
#1255=DIRECTION('ref_axis',(1.,0.,0.));
#1256=DIRECTION('center_axis',(0.,0.,-1.));
#1257=DIRECTION('ref_axis',(-0.707106781186547,-0.707106781186548,0.));
#1258=DIRECTION('',(1.,0.,0.));
#1259=DIRECTION('center_axis',(0.,0.,-1.));
#1260=DIRECTION('ref_axis',(0.707106781186547,-0.707106781186547,0.));
#1261=DIRECTION('',(1.,0.,0.));
#1262=DIRECTION('',(0.,-1.,0.));
#1263=DIRECTION('',(-1.,0.,0.));
#1264=DIRECTION('',(7.73620522527707E-17,1.,0.));
#1265=DIRECTION('center_axis',(0.,0.,1.));
#1266=DIRECTION('ref_axis',(0.707106781186547,-0.707106781186547,0.));
#1267=DIRECTION('',(0.,0.,-1.));
#1268=DIRECTION('center_axis',(0.,-1.,0.));
#1269=DIRECTION('ref_axis',(1.,0.,0.));
#1270=DIRECTION('',(0.,0.,1.));
#1271=DIRECTION('center_axis',(0.,0.,1.));
#1272=DIRECTION('ref_axis',(-0.707106781186547,-0.707106781186548,0.));
#1273=DIRECTION('center_axis',(1.,-7.73620522527707E-17,0.));
#1274=DIRECTION('ref_axis',(7.73620522527707E-17,1.,0.));
#1275=DIRECTION('',(-7.73620522527707E-17,-1.,0.));
#1276=DIRECTION('',(0.,0.,1.));
#1277=DIRECTION('',(0.,0.,1.));
#1278=DIRECTION('center_axis',(0.,1.,0.));
#1279=DIRECTION('ref_axis',(-1.,0.,0.));
#1280=DIRECTION('',(1.,0.,0.));
#1281=DIRECTION('',(0.,0.,1.));
#1282=DIRECTION('center_axis',(-1.,0.,0.));
#1283=DIRECTION('ref_axis',(0.,-1.,0.));
#1284=DIRECTION('',(0.,1.,0.));
#1285=DIRECTION('',(0.,0.,1.));
#1286=DIRECTION('center_axis',(0.,-1.,0.));
#1287=DIRECTION('ref_axis',(1.,0.,0.));
#1288=DIRECTION('',(-1.,0.,0.));
#1289=DIRECTION('center_axis',(0.,0.,1.));
#1290=DIRECTION('ref_axis',(1.,0.,0.));
#1291=CARTESIAN_POINT('',(0.,0.,0.));
#1292=CARTESIAN_POINT('Origin',(37.7660753110197,-32.4509452118316,0.));
#1293=CARTESIAN_POINT('',(36.0660753110197,-32.4509452118316,12.));
#1294=CARTESIAN_POINT('Origin',(37.7660753110197,-32.4509452118316,12.));
#1295=CARTESIAN_POINT('',(36.0660753110197,-32.4509452118316,19.6));
#1296=CARTESIAN_POINT('',(36.0660753110197,-32.4509452118316,0.));
#1297=CARTESIAN_POINT('Origin',(37.7660753110197,-32.4509452118316,19.6));
#1298=CARTESIAN_POINT('Origin',(37.3597593705505,32.4896720754926,0.));
#1299=CARTESIAN_POINT('',(35.6597593705505,32.4896720754926,12.));
#1300=CARTESIAN_POINT('Origin',(37.3597593705505,32.4896720754926,12.));
#1301=CARTESIAN_POINT('',(35.6597593705505,32.4896720754926,19.6));
#1302=CARTESIAN_POINT('',(35.6597593705505,32.4896720754926,0.));
#1303=CARTESIAN_POINT('Origin',(37.3597593705505,32.4896720754926,19.6));
#1304=CARTESIAN_POINT('Origin',(-37.001356136434,32.9086724713698,0.));
#1305=CARTESIAN_POINT('',(-38.701356136434,32.9086724713698,12.));
#1306=CARTESIAN_POINT('Origin',(-37.001356136434,32.9086724713698,12.));
#1307=CARTESIAN_POINT('',(-38.701356136434,32.9086724713698,19.6));
#1308=CARTESIAN_POINT('',(-38.701356136434,32.9086724713698,0.));
#1309=CARTESIAN_POINT('Origin',(-37.001356136434,32.9086724713698,19.6));
#1310=CARTESIAN_POINT('Origin',(-37.4152585794821,-32.581572226704,0.));
#1311=CARTESIAN_POINT('',(-39.1152585794821,-32.581572226704,12.));
#1312=CARTESIAN_POINT('Origin',(-37.4152585794821,-32.581572226704,12.));
#1313=CARTESIAN_POINT('',(-39.1152585794821,-32.581572226704,19.6));
#1314=CARTESIAN_POINT('',(-39.1152585794821,-32.581572226704,0.));
#1315=CARTESIAN_POINT('Origin',(-37.4152585794821,-32.581572226704,19.6));
#1316=CARTESIAN_POINT('Origin',(37.2057294330861,32.4743649965087,0.));
#1317=CARTESIAN_POINT('',(34.2057294330861,32.4743649965087,0.321825183115707));
#1318=CARTESIAN_POINT('Origin',(37.2057294330861,32.4743649965087,0.321825183115707));
#1319=CARTESIAN_POINT('',(34.2057294330861,32.4743649965087,12.));
#1320=CARTESIAN_POINT('',(34.2057294330861,32.4743649965087,0.));
#1321=CARTESIAN_POINT('Origin',(37.2057294330861,32.4743649965087,12.));
#1322=CARTESIAN_POINT('Origin',(37.2057294330861,32.4743649965087,12.));
#1323=CARTESIAN_POINT('Origin',(-37.4207914529305,-32.4743649965087,0.));
#1324=CARTESIAN_POINT('',(-40.4207914529306,-32.4743649965087,3.67817476520738));
#1325=CARTESIAN_POINT('Origin',(-37.4207914529305,-32.4743649965087,3.67817476520738));
#1326=CARTESIAN_POINT('',(-40.4207914529306,-32.4743649965087,12.));
#1327=CARTESIAN_POINT('',(-40.4207914529306,-32.4743649965087,0.));
#1328=CARTESIAN_POINT('Origin',(-37.4207914529305,-32.4743649965087,12.));
#1329=CARTESIAN_POINT('Origin',(-37.4207914529305,-32.4743649965087,12.));
#1330=CARTESIAN_POINT('Origin',(-37.0166104795331,32.8667662553702,0.));
#1331=CARTESIAN_POINT('',(-40.0166104795331,32.8667662553702,0.301547099135718));
#1332=CARTESIAN_POINT('Origin',(-37.0166104795331,32.8667662553702,0.301547099135718));
#1333=CARTESIAN_POINT('',(-40.0166104795331,32.8667662553702,12.));
#1334=CARTESIAN_POINT('',(-40.0166104795331,32.8667662553702,0.));
#1335=CARTESIAN_POINT('Origin',(-37.0166104795331,32.8667662553702,12.));
#1336=CARTESIAN_POINT('Origin',(-37.0166104795331,32.8667662553702,12.));
#1337=CARTESIAN_POINT('Origin',(37.8465793243657,-32.5347787174372,0.));
#1338=CARTESIAN_POINT('',(34.8465793243657,-32.5347787174372,3.68129675954065));
#1339=CARTESIAN_POINT('Origin',(37.8465793243657,-32.5347787174372,3.68129675954065));
#1340=CARTESIAN_POINT('',(34.8465793243657,-32.5347787174372,12.));
#1341=CARTESIAN_POINT('',(34.8465793243657,-32.5347787174372,0.));
#1342=CARTESIAN_POINT('Origin',(37.8465793243657,-32.5347787174372,12.));
#1343=CARTESIAN_POINT('Origin',(37.8465793243657,-32.5347787174372,12.));
#1344=CARTESIAN_POINT('Origin',(33.5760545970492,36.702005,6.10772211525137));
#1345=CARTESIAN_POINT('',(23.6733753585523,38.702005,6.10772211525137));
#1346=CARTESIAN_POINT('',(17.3886090301235,38.702005,6.10772211525137));
#1347=CARTESIAN_POINT('',(33.5760545970492,38.702005,6.10772211525137));
#1348=CARTESIAN_POINT('',(17.3025231940984,36.702005,8.10772211525137));
#1349=CARTESIAN_POINT('Ctrl Pts',(17.3886090301235,38.702005,6.10772211525137));
#1350=CARTESIAN_POINT('Ctrl Pts',(17.3884146938492,38.702005,6.11283839215005));
#1351=CARTESIAN_POINT('Ctrl Pts',(17.3882202038074,38.7019853677829,6.11795464445987));
#1352=CARTESIAN_POINT('Ctrl Pts',(17.3779597810945,38.6999155803221,6.38764967739954));
#1353=CARTESIAN_POINT('Ctrl Pts',(17.3675764296583,38.6454019420302,6.64921377439349));
#1354=CARTESIAN_POINT('Ctrl Pts',(17.3475290536771,38.4393664109463,7.13212798598444));
#1355=CARTESIAN_POINT('Ctrl Pts',(17.3380461544789,38.2913336975738,7.34945271009925));
#1356=CARTESIAN_POINT('Ctrl Pts',(17.3215072954979,37.920457554679,7.71491492062418));
#1357=CARTESIAN_POINT('Ctrl Pts',(17.3146207016418,37.7012345912594,7.85965801927862));
#1358=CARTESIAN_POINT('Ctrl Pts',(17.3050721937045,37.2197473178926,8.05697470428706));
#1359=CARTESIAN_POINT('Ctrl Pts',(17.3025231940984,36.9621305338476,8.10772211525137));
#1360=CARTESIAN_POINT('Ctrl Pts',(17.3025231940984,36.702005,8.10772211525137));
#1361=CARTESIAN_POINT('',(23.7425231940984,36.702005,8.10772211525137));
#1362=CARTESIAN_POINT('',(33.5760545970492,36.702005,8.10772211525137));
#1363=CARTESIAN_POINT('Ctrl Pts',(23.7425231940984,36.702005,8.10772211525137));
#1364=CARTESIAN_POINT('Ctrl Pts',(23.7425231940984,36.9622457394438,8.10772211525137));
#1365=CARTESIAN_POINT('Ctrl Pts',(23.7405124232659,37.2199850897824,8.05692908024351));
#1366=CARTESIAN_POINT('Ctrl Pts',(23.7329416759175,37.7016136570621,7.85945076284978));
#1367=CARTESIAN_POINT('Ctrl Pts',(23.7274686833387,37.9208701463464,7.71461669615223));
#1368=CARTESIAN_POINT('Ctrl Pts',(23.7142456147355,38.2916821772553,7.34900064286287));
#1369=CARTESIAN_POINT('Ctrl Pts',(23.7066311069787,38.439645098493,7.13165244155436));
#1370=CARTESIAN_POINT('Ctrl Pts',(23.6904632497853,38.6453671210189,6.64911484867944));
#1371=CARTESIAN_POINT('Ctrl Pts',(23.6820569252002,38.6998027314427,6.38801899993705));
#1372=CARTESIAN_POINT('Ctrl Pts',(23.6737090932772,38.7019831825044,6.11850911750498));
#1373=CARTESIAN_POINT('Ctrl Pts',(23.6735421626538,38.702005,6.1131156293542));
#1374=CARTESIAN_POINT('Ctrl Pts',(23.6733753585523,38.702005,6.10772211525137));
#1375=CARTESIAN_POINT('Origin',(24.001128399365,36.702005,11.401506401535));
#1376=CARTESIAN_POINT('',(27.171016,36.702005,10.47));
#1377=CARTESIAN_POINT('Origin',(24.001128399365,36.702005,11.401506401535));
#1378=CARTESIAN_POINT('',(29.171016,38.702005,10.2166704119288));
#1379=CARTESIAN_POINT('Ctrl Pts',(27.171016,36.702005,10.4700000000001));
#1380=CARTESIAN_POINT('Ctrl Pts',(27.171016,36.9599226777067,10.4700000000001));
#1381=CARTESIAN_POINT('Ctrl Pts',(27.2208955818548,37.215200158769,10.4627514332569));
#1382=CARTESIAN_POINT('Ctrl Pts',(27.4151132159047,37.6939325205704,10.4354182995882));
#1383=CARTESIAN_POINT('Ctrl Pts',(27.5580742342546,37.9124441230194,10.4155886577846));
#1384=CARTESIAN_POINT('Ctrl Pts',(27.9204403954672,38.28446315768,10.3674930485976));
#1385=CARTESIAN_POINT('Ctrl Pts',(28.1371988043746,38.4337884024313,10.3396368223564));
#1386=CARTESIAN_POINT('Ctrl Pts',(28.4999255792019,38.5908690158542,10.2950839787774));
#1387=CARTESIAN_POINT('Ctrl Pts',(28.6287007908136,38.6317856717582,10.2795877148509));
#1388=CARTESIAN_POINT('Ctrl Pts',(28.8925036491853,38.6870987984492,10.2485023977126));
#1389=CARTESIAN_POINT('Ctrl Pts',(29.0268928543308,38.7013558166076,10.2329881977071));
#1390=CARTESIAN_POINT('Ctrl Pts',(29.1648097672743,38.7019977779518,10.2173726399654));
#1391=CARTESIAN_POINT('Ctrl Pts',(29.1679128728754,38.702005,10.2170214491651));
#1392=CARTESIAN_POINT('Ctrl Pts',(29.171016,38.702005,10.2166704119288));
#1393=CARTESIAN_POINT('Origin',(24.001128399365,38.702005,11.401506401535));
#1394=CARTESIAN_POINT('Origin',(29.171016,36.702005,6.73500000000001));
#1395=CARTESIAN_POINT('',(27.171016,36.702005,13.47));
#1396=CARTESIAN_POINT('',(27.171016,36.702005,6.73500000000001));
#1397=CARTESIAN_POINT('',(29.171016,38.702005,13.47));
#1398=CARTESIAN_POINT('Origin',(29.171016,36.702005,13.47));
#1399=CARTESIAN_POINT('',(29.171016,38.702005,6.73500000000001));
#1400=CARTESIAN_POINT('Origin',(23.921016,36.702005,13.47));
#1401=CARTESIAN_POINT('',(23.921016,36.702005,16.72));
#1402=CARTESIAN_POINT('',(23.921016,38.702005,18.72));
#1403=CARTESIAN_POINT('Origin',(23.921016,36.702005,18.72));
#1404=CARTESIAN_POINT('Origin',(23.921016,38.702005,13.47));
#1405=CARTESIAN_POINT('Origin',(23.921016,36.702005,13.47));
#1406=CARTESIAN_POINT('Origin',(30.445301,36.702005,18.72));
#1407=CARTESIAN_POINT('',(17.481016,36.702005,16.72));
#1408=CARTESIAN_POINT('',(17.481016,38.702005,18.72));
#1409=CARTESIAN_POINT('Origin',(17.481016,36.702005,18.72));
#1410=CARTESIAN_POINT('',(30.445301,38.702005,18.72));
#1411=CARTESIAN_POINT('',(30.445301,36.702005,16.72));
#1412=CARTESIAN_POINT('Origin',(17.481016,36.702005,13.47));
#1413=CARTESIAN_POINT('',(14.231016,36.702005,13.47));
#1414=CARTESIAN_POINT('',(12.231016,38.702005,13.47));
#1415=CARTESIAN_POINT('Origin',(12.231016,36.702005,13.47));
#1416=CARTESIAN_POINT('Origin',(17.481016,38.702005,13.47));
#1417=CARTESIAN_POINT('Origin',(17.481016,36.702005,13.47));
#1418=CARTESIAN_POINT('Origin',(12.231016,36.702005,5.23500000000001));
#1419=CARTESIAN_POINT('',(12.231016,38.702005,10.3307772997777));
#1420=CARTESIAN_POINT('',(12.231016,38.702005,5.23500000000001));
#1421=CARTESIAN_POINT('',(14.231016,36.702005,10.4700000000001));
#1422=CARTESIAN_POINT('',(14.231016,36.702005,5.23500000000001));
#1423=CARTESIAN_POINT('Ctrl Pts',(14.231016,36.702005,10.47));
#1424=CARTESIAN_POINT('Ctrl Pts',(14.231016,36.9616407177859,10.47));
#1425=CARTESIAN_POINT('Ctrl Pts',(14.1804620149535,37.2187374544892,10.4658914366451));
#1426=CARTESIAN_POINT('Ctrl Pts',(13.9838334894938,37.6996189974126,10.4504957273579));
#1427=CARTESIAN_POINT('Ctrl Pts',(13.8394820963528,37.9186912875776,10.4393835329529));
#1428=CARTESIAN_POINT('Ctrl Pts',(13.4746919932442,38.2898304679048,10.4126746424285));
#1429=CARTESIAN_POINT('Ctrl Pts',(13.257480925162,38.4381544320199,10.3973419543453));
#1430=CARTESIAN_POINT('Ctrl Pts',(12.7731391497213,38.6454705360406,10.3648199609109));
#1431=CARTESIAN_POINT('Ctrl Pts',(12.5097584399696,38.7003197636221,10.3479157947012));
#1432=CARTESIAN_POINT('Ctrl Pts',(12.2392599064858,38.7019922570652,10.3312837019704));
#1433=CARTESIAN_POINT('Ctrl Pts',(12.235137963069,38.702005,10.3310304201229));
#1434=CARTESIAN_POINT('Ctrl Pts',(12.231016,38.702005,10.3307772997777));
#1435=CARTESIAN_POINT('Origin',(17.0223913817921,36.702005,10.921459563417));
#1436=CARTESIAN_POINT('Origin',(17.0223913817921,38.702005,10.921459563417));
#1437=CARTESIAN_POINT('Origin',(17.0223913817921,36.702005,10.921459563417));
#1438=CARTESIAN_POINT('Origin',(23.921016,29.025994,13.47));
#1439=CARTESIAN_POINT('',(27.171016,29.025994,13.47));
#1440=CARTESIAN_POINT('',(27.171016,29.025994,13.47));
#1441=CARTESIAN_POINT('',(23.921016,29.025994,16.72));
#1442=CARTESIAN_POINT('Origin',(23.921016,29.025994,13.47));
#1443=CARTESIAN_POINT('',(23.921016,29.025994,16.72));
#1444=CARTESIAN_POINT('Origin',(27.171016,29.025994,13.47));
#1445=CARTESIAN_POINT('',(27.171016,29.025994,10.47));
#1446=CARTESIAN_POINT('',(27.171016,29.025994,10.47));
#1447=CARTESIAN_POINT('',(27.171016,29.025994,13.47));
#1448=CARTESIAN_POINT('Origin',(24.001128399365,29.025994,11.401506401535));
#1449=CARTESIAN_POINT('',(23.7425231940984,29.025994,8.10772211525134));
#1450=CARTESIAN_POINT('',(23.7425231940984,29.025994,8.10772211525134));
#1451=CARTESIAN_POINT('Origin',(24.001128399365,29.025994,11.401506401535));
#1452=CARTESIAN_POINT('Origin',(23.7425231940984,29.025994,8.10772211525134));
#1453=CARTESIAN_POINT('',(17.3025231940984,29.025994,8.10772211525134));
#1454=CARTESIAN_POINT('',(17.3025231940984,29.025994,8.10772211525134));
#1455=CARTESIAN_POINT('',(17.3025231940984,29.025994,8.10772211525134));
#1456=CARTESIAN_POINT('Origin',(43.409586,38.702005,0.));
#1457=CARTESIAN_POINT('',(-38.654995,38.702005,19.6));
#1458=CARTESIAN_POINT('',(-38.654995,38.702005,0.));
#1459=CARTESIAN_POINT('',(-38.654995,38.702005,0.));
#1460=CARTESIAN_POINT('',(38.409586,38.702005,19.6));
#1461=CARTESIAN_POINT('',(-43.654995,38.702005,19.6));
#1462=CARTESIAN_POINT('',(38.409586,38.702005,0.));
#1463=CARTESIAN_POINT('',(38.409586,38.702005,0.));
#1464=CARTESIAN_POINT('',(-43.654995,38.702005,0.));
#1465=CARTESIAN_POINT('Origin',(25.171016,29.025994,12.76));
#1466=CARTESIAN_POINT('',(25.171016,28.702005,13.47));
#1467=CARTESIAN_POINT('',(25.171016,28.702005,12.76));
#1468=CARTESIAN_POINT('',(25.171016,28.702005,10.38));
#1469=CARTESIAN_POINT('',(25.171016,29.025994,13.47));
#1470=CARTESIAN_POINT('',(25.171016,29.025994,13.47));
#1471=CARTESIAN_POINT('',(25.171016,29.025994,12.76));
#1472=CARTESIAN_POINT('',(25.171016,29.025994,12.5834529329576));
#1473=CARTESIAN_POINT('',(25.171016,29.025994,12.76));
#1474=CARTESIAN_POINT('Origin',(23.921016,29.025994,12.76));
#1475=CARTESIAN_POINT('',(23.921016,28.702005,11.51));
#1476=CARTESIAN_POINT('Origin',(23.921016,28.7020049999999,12.76));
#1477=CARTESIAN_POINT('',(23.921016,29.025994,11.51));
#1478=CARTESIAN_POINT('Origin',(23.921016,29.025994,12.76));
#1479=CARTESIAN_POINT('',(23.921016,29.025994,11.51));
#1480=CARTESIAN_POINT('Origin',(17.481016,29.025994,11.51));
#1481=CARTESIAN_POINT('',(17.481016,28.702005,11.51));
#1482=CARTESIAN_POINT('',(-8.0869895,28.702005,11.51));
#1483=CARTESIAN_POINT('',(17.481016,29.025994,11.51));
#1484=CARTESIAN_POINT('',(19.091016,29.025994,11.51));
#1485=CARTESIAN_POINT('',(17.481016,29.025994,11.51));
#1486=CARTESIAN_POINT('Origin',(17.481016,29.025994,12.76));
#1487=CARTESIAN_POINT('',(16.231016,28.702005,12.76));
#1488=CARTESIAN_POINT('Origin',(17.481016,28.7020049999999,12.76));
#1489=CARTESIAN_POINT('',(16.231016,29.025994,12.76));
#1490=CARTESIAN_POINT('Origin',(17.481016,29.025994,12.76));
#1491=CARTESIAN_POINT('',(16.231016,29.025994,12.76));
#1492=CARTESIAN_POINT('Origin',(16.231016,29.025994,13.47));
#1493=CARTESIAN_POINT('',(16.231016,28.702005,13.47));
#1494=CARTESIAN_POINT('',(16.231016,28.702005,10.735));
#1495=CARTESIAN_POINT('',(16.231016,29.025994,13.47));
#1496=CARTESIAN_POINT('',(16.231016,29.025994,12.9384529329576));
#1497=CARTESIAN_POINT('',(16.231016,29.025994,13.47));
#1498=CARTESIAN_POINT('Origin',(17.481016,29.025994,13.47));
#1499=CARTESIAN_POINT('',(17.481016,28.702005,14.72));
#1500=CARTESIAN_POINT('Origin',(17.481016,28.7020049999999,13.47));
#1501=CARTESIAN_POINT('',(17.481016,29.025994,14.72));
#1502=CARTESIAN_POINT('Origin',(17.481016,29.025994,13.47));
#1503=CARTESIAN_POINT('',(17.481016,29.025994,14.72));
#1504=CARTESIAN_POINT('Origin',(23.921016,29.025994,14.72));
#1505=CARTESIAN_POINT('',(23.921016,28.702005,14.72));
#1506=CARTESIAN_POINT('',(-4.8669895,28.702005,14.72));
#1507=CARTESIAN_POINT('',(23.921016,29.025994,14.72));
#1508=CARTESIAN_POINT('',(22.311016,29.025994,14.72));
#1509=CARTESIAN_POINT('',(23.921016,29.025994,14.72));
#1510=CARTESIAN_POINT('Origin',(23.921016,29.025994,13.47));
#1511=CARTESIAN_POINT('Origin',(23.921016,28.7020049999999,13.47));
#1512=CARTESIAN_POINT('Origin',(23.921016,29.025994,13.47));
#1513=CARTESIAN_POINT('Origin',(17.481016,29.025994,16.72));
#1514=CARTESIAN_POINT('',(17.481016,29.025994,16.72));
#1515=CARTESIAN_POINT('',(17.481016,29.025994,16.72));
#1516=CARTESIAN_POINT('',(17.481016,29.025994,16.72));
#1517=CARTESIAN_POINT('Origin',(17.481016,29.025994,13.47));
#1518=CARTESIAN_POINT('',(14.231016,29.025994,13.47));
#1519=CARTESIAN_POINT('Origin',(17.481016,29.025994,13.47));
#1520=CARTESIAN_POINT('',(14.231016,29.025994,13.47));
#1521=CARTESIAN_POINT('Origin',(14.231016,29.025994,10.47));
#1522=CARTESIAN_POINT('',(14.231016,29.025994,10.47));
#1523=CARTESIAN_POINT('',(14.231016,29.025994,10.47));
#1524=CARTESIAN_POINT('',(14.231016,29.025994,10.47));
#1525=CARTESIAN_POINT('Origin',(17.0223913817921,29.025994,10.921459563417));
#1526=CARTESIAN_POINT('Origin',(17.0223913817921,29.025994,10.921459563417));
#1527=CARTESIAN_POINT('Origin',(20.701016,29.025994,12.4069058659153));
#1528=CARTESIAN_POINT('Origin',(-38.654995,33.702005,0.));
#1529=CARTESIAN_POINT('',(-43.654995,33.702005,19.6));
#1530=CARTESIAN_POINT('Origin',(-38.654995,33.702005,19.6));
#1531=CARTESIAN_POINT('',(-43.654995,33.702005,0.258384542888869));
#1532=CARTESIAN_POINT('Origin',(-38.654995,33.702005,0.258384542888869));
#1533=CARTESIAN_POINT('',(-43.654995,33.702005,0.));
#1534=CARTESIAN_POINT('Origin',(-43.654995,38.702005,0.));
#1535=CARTESIAN_POINT('',(-43.654995,-33.702006,3.74161545711113));
#1536=CARTESIAN_POINT('',(-43.654995,-4.99999998655084E-7,2.));
#1537=CARTESIAN_POINT('',(-43.654995,-33.702006,19.6));
#1538=CARTESIAN_POINT('',(-43.654995,-33.702006,0.));
#1539=CARTESIAN_POINT('',(-43.654995,-38.702006,19.6));
#1540=CARTESIAN_POINT('Origin',(43.409586,-38.702006,4.));
#1541=CARTESIAN_POINT('',(43.409586,33.702005,0.258384542888869));
#1542=CARTESIAN_POINT('Origin',(38.409586,33.702005,0.258384542888869));
#1543=CARTESIAN_POINT('',(43.409586,-33.702006,3.74161545711113));
#1544=CARTESIAN_POINT('',(43.409586,-38.5989274543974,3.99467321942256));
#1545=CARTESIAN_POINT('',(38.409586,-38.702006,4.));
#1546=CARTESIAN_POINT('Origin',(38.409586,-33.702006,3.74161545711113));
#1547=CARTESIAN_POINT('',(-38.654995,-38.702006,4.));
#1548=CARTESIAN_POINT('',(-0.122704499999999,-38.702006,4.));
#1549=CARTESIAN_POINT('Origin',(-38.654995,-33.702006,3.74161545711113));
#1550=CARTESIAN_POINT('Origin',(38.409586,33.702005,0.));
#1551=CARTESIAN_POINT('',(43.409586,33.702005,19.6));
#1552=CARTESIAN_POINT('Origin',(38.409586,33.702005,19.6));
#1553=CARTESIAN_POINT('',(43.409586,33.702005,0.));
#1554=CARTESIAN_POINT('Origin',(43.409586,-38.702006,0.));
#1555=CARTESIAN_POINT('',(43.409586,-33.702006,19.6));
#1556=CARTESIAN_POINT('',(43.409586,38.702005,19.6));
#1557=CARTESIAN_POINT('',(43.409586,-33.702006,0.));
#1558=CARTESIAN_POINT('Origin',(-0.122704499999999,-5.00000001402157E-7,
19.6));
#1559=CARTESIAN_POINT('',(-38.654995,-38.702006,19.6));
#1560=CARTESIAN_POINT('Origin',(-38.654995,-33.702006,19.6));
#1561=CARTESIAN_POINT('',(38.409586,-38.702006,19.6));
#1562=CARTESIAN_POINT('',(43.409586,-38.702006,19.6));
#1563=CARTESIAN_POINT('Origin',(38.409586,-33.702006,19.6));
#1564=CARTESIAN_POINT('',(-33.654995,28.702005,19.6));
#1565=CARTESIAN_POINT('',(33.409586,28.702005,19.6));
#1566=CARTESIAN_POINT('',(-33.654995,28.702005,19.6));
#1567=CARTESIAN_POINT('',(33.409586,-28.702006,19.6));
#1568=CARTESIAN_POINT('',(33.409586,28.702005,19.6));
#1569=CARTESIAN_POINT('',(-33.654995,-28.702006,19.6));
#1570=CARTESIAN_POINT('',(33.409586,-28.702006,19.6));
#1571=CARTESIAN_POINT('',(-33.654995,-28.702006,19.6));
#1572=CARTESIAN_POINT('Origin',(38.409586,-33.702006,0.));
#1573=CARTESIAN_POINT('',(38.409586,-38.702006,0.));
#1574=CARTESIAN_POINT('Origin',(-43.654995,-38.702006,0.));
#1575=CARTESIAN_POINT('',(-38.654995,-38.702006,0.));
#1576=CARTESIAN_POINT('Origin',(-38.654995,-33.702006,0.));
#1577=CARTESIAN_POINT('Origin',(-33.654995,-28.702006,8.));
#1578=CARTESIAN_POINT('',(-33.654995,28.702005,8.));
#1579=CARTESIAN_POINT('',(-33.654995,-28.702006,8.));
#1580=CARTESIAN_POINT('',(-33.654995,-14.35100325,8.));
#1581=CARTESIAN_POINT('',(-33.654995,28.702005,8.));
#1582=CARTESIAN_POINT('',(-33.654995,-28.702006,8.));
#1583=CARTESIAN_POINT('Origin',(33.409586,-28.702006,8.));
#1584=CARTESIAN_POINT('',(33.409586,-28.702006,8.));
#1585=CARTESIAN_POINT('',(16.64344075,-28.702006,8.));
#1586=CARTESIAN_POINT('',(33.409586,-28.702006,8.));
#1587=CARTESIAN_POINT('Origin',(33.409586,28.702005,8.));
#1588=CARTESIAN_POINT('',(33.409586,28.702005,8.));
#1589=CARTESIAN_POINT('',(33.409586,14.35100225,8.));
#1590=CARTESIAN_POINT('',(33.409586,28.702005,8.));
#1591=CARTESIAN_POINT('Origin',(-33.654995,28.702005,8.));
#1592=CARTESIAN_POINT('',(-16.88884975,28.702005,8.));
#1593=CARTESIAN_POINT('Origin',(-0.122704499999999,-5.00000001402157E-7,
8.));
#1594=UNCERTAINTY_MEASURE_WITH_UNIT(LENGTH_MEASURE(0.01),#1598,
'DISTANCE_ACCURACY_VALUE',
'Maximum model space distance between geometric entities at asserted c
onnectivities');
#1595=UNCERTAINTY_MEASURE_WITH_UNIT(LENGTH_MEASURE(0.01),#1598,
'DISTANCE_ACCURACY_VALUE',
'Maximum model space distance between geometric entities at asserted c
onnectivities');
#1596=(
GEOMETRIC_REPRESENTATION_CONTEXT(3)
GLOBAL_UNCERTAINTY_ASSIGNED_CONTEXT((#1594))
GLOBAL_UNIT_ASSIGNED_CONTEXT((#1598,#1600,#1601))
REPRESENTATION_CONTEXT('','3D')
);
#1597=(
GEOMETRIC_REPRESENTATION_CONTEXT(3)
GLOBAL_UNCERTAINTY_ASSIGNED_CONTEXT((#1595))
GLOBAL_UNIT_ASSIGNED_CONTEXT((#1598,#1600,#1601))
REPRESENTATION_CONTEXT('','3D')
);
#1598=(
LENGTH_UNIT()
NAMED_UNIT(*)
SI_UNIT(.MILLI.,.METRE.)
);
#1599=(
LENGTH_UNIT()
NAMED_UNIT(*)
SI_UNIT($,.METRE.)
);
#1600=(
NAMED_UNIT(*)
PLANE_ANGLE_UNIT()
SI_UNIT($,.RADIAN.)
);
#1601=(
NAMED_UNIT(*)
SI_UNIT($,.STERADIAN.)
SOLID_ANGLE_UNIT()
);
#1602=SHAPE_DEFINITION_REPRESENTATION(#1603,#1604);
#1603=PRODUCT_DEFINITION_SHAPE('',$,#1606);
#1604=SHAPE_REPRESENTATION('',(#916),#1596);
#1605=PRODUCT_DEFINITION_CONTEXT('part definition',#1610,'design');
#1606=PRODUCT_DEFINITION('2026-09-27-09-13-02-775','Base',#1607,#1605);
#1607=PRODUCT_DEFINITION_FORMATION('',$,#1612);
#1608=PRODUCT_RELATED_PRODUCT_CATEGORY('Base','Base',(#1612));
#1609=APPLICATION_PROTOCOL_DEFINITION('international standard',
'automotive_design',2009,#1610);
#1610=APPLICATION_CONTEXT(
'Core Data for Automotive Mechanical Design Process');
#1611=PRODUCT_CONTEXT('part definition',#1610,'mechanical');
#1612=PRODUCT('2026-09-27-09-13-02-775','Base',$,(#1611));
#1613=PRESENTATION_STYLE_ASSIGNMENT((#1615));
#1614=PRESENTATION_STYLE_ASSIGNMENT((#1616));
#1615=SURFACE_STYLE_USAGE(.BOTH.,#1617);
#1616=SURFACE_STYLE_USAGE(.BOTH.,#1618);
#1617=SURFACE_SIDE_STYLE('',(#1619));
#1618=SURFACE_SIDE_STYLE('',(#1620));
#1619=SURFACE_STYLE_FILL_AREA(#1621);
#1620=SURFACE_STYLE_FILL_AREA(#1622);
#1621=FILL_AREA_STYLE('Steel - Satin',(#1623));
#1622=FILL_AREA_STYLE('Plastic - Translucent Glossy (Red)',(#1624));
#1623=FILL_AREA_STYLE_COLOUR('Steel - Satin',#1625);
#1624=FILL_AREA_STYLE_COLOUR('Plastic - Translucent Glossy (Red)',#1626);
#1625=COLOUR_RGB('Steel - Satin',0.627450980392157,0.627450980392157,0.627450980392157);
#1626=COLOUR_RGB('Plastic - Translucent Glossy (Red)',0.768627450980392,
0.207843137254902,0.152941176470588);
ENDSEC;
END-ISO-10303-21;
