ISO-10303-21;
HEADER;
/* Generated by software containing ST-Developer
 * from STEP Tools, Inc. (www.steptools.com) 
 */

FILE_DESCRIPTION(
/* description */ (''),
/* implementation_level */ '2;1');

FILE_NAME(
/* name */ 'Plate.step',
/* time_stamp */ '2026-09-27T09:13:37+05:30',
/* author */ (''),
/* organization */ (''),
/* preprocessor_version */ 'ST-DEVELOPER v20.2',
/* originating_system */ 'Autodesk Translation Framework v15.15.0.0',
/* authorisation */ '');

FILE_SCHEMA (('AUTOMOTIVE_DESIGN { 1 0 10303 214 3 1 1 }'));
ENDSEC;

DATA;
#10=MECHANICAL_DESIGN_GEOMETRIC_PRESENTATION_REPRESENTATION('',(#13),#1995);
#11=SHAPE_REPRESENTATION_RELATIONSHIP('SRR','None',#2002,#12);
#12=ADVANCED_BREP_SHAPE_REPRESENTATION('',(#14),#1994);
#13=STYLED_ITEM('',(#2012),#14);
#14=MANIFOLD_SOLID_BREP('Plate',#1183);
#15=FACE_BOUND('',#130,.T.);
#16=FACE_BOUND('',#131,.T.);
#17=FACE_BOUND('',#132,.T.);
#18=FACE_BOUND('',#133,.T.);
#19=FACE_BOUND('',#134,.T.);
#20=FACE_BOUND('',#135,.T.);
#21=FACE_BOUND('',#136,.T.);
#22=FACE_BOUND('',#137,.T.);
#23=FACE_BOUND('',#138,.T.);
#24=FACE_BOUND('',#139,.T.);
#25=FACE_BOUND('',#191,.T.);
#26=FACE_BOUND('',#192,.T.);
#27=FACE_BOUND('',#193,.T.);
#28=FACE_BOUND('',#194,.T.);
#29=FACE_BOUND('',#195,.T.);
#30=FACE_BOUND('',#196,.T.);
#31=FACE_BOUND('',#197,.T.);
#32=FACE_BOUND('',#198,.T.);
#33=FACE_BOUND('',#199,.T.);
#34=FACE_BOUND('',#200,.T.);
#35=PLANE('',#1212);
#36=PLANE('',#1213);
#37=PLANE('',#1239);
#38=PLANE('',#1244);
#39=PLANE('',#1245);
#40=PLANE('',#1246);
#41=PLANE('',#1247);
#42=PLANE('',#1248);
#43=PLANE('',#1251);
#44=PLANE('',#1254);
#45=PLANE('',#1257);
#46=PLANE('',#1260);
#47=PLANE('',#1263);
#48=PLANE('',#1266);
#49=PLANE('',#1269);
#50=PLANE('',#1272);
#51=PLANE('',#1275);
#52=PLANE('',#1278);
#53=PLANE('',#1281);
#54=PLANE('',#1284);
#55=PLANE('',#1287);
#56=PLANE('',#1290);
#57=PLANE('',#1293);
#58=PLANE('',#1298);
#59=PLANE('',#1301);
#60=PLANE('',#1304);
#61=PLANE('',#1307);
#62=PLANE('',#1308);
#63=PLANE('',#1309);
#64=PLANE('',#1310);
#65=FACE_OUTER_BOUND('',#123,.T.);
#66=FACE_OUTER_BOUND('',#124,.T.);
#67=FACE_OUTER_BOUND('',#125,.T.);
#68=FACE_OUTER_BOUND('',#126,.T.);
#69=FACE_OUTER_BOUND('',#127,.T.);
#70=FACE_OUTER_BOUND('',#128,.T.);
#71=FACE_OUTER_BOUND('',#129,.T.);
#72=FACE_OUTER_BOUND('',#140,.T.);
#73=FACE_OUTER_BOUND('',#141,.T.);
#74=FACE_OUTER_BOUND('',#142,.T.);
#75=FACE_OUTER_BOUND('',#143,.T.);
#76=FACE_OUTER_BOUND('',#144,.T.);
#77=FACE_OUTER_BOUND('',#145,.T.);
#78=FACE_OUTER_BOUND('',#146,.T.);
#79=FACE_OUTER_BOUND('',#147,.T.);
#80=FACE_OUTER_BOUND('',#148,.T.);
#81=FACE_OUTER_BOUND('',#149,.T.);
#82=FACE_OUTER_BOUND('',#150,.T.);
#83=FACE_OUTER_BOUND('',#151,.T.);
#84=FACE_OUTER_BOUND('',#152,.T.);
#85=FACE_OUTER_BOUND('',#153,.T.);
#86=FACE_OUTER_BOUND('',#154,.T.);
#87=FACE_OUTER_BOUND('',#155,.T.);
#88=FACE_OUTER_BOUND('',#156,.T.);
#89=FACE_OUTER_BOUND('',#157,.T.);
#90=FACE_OUTER_BOUND('',#158,.T.);
#91=FACE_OUTER_BOUND('',#159,.T.);
#92=FACE_OUTER_BOUND('',#160,.T.);
#93=FACE_OUTER_BOUND('',#161,.T.);
#94=FACE_OUTER_BOUND('',#162,.T.);
#95=FACE_OUTER_BOUND('',#163,.T.);
#96=FACE_OUTER_BOUND('',#164,.T.);
#97=FACE_OUTER_BOUND('',#165,.T.);
#98=FACE_OUTER_BOUND('',#166,.T.);
#99=FACE_OUTER_BOUND('',#167,.T.);
#100=FACE_OUTER_BOUND('',#168,.T.);
#101=FACE_OUTER_BOUND('',#169,.T.);
#102=FACE_OUTER_BOUND('',#170,.T.);
#103=FACE_OUTER_BOUND('',#171,.T.);
#104=FACE_OUTER_BOUND('',#172,.T.);
#105=FACE_OUTER_BOUND('',#173,.T.);
#106=FACE_OUTER_BOUND('',#174,.T.);
#107=FACE_OUTER_BOUND('',#175,.T.);
#108=FACE_OUTER_BOUND('',#176,.T.);
#109=FACE_OUTER_BOUND('',#177,.T.);
#110=FACE_OUTER_BOUND('',#178,.T.);
#111=FACE_OUTER_BOUND('',#179,.T.);
#112=FACE_OUTER_BOUND('',#180,.T.);
#113=FACE_OUTER_BOUND('',#181,.T.);
#114=FACE_OUTER_BOUND('',#182,.T.);
#115=FACE_OUTER_BOUND('',#183,.T.);
#116=FACE_OUTER_BOUND('',#184,.T.);
#117=FACE_OUTER_BOUND('',#185,.T.);
#118=FACE_OUTER_BOUND('',#186,.T.);
#119=FACE_OUTER_BOUND('',#187,.T.);
#120=FACE_OUTER_BOUND('',#188,.T.);
#121=FACE_OUTER_BOUND('',#189,.T.);
#122=FACE_OUTER_BOUND('',#190,.T.);
#123=EDGE_LOOP('',(#761,#762,#763,#764));
#124=EDGE_LOOP('',(#765,#766,#767,#768));
#125=EDGE_LOOP('',(#769,#770,#771,#772));
#126=EDGE_LOOP('',(#773,#774,#775,#776));
#127=EDGE_LOOP('',(#777,#778,#779,#780));
#128=EDGE_LOOP('',(#781,#782,#783,#784));
#129=EDGE_LOOP('',(#785,#786,#787,#788,#789,#790,#791,#792));
#130=EDGE_LOOP('',(#793,#794,#795,#796));
#131=EDGE_LOOP('',(#797,#798,#799,#800,#801,#802,#803,#804));
#132=EDGE_LOOP('',(#805,#806,#807,#808,#809,#810,#811,#812));
#133=EDGE_LOOP('',(#813,#814,#815,#816,#817,#818,#819,#820));
#134=EDGE_LOOP('',(#821,#822,#823,#824,#825,#826,#827,#828));
#135=EDGE_LOOP('',(#829,#830,#831,#832,#833,#834,#835,#836));
#136=EDGE_LOOP('',(#837));
#137=EDGE_LOOP('',(#838));
#138=EDGE_LOOP('',(#839));
#139=EDGE_LOOP('',(#840));
#140=EDGE_LOOP('',(#841,#842,#843,#844));
#141=EDGE_LOOP('',(#845,#846,#847,#848));
#142=EDGE_LOOP('',(#849,#850,#851,#852));
#143=EDGE_LOOP('',(#853,#854,#855,#856));
#144=EDGE_LOOP('',(#857,#858,#859,#860));
#145=EDGE_LOOP('',(#861,#862,#863,#864));
#146=EDGE_LOOP('',(#865,#866,#867,#868));
#147=EDGE_LOOP('',(#869,#870,#871,#872));
#148=EDGE_LOOP('',(#873,#874,#875,#876));
#149=EDGE_LOOP('',(#877,#878,#879,#880));
#150=EDGE_LOOP('',(#881,#882,#883,#884));
#151=EDGE_LOOP('',(#885,#886,#887,#888));
#152=EDGE_LOOP('',(#889,#890,#891,#892));
#153=EDGE_LOOP('',(#893,#894,#895,#896));
#154=EDGE_LOOP('',(#897,#898,#899,#900));
#155=EDGE_LOOP('',(#901,#902,#903,#904));
#156=EDGE_LOOP('',(#905,#906,#907,#908));
#157=EDGE_LOOP('',(#909,#910,#911,#912));
#158=EDGE_LOOP('',(#913,#914,#915,#916));
#159=EDGE_LOOP('',(#917,#918,#919,#920));
#160=EDGE_LOOP('',(#921,#922,#923,#924));
#161=EDGE_LOOP('',(#925,#926,#927,#928));
#162=EDGE_LOOP('',(#929,#930,#931,#932));
#163=EDGE_LOOP('',(#933,#934,#935,#936));
#164=EDGE_LOOP('',(#937,#938,#939,#940));
#165=EDGE_LOOP('',(#941,#942,#943,#944));
#166=EDGE_LOOP('',(#945,#946,#947,#948));
#167=EDGE_LOOP('',(#949,#950,#951,#952));
#168=EDGE_LOOP('',(#953,#954,#955,#956));
#169=EDGE_LOOP('',(#957,#958,#959,#960));
#170=EDGE_LOOP('',(#961,#962,#963,#964));
#171=EDGE_LOOP('',(#965,#966,#967,#968));
#172=EDGE_LOOP('',(#969,#970,#971,#972));
#173=EDGE_LOOP('',(#973,#974,#975,#976));
#174=EDGE_LOOP('',(#977,#978,#979,#980));
#175=EDGE_LOOP('',(#981,#982,#983,#984));
#176=EDGE_LOOP('',(#985,#986,#987,#988));
#177=EDGE_LOOP('',(#989,#990,#991,#992));
#178=EDGE_LOOP('',(#993,#994,#995,#996));
#179=EDGE_LOOP('',(#997,#998,#999,#1000));
#180=EDGE_LOOP('',(#1001,#1002,#1003,#1004));
#181=EDGE_LOOP('',(#1005,#1006,#1007,#1008));
#182=EDGE_LOOP('',(#1009,#1010,#1011,#1012));
#183=EDGE_LOOP('',(#1013,#1014,#1015,#1016));
#184=EDGE_LOOP('',(#1017,#1018,#1019,#1020));
#185=EDGE_LOOP('',(#1021,#1022,#1023,#1024));
#186=EDGE_LOOP('',(#1025,#1026,#1027,#1028));
#187=EDGE_LOOP('',(#1029,#1030,#1031,#1032));
#188=EDGE_LOOP('',(#1033,#1034,#1035,#1036));
#189=EDGE_LOOP('',(#1037,#1038,#1039,#1040));
#190=EDGE_LOOP('',(#1041,#1042,#1043,#1044,#1045,#1046,#1047,#1048));
#191=EDGE_LOOP('',(#1049,#1050,#1051,#1052));
#192=EDGE_LOOP('',(#1053,#1054,#1055,#1056,#1057,#1058,#1059,#1060));
#193=EDGE_LOOP('',(#1061,#1062,#1063,#1064,#1065,#1066,#1067,#1068));
#194=EDGE_LOOP('',(#1069,#1070,#1071,#1072,#1073,#1074,#1075,#1076));
#195=EDGE_LOOP('',(#1077,#1078,#1079,#1080,#1081,#1082,#1083,#1084));
#196=EDGE_LOOP('',(#1085,#1086,#1087,#1088,#1089,#1090,#1091,#1092));
#197=EDGE_LOOP('',(#1093));
#198=EDGE_LOOP('',(#1094));
#199=EDGE_LOOP('',(#1095));
#200=EDGE_LOOP('',(#1096));
#201=LINE('',#1658,#313);
#202=LINE('',#1664,#314);
#203=LINE('',#1670,#315);
#204=LINE('',#1676,#316);
#205=LINE('',#1683,#317);
#206=LINE('',#1686,#318);
#207=LINE('',#1689,#319);
#208=LINE('',#1691,#320);
#209=LINE('',#1692,#321);
#210=LINE('',#1695,#322);
#211=LINE('',#1699,#323);
#212=LINE('',#1703,#324);
#213=LINE('',#1707,#325);
#214=LINE('',#1709,#326);
#215=LINE('',#1711,#327);
#216=LINE('',#1712,#328);
#217=LINE('',#1717,#329);
#218=LINE('',#1721,#330);
#219=LINE('',#1725,#331);
#220=LINE('',#1728,#332);
#221=LINE('',#1733,#333);
#222=LINE('',#1737,#334);
#223=LINE('',#1741,#335);
#224=LINE('',#1744,#336);
#225=LINE('',#1749,#337);
#226=LINE('',#1753,#338);
#227=LINE('',#1757,#339);
#228=LINE('',#1760,#340);
#229=LINE('',#1765,#341);
#230=LINE('',#1769,#342);
#231=LINE('',#1773,#343);
#232=LINE('',#1776,#344);
#233=LINE('',#1779,#345);
#234=LINE('',#1783,#346);
#235=LINE('',#1787,#347);
#236=LINE('',#1791,#348);
#237=LINE('',#1797,#349);
#238=LINE('',#1798,#350);
#239=LINE('',#1801,#351);
#240=LINE('',#1802,#352);
#241=LINE('',#1806,#353);
#242=LINE('',#1810,#354);
#243=LINE('',#1813,#355);
#244=LINE('',#1815,#356);
#245=LINE('',#1816,#357);
#246=LINE('',#1819,#358);
#247=LINE('',#1820,#359);
#248=LINE('',#1823,#360);
#249=LINE('',#1824,#361);
#250=LINE('',#1826,#362);
#251=LINE('',#1829,#363);
#252=LINE('',#1831,#364);
#253=LINE('',#1832,#365);
#254=LINE('',#1836,#366);
#255=LINE('',#1839,#367);
#256=LINE('',#1840,#368);
#257=LINE('',#1844,#369);
#258=LINE('',#1847,#370);
#259=LINE('',#1848,#371);
#260=LINE('',#1852,#372);
#261=LINE('',#1855,#373);
#262=LINE('',#1856,#374);
#263=LINE('',#1861,#375);
#264=LINE('',#1863,#376);
#265=LINE('',#1864,#377);
#266=LINE('',#1868,#378);
#267=LINE('',#1871,#379);
#268=LINE('',#1872,#380);
#269=LINE('',#1876,#381);
#270=LINE('',#1879,#382);
#271=LINE('',#1880,#383);
#272=LINE('',#1884,#384);
#273=LINE('',#1887,#385);
#274=LINE('',#1888,#386);
#275=LINE('',#1893,#387);
#276=LINE('',#1895,#388);
#277=LINE('',#1896,#389);
#278=LINE('',#1900,#390);
#279=LINE('',#1903,#391);
#280=LINE('',#1904,#392);
#281=LINE('',#1908,#393);
#282=LINE('',#1911,#394);
#283=LINE('',#1912,#395);
#284=LINE('',#1916,#396);
#285=LINE('',#1919,#397);
#286=LINE('',#1920,#398);
#287=LINE('',#1925,#399);
#288=LINE('',#1927,#400);
#289=LINE('',#1928,#401);
#290=LINE('',#1932,#402);
#291=LINE('',#1935,#403);
#292=LINE('',#1936,#404);
#293=LINE('',#1940,#405);
#294=LINE('',#1943,#406);
#295=LINE('',#1944,#407);
#296=LINE('',#1948,#408);
#297=LINE('',#1951,#409);
#298=LINE('',#1952,#410);
#299=LINE('',#1957,#411);
#300=LINE('',#1960,#412);
#301=LINE('',#1963,#413);
#302=LINE('',#1964,#414);
#303=LINE('',#1968,#415);
#304=LINE('',#1971,#416);
#305=LINE('',#1972,#417);
#306=LINE('',#1976,#418);
#307=LINE('',#1979,#419);
#308=LINE('',#1980,#420);
#309=LINE('',#1984,#421);
#310=LINE('',#1986,#422);
#311=LINE('',#1988,#423);
#312=LINE('',#1990,#424);
#313=VECTOR('',#1317,1.7);
#314=VECTOR('',#1324,1.7);
#315=VECTOR('',#1331,1.7);
#316=VECTOR('',#1338,1.7);
#317=VECTOR('',#1345,10.);
#318=VECTOR('',#1348,10.);
#319=VECTOR('',#1351,10.);
#320=VECTOR('',#1352,10.);
#321=VECTOR('',#1353,10.);
#322=VECTOR('',#1356,10.);
#323=VECTOR('',#1359,10.);
#324=VECTOR('',#1362,10.);
#325=VECTOR('',#1365,10.);
#326=VECTOR('',#1366,10.);
#327=VECTOR('',#1367,10.);
#328=VECTOR('',#1368,10.);
#329=VECTOR('',#1371,10.);
#330=VECTOR('',#1374,10.);
#331=VECTOR('',#1377,10.);
#332=VECTOR('',#1380,10.);
#333=VECTOR('',#1383,10.);
#334=VECTOR('',#1386,10.);
#335=VECTOR('',#1389,10.);
#336=VECTOR('',#1392,10.);
#337=VECTOR('',#1395,10.);
#338=VECTOR('',#1398,10.);
#339=VECTOR('',#1401,10.);
#340=VECTOR('',#1404,10.);
#341=VECTOR('',#1407,10.);
#342=VECTOR('',#1410,10.);
#343=VECTOR('',#1413,10.);
#344=VECTOR('',#1416,10.);
#345=VECTOR('',#1417,10.);
#346=VECTOR('',#1420,10.);
#347=VECTOR('',#1423,10.);
#348=VECTOR('',#1426,10.);
#349=VECTOR('',#1433,10.);
#350=VECTOR('',#1434,10.);
#351=VECTOR('',#1437,10.);
#352=VECTOR('',#1438,10.);
#353=VECTOR('',#1443,10.);
#354=VECTOR('',#1448,10.);
#355=VECTOR('',#1451,10.);
#356=VECTOR('',#1452,10.);
#357=VECTOR('',#1453,10.);
#358=VECTOR('',#1456,10.);
#359=VECTOR('',#1457,10.);
#360=VECTOR('',#1460,10.);
#361=VECTOR('',#1461,10.);
#362=VECTOR('',#1464,10.);
#363=VECTOR('',#1467,10.);
#364=VECTOR('',#1468,10.);
#365=VECTOR('',#1469,10.);
#366=VECTOR('',#1474,10.);
#367=VECTOR('',#1477,10.);
#368=VECTOR('',#1478,10.);
#369=VECTOR('',#1483,10.);
#370=VECTOR('',#1486,10.);
#371=VECTOR('',#1487,10.);
#372=VECTOR('',#1492,10.);
#373=VECTOR('',#1495,10.);
#374=VECTOR('',#1496,10.);
#375=VECTOR('',#1503,10.);
#376=VECTOR('',#1504,10.);
#377=VECTOR('',#1505,10.);
#378=VECTOR('',#1510,10.);
#379=VECTOR('',#1513,10.);
#380=VECTOR('',#1514,10.);
#381=VECTOR('',#1519,10.);
#382=VECTOR('',#1522,10.);
#383=VECTOR('',#1523,10.);
#384=VECTOR('',#1528,10.);
#385=VECTOR('',#1531,10.);
#386=VECTOR('',#1532,10.);
#387=VECTOR('',#1539,10.);
#388=VECTOR('',#1540,10.);
#389=VECTOR('',#1541,10.);
#390=VECTOR('',#1546,10.);
#391=VECTOR('',#1549,10.);
#392=VECTOR('',#1550,10.);
#393=VECTOR('',#1555,10.);
#394=VECTOR('',#1558,10.);
#395=VECTOR('',#1559,10.);
#396=VECTOR('',#1564,10.);
#397=VECTOR('',#1567,10.);
#398=VECTOR('',#1568,10.);
#399=VECTOR('',#1575,10.);
#400=VECTOR('',#1576,10.);
#401=VECTOR('',#1577,10.);
#402=VECTOR('',#1582,10.);
#403=VECTOR('',#1585,10.);
#404=VECTOR('',#1586,10.);
#405=VECTOR('',#1591,10.);
#406=VECTOR('',#1594,10.);
#407=VECTOR('',#1595,10.);
#408=VECTOR('',#1600,10.);
#409=VECTOR('',#1603,10.);
#410=VECTOR('',#1604,10.);
#411=VECTOR('',#1611,10.);
#412=VECTOR('',#1614,10.);
#413=VECTOR('',#1617,10.);
#414=VECTOR('',#1618,10.);
#415=VECTOR('',#1623,10.);
#416=VECTOR('',#1626,10.);
#417=VECTOR('',#1627,10.);
#418=VECTOR('',#1632,10.);
#419=VECTOR('',#1635,10.);
#420=VECTOR('',#1636,10.);
#421=VECTOR('',#1641,10.);
#422=VECTOR('',#1644,10.);
#423=VECTOR('',#1647,10.);
#424=VECTOR('',#1650,10.);
#425=CIRCLE('',#1198,1.7);
#426=CIRCLE('',#1199,1.7);
#427=CIRCLE('',#1201,1.7);
#428=CIRCLE('',#1202,1.7);
#429=CIRCLE('',#1204,1.7);
#430=CIRCLE('',#1205,1.7);
#431=CIRCLE('',#1207,1.7);
#432=CIRCLE('',#1208,1.7);
#433=CIRCLE('',#1210,5.);
#434=CIRCLE('',#1211,5.);
#435=CIRCLE('',#1214,5.);
#436=CIRCLE('',#1215,5.);
#437=CIRCLE('',#1216,5.);
#438=CIRCLE('',#1217,0.5);
#439=CIRCLE('',#1218,0.499999999999989);
#440=CIRCLE('',#1219,0.499999999999998);
#441=CIRCLE('',#1220,0.500000000000007);
#442=CIRCLE('',#1221,0.499999999999998);
#443=CIRCLE('',#1222,0.499999999999998);
#444=CIRCLE('',#1223,0.500000000000003);
#445=CIRCLE('',#1224,0.499999999999998);
#446=CIRCLE('',#1225,0.499999999999998);
#447=CIRCLE('',#1226,0.500000000000007);
#448=CIRCLE('',#1227,0.500000000000003);
#449=CIRCLE('',#1228,0.500000000000007);
#450=CIRCLE('',#1229,0.499999999999998);
#451=CIRCLE('',#1230,0.499999999999989);
#452=CIRCLE('',#1231,0.500000000000003);
#453=CIRCLE('',#1232,0.500000000000007);
#454=CIRCLE('',#1233,1.01000000000001);
#455=CIRCLE('',#1234,1.01);
#456=CIRCLE('',#1235,1.01);
#457=CIRCLE('',#1236,1.01);
#458=CIRCLE('',#1238,5.);
#459=CIRCLE('',#1241,5.);
#460=CIRCLE('',#1243,5.);
#461=CIRCLE('',#1250,0.499999999999989);
#462=CIRCLE('',#1253,0.499999999999998);
#463=CIRCLE('',#1256,0.500000000000007);
#464=CIRCLE('',#1259,0.5);
#465=CIRCLE('',#1262,0.499999999999998);
#466=CIRCLE('',#1265,0.500000000000003);
#467=CIRCLE('',#1268,0.499999999999998);
#468=CIRCLE('',#1271,0.499999999999998);
#469=CIRCLE('',#1274,0.500000000000007);
#470=CIRCLE('',#1277,0.500000000000003);
#471=CIRCLE('',#1280,0.500000000000007);
#472=CIRCLE('',#1283,0.499999999999998);
#473=CIRCLE('',#1286,0.499999999999989);
#474=CIRCLE('',#1289,0.500000000000003);
#475=CIRCLE('',#1292,0.500000000000007);
#476=CIRCLE('',#1295,0.499999999999998);
#477=CIRCLE('',#1297,1.01000000000001);
#478=CIRCLE('',#1300,1.01);
#479=CIRCLE('',#1303,1.01);
#480=CIRCLE('',#1306,1.01);
#481=VERTEX_POINT('',#1655);
#482=VERTEX_POINT('',#1657);
#483=VERTEX_POINT('',#1661);
#484=VERTEX_POINT('',#1663);
#485=VERTEX_POINT('',#1667);
#486=VERTEX_POINT('',#1669);
#487=VERTEX_POINT('',#1673);
#488=VERTEX_POINT('',#1675);
#489=VERTEX_POINT('',#1679);
#490=VERTEX_POINT('',#1680);
#491=VERTEX_POINT('',#1682);
#492=VERTEX_POINT('',#1684);
#493=VERTEX_POINT('',#1688);
#494=VERTEX_POINT('',#1690);
#495=VERTEX_POINT('',#1694);
#496=VERTEX_POINT('',#1696);
#497=VERTEX_POINT('',#1698);
#498=VERTEX_POINT('',#1700);
#499=VERTEX_POINT('',#1702);
#500=VERTEX_POINT('',#1705);
#501=VERTEX_POINT('',#1706);
#502=VERTEX_POINT('',#1708);
#503=VERTEX_POINT('',#1710);
#504=VERTEX_POINT('',#1713);
#505=VERTEX_POINT('',#1714);
#506=VERTEX_POINT('',#1716);
#507=VERTEX_POINT('',#1718);
#508=VERTEX_POINT('',#1720);
#509=VERTEX_POINT('',#1722);
#510=VERTEX_POINT('',#1724);
#511=VERTEX_POINT('',#1726);
#512=VERTEX_POINT('',#1729);
#513=VERTEX_POINT('',#1730);
#514=VERTEX_POINT('',#1732);
#515=VERTEX_POINT('',#1734);
#516=VERTEX_POINT('',#1736);
#517=VERTEX_POINT('',#1738);
#518=VERTEX_POINT('',#1740);
#519=VERTEX_POINT('',#1742);
#520=VERTEX_POINT('',#1745);
#521=VERTEX_POINT('',#1746);
#522=VERTEX_POINT('',#1748);
#523=VERTEX_POINT('',#1750);
#524=VERTEX_POINT('',#1752);
#525=VERTEX_POINT('',#1754);
#526=VERTEX_POINT('',#1756);
#527=VERTEX_POINT('',#1758);
#528=VERTEX_POINT('',#1761);
#529=VERTEX_POINT('',#1762);
#530=VERTEX_POINT('',#1764);
#531=VERTEX_POINT('',#1766);
#532=VERTEX_POINT('',#1768);
#533=VERTEX_POINT('',#1770);
#534=VERTEX_POINT('',#1772);
#535=VERTEX_POINT('',#1774);
#536=VERTEX_POINT('',#1777);
#537=VERTEX_POINT('',#1778);
#538=VERTEX_POINT('',#1780);
#539=VERTEX_POINT('',#1782);
#540=VERTEX_POINT('',#1784);
#541=VERTEX_POINT('',#1786);
#542=VERTEX_POINT('',#1788);
#543=VERTEX_POINT('',#1790);
#544=VERTEX_POINT('',#1794);
#545=VERTEX_POINT('',#1795);
#546=VERTEX_POINT('',#1800);
#547=VERTEX_POINT('',#1804);
#548=VERTEX_POINT('',#1808);
#549=VERTEX_POINT('',#1812);
#550=VERTEX_POINT('',#1814);
#551=VERTEX_POINT('',#1818);
#552=VERTEX_POINT('',#1822);
#553=VERTEX_POINT('',#1828);
#554=VERTEX_POINT('',#1830);
#555=VERTEX_POINT('',#1834);
#556=VERTEX_POINT('',#1838);
#557=VERTEX_POINT('',#1842);
#558=VERTEX_POINT('',#1846);
#559=VERTEX_POINT('',#1850);
#560=VERTEX_POINT('',#1854);
#561=VERTEX_POINT('',#1860);
#562=VERTEX_POINT('',#1862);
#563=VERTEX_POINT('',#1866);
#564=VERTEX_POINT('',#1870);
#565=VERTEX_POINT('',#1874);
#566=VERTEX_POINT('',#1878);
#567=VERTEX_POINT('',#1882);
#568=VERTEX_POINT('',#1886);
#569=VERTEX_POINT('',#1892);
#570=VERTEX_POINT('',#1894);
#571=VERTEX_POINT('',#1898);
#572=VERTEX_POINT('',#1902);
#573=VERTEX_POINT('',#1906);
#574=VERTEX_POINT('',#1910);
#575=VERTEX_POINT('',#1914);
#576=VERTEX_POINT('',#1918);
#577=VERTEX_POINT('',#1924);
#578=VERTEX_POINT('',#1926);
#579=VERTEX_POINT('',#1930);
#580=VERTEX_POINT('',#1934);
#581=VERTEX_POINT('',#1938);
#582=VERTEX_POINT('',#1942);
#583=VERTEX_POINT('',#1946);
#584=VERTEX_POINT('',#1950);
#585=VERTEX_POINT('',#1956);
#586=VERTEX_POINT('',#1958);
#587=VERTEX_POINT('',#1962);
#588=VERTEX_POINT('',#1966);
#589=VERTEX_POINT('',#1970);
#590=VERTEX_POINT('',#1974);
#591=VERTEX_POINT('',#1978);
#592=VERTEX_POINT('',#1982);
#593=EDGE_CURVE('',#481,#481,#425,.T.);
#594=EDGE_CURVE('',#481,#482,#201,.T.);
#595=EDGE_CURVE('',#482,#482,#426,.T.);
#596=EDGE_CURVE('',#483,#483,#427,.T.);
#597=EDGE_CURVE('',#483,#484,#202,.T.);
#598=EDGE_CURVE('',#484,#484,#428,.T.);
#599=EDGE_CURVE('',#485,#485,#429,.T.);
#600=EDGE_CURVE('',#485,#486,#203,.T.);
#601=EDGE_CURVE('',#486,#486,#430,.T.);
#602=EDGE_CURVE('',#487,#487,#431,.T.);
#603=EDGE_CURVE('',#487,#488,#204,.T.);
#604=EDGE_CURVE('',#488,#488,#432,.T.);
#605=EDGE_CURVE('',#489,#490,#433,.T.);
#606=EDGE_CURVE('',#490,#491,#205,.T.);
#607=EDGE_CURVE('',#491,#492,#434,.T.);
#608=EDGE_CURVE('',#492,#489,#206,.T.);
#609=EDGE_CURVE('',#493,#492,#207,.T.);
#610=EDGE_CURVE('',#494,#493,#208,.T.);
#611=EDGE_CURVE('',#489,#494,#209,.T.);
#612=EDGE_CURVE('',#491,#495,#210,.T.);
#613=EDGE_CURVE('',#496,#495,#435,.T.);
#614=EDGE_CURVE('',#496,#497,#211,.T.);
#615=EDGE_CURVE('',#498,#497,#436,.T.);
#616=EDGE_CURVE('',#498,#499,#212,.T.);
#617=EDGE_CURVE('',#493,#499,#437,.T.);
#618=EDGE_CURVE('',#500,#501,#213,.T.);
#619=EDGE_CURVE('',#502,#500,#214,.T.);
#620=EDGE_CURVE('',#503,#502,#215,.T.);
#621=EDGE_CURVE('',#501,#503,#216,.T.);
#622=EDGE_CURVE('',#504,#505,#438,.T.);
#623=EDGE_CURVE('',#506,#504,#217,.T.);
#624=EDGE_CURVE('',#507,#506,#439,.T.);
#625=EDGE_CURVE('',#508,#507,#218,.T.);
#626=EDGE_CURVE('',#509,#508,#440,.T.);
#627=EDGE_CURVE('',#510,#509,#219,.T.);
#628=EDGE_CURVE('',#511,#510,#441,.T.);
#629=EDGE_CURVE('',#505,#511,#220,.T.);
#630=EDGE_CURVE('',#512,#513,#442,.T.);
#631=EDGE_CURVE('',#514,#512,#221,.T.);
#632=EDGE_CURVE('',#515,#514,#443,.T.);
#633=EDGE_CURVE('',#516,#515,#222,.T.);
#634=EDGE_CURVE('',#517,#516,#444,.T.);
#635=EDGE_CURVE('',#518,#517,#223,.T.);
#636=EDGE_CURVE('',#519,#518,#445,.T.);
#637=EDGE_CURVE('',#513,#519,#224,.T.);
#638=EDGE_CURVE('',#520,#521,#446,.T.);
#639=EDGE_CURVE('',#522,#520,#225,.T.);
#640=EDGE_CURVE('',#523,#522,#447,.T.);
#641=EDGE_CURVE('',#524,#523,#226,.T.);
#642=EDGE_CURVE('',#525,#524,#448,.T.);
#643=EDGE_CURVE('',#526,#525,#227,.T.);
#644=EDGE_CURVE('',#527,#526,#449,.T.);
#645=EDGE_CURVE('',#521,#527,#228,.T.);
#646=EDGE_CURVE('',#528,#529,#450,.T.);
#647=EDGE_CURVE('',#530,#528,#229,.T.);
#648=EDGE_CURVE('',#531,#530,#451,.T.);
#649=EDGE_CURVE('',#532,#531,#230,.T.);
#650=EDGE_CURVE('',#533,#532,#452,.T.);
#651=EDGE_CURVE('',#534,#533,#231,.T.);
#652=EDGE_CURVE('',#535,#534,#453,.T.);
#653=EDGE_CURVE('',#529,#535,#232,.T.);
#654=EDGE_CURVE('',#536,#537,#233,.T.);
#655=EDGE_CURVE('',#538,#536,#454,.T.);
#656=EDGE_CURVE('',#539,#538,#234,.T.);
#657=EDGE_CURVE('',#540,#539,#455,.T.);
#658=EDGE_CURVE('',#541,#540,#235,.T.);
#659=EDGE_CURVE('',#542,#541,#456,.T.);
#660=EDGE_CURVE('',#543,#542,#236,.T.);
#661=EDGE_CURVE('',#537,#543,#457,.T.);
#662=EDGE_CURVE('',#544,#545,#458,.T.);
#663=EDGE_CURVE('',#545,#496,#237,.T.);
#664=EDGE_CURVE('',#495,#544,#238,.T.);
#665=EDGE_CURVE('',#546,#545,#239,.T.);
#666=EDGE_CURVE('',#497,#546,#240,.T.);
#667=EDGE_CURVE('',#546,#547,#459,.T.);
#668=EDGE_CURVE('',#547,#498,#241,.T.);
#669=EDGE_CURVE('',#548,#494,#460,.T.);
#670=EDGE_CURVE('',#499,#548,#242,.T.);
#671=EDGE_CURVE('',#500,#549,#243,.T.);
#672=EDGE_CURVE('',#550,#549,#244,.T.);
#673=EDGE_CURVE('',#502,#550,#245,.T.);
#674=EDGE_CURVE('',#551,#550,#246,.T.);
#675=EDGE_CURVE('',#503,#551,#247,.T.);
#676=EDGE_CURVE('',#552,#551,#248,.T.);
#677=EDGE_CURVE('',#501,#552,#249,.T.);
#678=EDGE_CURVE('',#549,#552,#250,.T.);
#679=EDGE_CURVE('',#504,#553,#251,.T.);
#680=EDGE_CURVE('',#554,#553,#252,.T.);
#681=EDGE_CURVE('',#506,#554,#253,.T.);
#682=EDGE_CURVE('',#555,#554,#461,.T.);
#683=EDGE_CURVE('',#507,#555,#254,.T.);
#684=EDGE_CURVE('',#556,#555,#255,.T.);
#685=EDGE_CURVE('',#508,#556,#256,.T.);
#686=EDGE_CURVE('',#557,#556,#462,.T.);
#687=EDGE_CURVE('',#509,#557,#257,.T.);
#688=EDGE_CURVE('',#558,#557,#258,.T.);
#689=EDGE_CURVE('',#510,#558,#259,.T.);
#690=EDGE_CURVE('',#559,#558,#463,.T.);
#691=EDGE_CURVE('',#511,#559,#260,.T.);
#692=EDGE_CURVE('',#560,#559,#261,.T.);
#693=EDGE_CURVE('',#505,#560,#262,.T.);
#694=EDGE_CURVE('',#553,#560,#464,.T.);
#695=EDGE_CURVE('',#512,#561,#263,.T.);
#696=EDGE_CURVE('',#562,#561,#264,.T.);
#697=EDGE_CURVE('',#514,#562,#265,.T.);
#698=EDGE_CURVE('',#563,#562,#465,.T.);
#699=EDGE_CURVE('',#515,#563,#266,.T.);
#700=EDGE_CURVE('',#564,#563,#267,.T.);
#701=EDGE_CURVE('',#516,#564,#268,.T.);
#702=EDGE_CURVE('',#565,#564,#466,.T.);
#703=EDGE_CURVE('',#517,#565,#269,.T.);
#704=EDGE_CURVE('',#566,#565,#270,.T.);
#705=EDGE_CURVE('',#518,#566,#271,.T.);
#706=EDGE_CURVE('',#567,#566,#467,.T.);
#707=EDGE_CURVE('',#519,#567,#272,.T.);
#708=EDGE_CURVE('',#568,#567,#273,.T.);
#709=EDGE_CURVE('',#513,#568,#274,.T.);
#710=EDGE_CURVE('',#561,#568,#468,.T.);
#711=EDGE_CURVE('',#520,#569,#275,.T.);
#712=EDGE_CURVE('',#570,#569,#276,.T.);
#713=EDGE_CURVE('',#522,#570,#277,.T.);
#714=EDGE_CURVE('',#571,#570,#469,.T.);
#715=EDGE_CURVE('',#523,#571,#278,.T.);
#716=EDGE_CURVE('',#572,#571,#279,.T.);
#717=EDGE_CURVE('',#524,#572,#280,.T.);
#718=EDGE_CURVE('',#573,#572,#470,.T.);
#719=EDGE_CURVE('',#525,#573,#281,.T.);
#720=EDGE_CURVE('',#574,#573,#282,.T.);
#721=EDGE_CURVE('',#526,#574,#283,.T.);
#722=EDGE_CURVE('',#575,#574,#471,.T.);
#723=EDGE_CURVE('',#527,#575,#284,.T.);
#724=EDGE_CURVE('',#576,#575,#285,.T.);
#725=EDGE_CURVE('',#521,#576,#286,.T.);
#726=EDGE_CURVE('',#569,#576,#472,.T.);
#727=EDGE_CURVE('',#528,#577,#287,.T.);
#728=EDGE_CURVE('',#578,#577,#288,.T.);
#729=EDGE_CURVE('',#530,#578,#289,.T.);
#730=EDGE_CURVE('',#579,#578,#473,.T.);
#731=EDGE_CURVE('',#531,#579,#290,.T.);
#732=EDGE_CURVE('',#580,#579,#291,.T.);
#733=EDGE_CURVE('',#532,#580,#292,.T.);
#734=EDGE_CURVE('',#581,#580,#474,.T.);
#735=EDGE_CURVE('',#533,#581,#293,.T.);
#736=EDGE_CURVE('',#582,#581,#294,.T.);
#737=EDGE_CURVE('',#534,#582,#295,.T.);
#738=EDGE_CURVE('',#583,#582,#475,.T.);
#739=EDGE_CURVE('',#535,#583,#296,.T.);
#740=EDGE_CURVE('',#584,#583,#297,.T.);
#741=EDGE_CURVE('',#529,#584,#298,.T.);
#742=EDGE_CURVE('',#577,#584,#476,.T.);
#743=EDGE_CURVE('',#536,#585,#299,.T.);
#744=EDGE_CURVE('',#586,#585,#477,.T.);
#745=EDGE_CURVE('',#538,#586,#300,.T.);
#746=EDGE_CURVE('',#587,#586,#301,.T.);
#747=EDGE_CURVE('',#539,#587,#302,.T.);
#748=EDGE_CURVE('',#588,#587,#478,.T.);
#749=EDGE_CURVE('',#540,#588,#303,.T.);
#750=EDGE_CURVE('',#589,#588,#304,.T.);
#751=EDGE_CURVE('',#541,#589,#305,.T.);
#752=EDGE_CURVE('',#590,#589,#479,.T.);
#753=EDGE_CURVE('',#542,#590,#306,.T.);
#754=EDGE_CURVE('',#591,#590,#307,.T.);
#755=EDGE_CURVE('',#543,#591,#308,.T.);
#756=EDGE_CURVE('',#592,#591,#480,.T.);
#757=EDGE_CURVE('',#537,#592,#309,.T.);
#758=EDGE_CURVE('',#585,#592,#310,.T.);
#759=EDGE_CURVE('',#548,#547,#311,.T.);
#760=EDGE_CURVE('',#544,#490,#312,.T.);
#761=ORIENTED_EDGE('',*,*,#593,.F.);
#762=ORIENTED_EDGE('',*,*,#594,.T.);
#763=ORIENTED_EDGE('',*,*,#595,.F.);
#764=ORIENTED_EDGE('',*,*,#594,.F.);
#765=ORIENTED_EDGE('',*,*,#596,.F.);
#766=ORIENTED_EDGE('',*,*,#597,.T.);
#767=ORIENTED_EDGE('',*,*,#598,.F.);
#768=ORIENTED_EDGE('',*,*,#597,.F.);
#769=ORIENTED_EDGE('',*,*,#599,.F.);
#770=ORIENTED_EDGE('',*,*,#600,.T.);
#771=ORIENTED_EDGE('',*,*,#601,.F.);
#772=ORIENTED_EDGE('',*,*,#600,.F.);
#773=ORIENTED_EDGE('',*,*,#602,.F.);
#774=ORIENTED_EDGE('',*,*,#603,.T.);
#775=ORIENTED_EDGE('',*,*,#604,.F.);
#776=ORIENTED_EDGE('',*,*,#603,.F.);
#777=ORIENTED_EDGE('',*,*,#605,.T.);
#778=ORIENTED_EDGE('',*,*,#606,.T.);
#779=ORIENTED_EDGE('',*,*,#607,.T.);
#780=ORIENTED_EDGE('',*,*,#608,.T.);
#781=ORIENTED_EDGE('',*,*,#608,.F.);
#782=ORIENTED_EDGE('',*,*,#609,.F.);
#783=ORIENTED_EDGE('',*,*,#610,.F.);
#784=ORIENTED_EDGE('',*,*,#611,.F.);
#785=ORIENTED_EDGE('',*,*,#607,.F.);
#786=ORIENTED_EDGE('',*,*,#612,.T.);
#787=ORIENTED_EDGE('',*,*,#613,.F.);
#788=ORIENTED_EDGE('',*,*,#614,.T.);
#789=ORIENTED_EDGE('',*,*,#615,.F.);
#790=ORIENTED_EDGE('',*,*,#616,.T.);
#791=ORIENTED_EDGE('',*,*,#617,.F.);
#792=ORIENTED_EDGE('',*,*,#609,.T.);
#793=ORIENTED_EDGE('',*,*,#618,.F.);
#794=ORIENTED_EDGE('',*,*,#619,.F.);
#795=ORIENTED_EDGE('',*,*,#620,.F.);
#796=ORIENTED_EDGE('',*,*,#621,.F.);
#797=ORIENTED_EDGE('',*,*,#622,.F.);
#798=ORIENTED_EDGE('',*,*,#623,.F.);
#799=ORIENTED_EDGE('',*,*,#624,.F.);
#800=ORIENTED_EDGE('',*,*,#625,.F.);
#801=ORIENTED_EDGE('',*,*,#626,.F.);
#802=ORIENTED_EDGE('',*,*,#627,.F.);
#803=ORIENTED_EDGE('',*,*,#628,.F.);
#804=ORIENTED_EDGE('',*,*,#629,.F.);
#805=ORIENTED_EDGE('',*,*,#630,.F.);
#806=ORIENTED_EDGE('',*,*,#631,.F.);
#807=ORIENTED_EDGE('',*,*,#632,.F.);
#808=ORIENTED_EDGE('',*,*,#633,.F.);
#809=ORIENTED_EDGE('',*,*,#634,.F.);
#810=ORIENTED_EDGE('',*,*,#635,.F.);
#811=ORIENTED_EDGE('',*,*,#636,.F.);
#812=ORIENTED_EDGE('',*,*,#637,.F.);
#813=ORIENTED_EDGE('',*,*,#638,.F.);
#814=ORIENTED_EDGE('',*,*,#639,.F.);
#815=ORIENTED_EDGE('',*,*,#640,.F.);
#816=ORIENTED_EDGE('',*,*,#641,.F.);
#817=ORIENTED_EDGE('',*,*,#642,.F.);
#818=ORIENTED_EDGE('',*,*,#643,.F.);
#819=ORIENTED_EDGE('',*,*,#644,.F.);
#820=ORIENTED_EDGE('',*,*,#645,.F.);
#821=ORIENTED_EDGE('',*,*,#646,.F.);
#822=ORIENTED_EDGE('',*,*,#647,.F.);
#823=ORIENTED_EDGE('',*,*,#648,.F.);
#824=ORIENTED_EDGE('',*,*,#649,.F.);
#825=ORIENTED_EDGE('',*,*,#650,.F.);
#826=ORIENTED_EDGE('',*,*,#651,.F.);
#827=ORIENTED_EDGE('',*,*,#652,.F.);
#828=ORIENTED_EDGE('',*,*,#653,.F.);
#829=ORIENTED_EDGE('',*,*,#654,.F.);
#830=ORIENTED_EDGE('',*,*,#655,.F.);
#831=ORIENTED_EDGE('',*,*,#656,.F.);
#832=ORIENTED_EDGE('',*,*,#657,.F.);
#833=ORIENTED_EDGE('',*,*,#658,.F.);
#834=ORIENTED_EDGE('',*,*,#659,.F.);
#835=ORIENTED_EDGE('',*,*,#660,.F.);
#836=ORIENTED_EDGE('',*,*,#661,.F.);
#837=ORIENTED_EDGE('',*,*,#602,.T.);
#838=ORIENTED_EDGE('',*,*,#599,.T.);
#839=ORIENTED_EDGE('',*,*,#596,.T.);
#840=ORIENTED_EDGE('',*,*,#593,.T.);
#841=ORIENTED_EDGE('',*,*,#662,.T.);
#842=ORIENTED_EDGE('',*,*,#663,.T.);
#843=ORIENTED_EDGE('',*,*,#613,.T.);
#844=ORIENTED_EDGE('',*,*,#664,.T.);
#845=ORIENTED_EDGE('',*,*,#663,.F.);
#846=ORIENTED_EDGE('',*,*,#665,.F.);
#847=ORIENTED_EDGE('',*,*,#666,.F.);
#848=ORIENTED_EDGE('',*,*,#614,.F.);
#849=ORIENTED_EDGE('',*,*,#667,.T.);
#850=ORIENTED_EDGE('',*,*,#668,.T.);
#851=ORIENTED_EDGE('',*,*,#615,.T.);
#852=ORIENTED_EDGE('',*,*,#666,.T.);
#853=ORIENTED_EDGE('',*,*,#669,.T.);
#854=ORIENTED_EDGE('',*,*,#610,.T.);
#855=ORIENTED_EDGE('',*,*,#617,.T.);
#856=ORIENTED_EDGE('',*,*,#670,.T.);
#857=ORIENTED_EDGE('',*,*,#619,.T.);
#858=ORIENTED_EDGE('',*,*,#671,.T.);
#859=ORIENTED_EDGE('',*,*,#672,.F.);
#860=ORIENTED_EDGE('',*,*,#673,.F.);
#861=ORIENTED_EDGE('',*,*,#620,.T.);
#862=ORIENTED_EDGE('',*,*,#673,.T.);
#863=ORIENTED_EDGE('',*,*,#674,.F.);
#864=ORIENTED_EDGE('',*,*,#675,.F.);
#865=ORIENTED_EDGE('',*,*,#621,.T.);
#866=ORIENTED_EDGE('',*,*,#675,.T.);
#867=ORIENTED_EDGE('',*,*,#676,.F.);
#868=ORIENTED_EDGE('',*,*,#677,.F.);
#869=ORIENTED_EDGE('',*,*,#618,.T.);
#870=ORIENTED_EDGE('',*,*,#677,.T.);
#871=ORIENTED_EDGE('',*,*,#678,.F.);
#872=ORIENTED_EDGE('',*,*,#671,.F.);
#873=ORIENTED_EDGE('',*,*,#623,.T.);
#874=ORIENTED_EDGE('',*,*,#679,.T.);
#875=ORIENTED_EDGE('',*,*,#680,.F.);
#876=ORIENTED_EDGE('',*,*,#681,.F.);
#877=ORIENTED_EDGE('',*,*,#624,.T.);
#878=ORIENTED_EDGE('',*,*,#681,.T.);
#879=ORIENTED_EDGE('',*,*,#682,.F.);
#880=ORIENTED_EDGE('',*,*,#683,.F.);
#881=ORIENTED_EDGE('',*,*,#625,.T.);
#882=ORIENTED_EDGE('',*,*,#683,.T.);
#883=ORIENTED_EDGE('',*,*,#684,.F.);
#884=ORIENTED_EDGE('',*,*,#685,.F.);
#885=ORIENTED_EDGE('',*,*,#626,.T.);
#886=ORIENTED_EDGE('',*,*,#685,.T.);
#887=ORIENTED_EDGE('',*,*,#686,.F.);
#888=ORIENTED_EDGE('',*,*,#687,.F.);
#889=ORIENTED_EDGE('',*,*,#627,.T.);
#890=ORIENTED_EDGE('',*,*,#687,.T.);
#891=ORIENTED_EDGE('',*,*,#688,.F.);
#892=ORIENTED_EDGE('',*,*,#689,.F.);
#893=ORIENTED_EDGE('',*,*,#628,.T.);
#894=ORIENTED_EDGE('',*,*,#689,.T.);
#895=ORIENTED_EDGE('',*,*,#690,.F.);
#896=ORIENTED_EDGE('',*,*,#691,.F.);
#897=ORIENTED_EDGE('',*,*,#629,.T.);
#898=ORIENTED_EDGE('',*,*,#691,.T.);
#899=ORIENTED_EDGE('',*,*,#692,.F.);
#900=ORIENTED_EDGE('',*,*,#693,.F.);
#901=ORIENTED_EDGE('',*,*,#622,.T.);
#902=ORIENTED_EDGE('',*,*,#693,.T.);
#903=ORIENTED_EDGE('',*,*,#694,.F.);
#904=ORIENTED_EDGE('',*,*,#679,.F.);
#905=ORIENTED_EDGE('',*,*,#631,.T.);
#906=ORIENTED_EDGE('',*,*,#695,.T.);
#907=ORIENTED_EDGE('',*,*,#696,.F.);
#908=ORIENTED_EDGE('',*,*,#697,.F.);
#909=ORIENTED_EDGE('',*,*,#632,.T.);
#910=ORIENTED_EDGE('',*,*,#697,.T.);
#911=ORIENTED_EDGE('',*,*,#698,.F.);
#912=ORIENTED_EDGE('',*,*,#699,.F.);
#913=ORIENTED_EDGE('',*,*,#633,.T.);
#914=ORIENTED_EDGE('',*,*,#699,.T.);
#915=ORIENTED_EDGE('',*,*,#700,.F.);
#916=ORIENTED_EDGE('',*,*,#701,.F.);
#917=ORIENTED_EDGE('',*,*,#634,.T.);
#918=ORIENTED_EDGE('',*,*,#701,.T.);
#919=ORIENTED_EDGE('',*,*,#702,.F.);
#920=ORIENTED_EDGE('',*,*,#703,.F.);
#921=ORIENTED_EDGE('',*,*,#635,.T.);
#922=ORIENTED_EDGE('',*,*,#703,.T.);
#923=ORIENTED_EDGE('',*,*,#704,.F.);
#924=ORIENTED_EDGE('',*,*,#705,.F.);
#925=ORIENTED_EDGE('',*,*,#636,.T.);
#926=ORIENTED_EDGE('',*,*,#705,.T.);
#927=ORIENTED_EDGE('',*,*,#706,.F.);
#928=ORIENTED_EDGE('',*,*,#707,.F.);
#929=ORIENTED_EDGE('',*,*,#637,.T.);
#930=ORIENTED_EDGE('',*,*,#707,.T.);
#931=ORIENTED_EDGE('',*,*,#708,.F.);
#932=ORIENTED_EDGE('',*,*,#709,.F.);
#933=ORIENTED_EDGE('',*,*,#630,.T.);
#934=ORIENTED_EDGE('',*,*,#709,.T.);
#935=ORIENTED_EDGE('',*,*,#710,.F.);
#936=ORIENTED_EDGE('',*,*,#695,.F.);
#937=ORIENTED_EDGE('',*,*,#639,.T.);
#938=ORIENTED_EDGE('',*,*,#711,.T.);
#939=ORIENTED_EDGE('',*,*,#712,.F.);
#940=ORIENTED_EDGE('',*,*,#713,.F.);
#941=ORIENTED_EDGE('',*,*,#640,.T.);
#942=ORIENTED_EDGE('',*,*,#713,.T.);
#943=ORIENTED_EDGE('',*,*,#714,.F.);
#944=ORIENTED_EDGE('',*,*,#715,.F.);
#945=ORIENTED_EDGE('',*,*,#641,.T.);
#946=ORIENTED_EDGE('',*,*,#715,.T.);
#947=ORIENTED_EDGE('',*,*,#716,.F.);
#948=ORIENTED_EDGE('',*,*,#717,.F.);
#949=ORIENTED_EDGE('',*,*,#642,.T.);
#950=ORIENTED_EDGE('',*,*,#717,.T.);
#951=ORIENTED_EDGE('',*,*,#718,.F.);
#952=ORIENTED_EDGE('',*,*,#719,.F.);
#953=ORIENTED_EDGE('',*,*,#643,.T.);
#954=ORIENTED_EDGE('',*,*,#719,.T.);
#955=ORIENTED_EDGE('',*,*,#720,.F.);
#956=ORIENTED_EDGE('',*,*,#721,.F.);
#957=ORIENTED_EDGE('',*,*,#644,.T.);
#958=ORIENTED_EDGE('',*,*,#721,.T.);
#959=ORIENTED_EDGE('',*,*,#722,.F.);
#960=ORIENTED_EDGE('',*,*,#723,.F.);
#961=ORIENTED_EDGE('',*,*,#645,.T.);
#962=ORIENTED_EDGE('',*,*,#723,.T.);
#963=ORIENTED_EDGE('',*,*,#724,.F.);
#964=ORIENTED_EDGE('',*,*,#725,.F.);
#965=ORIENTED_EDGE('',*,*,#638,.T.);
#966=ORIENTED_EDGE('',*,*,#725,.T.);
#967=ORIENTED_EDGE('',*,*,#726,.F.);
#968=ORIENTED_EDGE('',*,*,#711,.F.);
#969=ORIENTED_EDGE('',*,*,#647,.T.);
#970=ORIENTED_EDGE('',*,*,#727,.T.);
#971=ORIENTED_EDGE('',*,*,#728,.F.);
#972=ORIENTED_EDGE('',*,*,#729,.F.);
#973=ORIENTED_EDGE('',*,*,#648,.T.);
#974=ORIENTED_EDGE('',*,*,#729,.T.);
#975=ORIENTED_EDGE('',*,*,#730,.F.);
#976=ORIENTED_EDGE('',*,*,#731,.F.);
#977=ORIENTED_EDGE('',*,*,#649,.T.);
#978=ORIENTED_EDGE('',*,*,#731,.T.);
#979=ORIENTED_EDGE('',*,*,#732,.F.);
#980=ORIENTED_EDGE('',*,*,#733,.F.);
#981=ORIENTED_EDGE('',*,*,#650,.T.);
#982=ORIENTED_EDGE('',*,*,#733,.T.);
#983=ORIENTED_EDGE('',*,*,#734,.F.);
#984=ORIENTED_EDGE('',*,*,#735,.F.);
#985=ORIENTED_EDGE('',*,*,#651,.T.);
#986=ORIENTED_EDGE('',*,*,#735,.T.);
#987=ORIENTED_EDGE('',*,*,#736,.F.);
#988=ORIENTED_EDGE('',*,*,#737,.F.);
#989=ORIENTED_EDGE('',*,*,#652,.T.);
#990=ORIENTED_EDGE('',*,*,#737,.T.);
#991=ORIENTED_EDGE('',*,*,#738,.F.);
#992=ORIENTED_EDGE('',*,*,#739,.F.);
#993=ORIENTED_EDGE('',*,*,#653,.T.);
#994=ORIENTED_EDGE('',*,*,#739,.T.);
#995=ORIENTED_EDGE('',*,*,#740,.F.);
#996=ORIENTED_EDGE('',*,*,#741,.F.);
#997=ORIENTED_EDGE('',*,*,#646,.T.);
#998=ORIENTED_EDGE('',*,*,#741,.T.);
#999=ORIENTED_EDGE('',*,*,#742,.F.);
#1000=ORIENTED_EDGE('',*,*,#727,.F.);
#1001=ORIENTED_EDGE('',*,*,#655,.T.);
#1002=ORIENTED_EDGE('',*,*,#743,.T.);
#1003=ORIENTED_EDGE('',*,*,#744,.F.);
#1004=ORIENTED_EDGE('',*,*,#745,.F.);
#1005=ORIENTED_EDGE('',*,*,#656,.T.);
#1006=ORIENTED_EDGE('',*,*,#745,.T.);
#1007=ORIENTED_EDGE('',*,*,#746,.F.);
#1008=ORIENTED_EDGE('',*,*,#747,.F.);
#1009=ORIENTED_EDGE('',*,*,#657,.T.);
#1010=ORIENTED_EDGE('',*,*,#747,.T.);
#1011=ORIENTED_EDGE('',*,*,#748,.F.);
#1012=ORIENTED_EDGE('',*,*,#749,.F.);
#1013=ORIENTED_EDGE('',*,*,#658,.T.);
#1014=ORIENTED_EDGE('',*,*,#749,.T.);
#1015=ORIENTED_EDGE('',*,*,#750,.F.);
#1016=ORIENTED_EDGE('',*,*,#751,.F.);
#1017=ORIENTED_EDGE('',*,*,#659,.T.);
#1018=ORIENTED_EDGE('',*,*,#751,.T.);
#1019=ORIENTED_EDGE('',*,*,#752,.F.);
#1020=ORIENTED_EDGE('',*,*,#753,.F.);
#1021=ORIENTED_EDGE('',*,*,#660,.T.);
#1022=ORIENTED_EDGE('',*,*,#753,.T.);
#1023=ORIENTED_EDGE('',*,*,#754,.F.);
#1024=ORIENTED_EDGE('',*,*,#755,.F.);
#1025=ORIENTED_EDGE('',*,*,#661,.T.);
#1026=ORIENTED_EDGE('',*,*,#755,.T.);
#1027=ORIENTED_EDGE('',*,*,#756,.F.);
#1028=ORIENTED_EDGE('',*,*,#757,.F.);
#1029=ORIENTED_EDGE('',*,*,#654,.T.);
#1030=ORIENTED_EDGE('',*,*,#757,.T.);
#1031=ORIENTED_EDGE('',*,*,#758,.F.);
#1032=ORIENTED_EDGE('',*,*,#743,.F.);
#1033=ORIENTED_EDGE('',*,*,#668,.F.);
#1034=ORIENTED_EDGE('',*,*,#759,.F.);
#1035=ORIENTED_EDGE('',*,*,#670,.F.);
#1036=ORIENTED_EDGE('',*,*,#616,.F.);
#1037=ORIENTED_EDGE('',*,*,#606,.F.);
#1038=ORIENTED_EDGE('',*,*,#760,.F.);
#1039=ORIENTED_EDGE('',*,*,#664,.F.);
#1040=ORIENTED_EDGE('',*,*,#612,.F.);
#1041=ORIENTED_EDGE('',*,*,#605,.F.);
#1042=ORIENTED_EDGE('',*,*,#611,.T.);
#1043=ORIENTED_EDGE('',*,*,#669,.F.);
#1044=ORIENTED_EDGE('',*,*,#759,.T.);
#1045=ORIENTED_EDGE('',*,*,#667,.F.);
#1046=ORIENTED_EDGE('',*,*,#665,.T.);
#1047=ORIENTED_EDGE('',*,*,#662,.F.);
#1048=ORIENTED_EDGE('',*,*,#760,.T.);
#1049=ORIENTED_EDGE('',*,*,#678,.T.);
#1050=ORIENTED_EDGE('',*,*,#676,.T.);
#1051=ORIENTED_EDGE('',*,*,#674,.T.);
#1052=ORIENTED_EDGE('',*,*,#672,.T.);
#1053=ORIENTED_EDGE('',*,*,#694,.T.);
#1054=ORIENTED_EDGE('',*,*,#692,.T.);
#1055=ORIENTED_EDGE('',*,*,#690,.T.);
#1056=ORIENTED_EDGE('',*,*,#688,.T.);
#1057=ORIENTED_EDGE('',*,*,#686,.T.);
#1058=ORIENTED_EDGE('',*,*,#684,.T.);
#1059=ORIENTED_EDGE('',*,*,#682,.T.);
#1060=ORIENTED_EDGE('',*,*,#680,.T.);
#1061=ORIENTED_EDGE('',*,*,#710,.T.);
#1062=ORIENTED_EDGE('',*,*,#708,.T.);
#1063=ORIENTED_EDGE('',*,*,#706,.T.);
#1064=ORIENTED_EDGE('',*,*,#704,.T.);
#1065=ORIENTED_EDGE('',*,*,#702,.T.);
#1066=ORIENTED_EDGE('',*,*,#700,.T.);
#1067=ORIENTED_EDGE('',*,*,#698,.T.);
#1068=ORIENTED_EDGE('',*,*,#696,.T.);
#1069=ORIENTED_EDGE('',*,*,#726,.T.);
#1070=ORIENTED_EDGE('',*,*,#724,.T.);
#1071=ORIENTED_EDGE('',*,*,#722,.T.);
#1072=ORIENTED_EDGE('',*,*,#720,.T.);
#1073=ORIENTED_EDGE('',*,*,#718,.T.);
#1074=ORIENTED_EDGE('',*,*,#716,.T.);
#1075=ORIENTED_EDGE('',*,*,#714,.T.);
#1076=ORIENTED_EDGE('',*,*,#712,.T.);
#1077=ORIENTED_EDGE('',*,*,#742,.T.);
#1078=ORIENTED_EDGE('',*,*,#740,.T.);
#1079=ORIENTED_EDGE('',*,*,#738,.T.);
#1080=ORIENTED_EDGE('',*,*,#736,.T.);
#1081=ORIENTED_EDGE('',*,*,#734,.T.);
#1082=ORIENTED_EDGE('',*,*,#732,.T.);
#1083=ORIENTED_EDGE('',*,*,#730,.T.);
#1084=ORIENTED_EDGE('',*,*,#728,.T.);
#1085=ORIENTED_EDGE('',*,*,#758,.T.);
#1086=ORIENTED_EDGE('',*,*,#756,.T.);
#1087=ORIENTED_EDGE('',*,*,#754,.T.);
#1088=ORIENTED_EDGE('',*,*,#752,.T.);
#1089=ORIENTED_EDGE('',*,*,#750,.T.);
#1090=ORIENTED_EDGE('',*,*,#748,.T.);
#1091=ORIENTED_EDGE('',*,*,#746,.T.);
#1092=ORIENTED_EDGE('',*,*,#744,.T.);
#1093=ORIENTED_EDGE('',*,*,#604,.T.);
#1094=ORIENTED_EDGE('',*,*,#601,.T.);
#1095=ORIENTED_EDGE('',*,*,#598,.T.);
#1096=ORIENTED_EDGE('',*,*,#595,.T.);
#1097=CYLINDRICAL_SURFACE('',#1197,1.7);
#1098=CYLINDRICAL_SURFACE('',#1200,1.7);
#1099=CYLINDRICAL_SURFACE('',#1203,1.7);
#1100=CYLINDRICAL_SURFACE('',#1206,1.7);
#1101=CYLINDRICAL_SURFACE('',#1209,5.);
#1102=CYLINDRICAL_SURFACE('',#1237,5.);
#1103=CYLINDRICAL_SURFACE('',#1240,5.);
#1104=CYLINDRICAL_SURFACE('',#1242,5.);
#1105=CYLINDRICAL_SURFACE('',#1249,0.499999999999989);
#1106=CYLINDRICAL_SURFACE('',#1252,0.499999999999998);
#1107=CYLINDRICAL_SURFACE('',#1255,0.500000000000007);
#1108=CYLINDRICAL_SURFACE('',#1258,0.5);
#1109=CYLINDRICAL_SURFACE('',#1261,0.499999999999998);
#1110=CYLINDRICAL_SURFACE('',#1264,0.500000000000003);
#1111=CYLINDRICAL_SURFACE('',#1267,0.499999999999998);
#1112=CYLINDRICAL_SURFACE('',#1270,0.499999999999998);
#1113=CYLINDRICAL_SURFACE('',#1273,0.500000000000007);
#1114=CYLINDRICAL_SURFACE('',#1276,0.500000000000003);
#1115=CYLINDRICAL_SURFACE('',#1279,0.500000000000007);
#1116=CYLINDRICAL_SURFACE('',#1282,0.499999999999998);
#1117=CYLINDRICAL_SURFACE('',#1285,0.499999999999989);
#1118=CYLINDRICAL_SURFACE('',#1288,0.500000000000003);
#1119=CYLINDRICAL_SURFACE('',#1291,0.500000000000007);
#1120=CYLINDRICAL_SURFACE('',#1294,0.499999999999998);
#1121=CYLINDRICAL_SURFACE('',#1296,1.01000000000001);
#1122=CYLINDRICAL_SURFACE('',#1299,1.01);
#1123=CYLINDRICAL_SURFACE('',#1302,1.01);
#1124=CYLINDRICAL_SURFACE('',#1305,1.01);
#1125=ADVANCED_FACE('',(#65),#1097,.F.);
#1126=ADVANCED_FACE('',(#66),#1098,.F.);
#1127=ADVANCED_FACE('',(#67),#1099,.F.);
#1128=ADVANCED_FACE('',(#68),#1100,.F.);
#1129=ADVANCED_FACE('',(#69),#1101,.T.);
#1130=ADVANCED_FACE('',(#70),#35,.T.);
#1131=ADVANCED_FACE('',(#71,#15,#16,#17,#18,#19,#20,#21,#22,#23,#24),#36,
 .F.);
#1132=ADVANCED_FACE('',(#72),#1102,.T.);
#1133=ADVANCED_FACE('',(#73),#37,.T.);
#1134=ADVANCED_FACE('',(#74),#1103,.T.);
#1135=ADVANCED_FACE('',(#75),#1104,.T.);
#1136=ADVANCED_FACE('',(#76),#38,.T.);
#1137=ADVANCED_FACE('',(#77),#39,.T.);
#1138=ADVANCED_FACE('',(#78),#40,.T.);
#1139=ADVANCED_FACE('',(#79),#41,.T.);
#1140=ADVANCED_FACE('',(#80),#42,.T.);
#1141=ADVANCED_FACE('',(#81),#1105,.F.);
#1142=ADVANCED_FACE('',(#82),#43,.T.);
#1143=ADVANCED_FACE('',(#83),#1106,.F.);
#1144=ADVANCED_FACE('',(#84),#44,.T.);
#1145=ADVANCED_FACE('',(#85),#1107,.F.);
#1146=ADVANCED_FACE('',(#86),#45,.T.);
#1147=ADVANCED_FACE('',(#87),#1108,.F.);
#1148=ADVANCED_FACE('',(#88),#46,.T.);
#1149=ADVANCED_FACE('',(#89),#1109,.F.);
#1150=ADVANCED_FACE('',(#90),#47,.T.);
#1151=ADVANCED_FACE('',(#91),#1110,.F.);
#1152=ADVANCED_FACE('',(#92),#48,.T.);
#1153=ADVANCED_FACE('',(#93),#1111,.F.);
#1154=ADVANCED_FACE('',(#94),#49,.T.);
#1155=ADVANCED_FACE('',(#95),#1112,.F.);
#1156=ADVANCED_FACE('',(#96),#50,.T.);
#1157=ADVANCED_FACE('',(#97),#1113,.F.);
#1158=ADVANCED_FACE('',(#98),#51,.T.);
#1159=ADVANCED_FACE('',(#99),#1114,.F.);
#1160=ADVANCED_FACE('',(#100),#52,.T.);
#1161=ADVANCED_FACE('',(#101),#1115,.F.);
#1162=ADVANCED_FACE('',(#102),#53,.T.);
#1163=ADVANCED_FACE('',(#103),#1116,.F.);
#1164=ADVANCED_FACE('',(#104),#54,.T.);
#1165=ADVANCED_FACE('',(#105),#1117,.F.);
#1166=ADVANCED_FACE('',(#106),#55,.T.);
#1167=ADVANCED_FACE('',(#107),#1118,.F.);
#1168=ADVANCED_FACE('',(#108),#56,.T.);
#1169=ADVANCED_FACE('',(#109),#1119,.F.);
#1170=ADVANCED_FACE('',(#110),#57,.T.);
#1171=ADVANCED_FACE('',(#111),#1120,.F.);
#1172=ADVANCED_FACE('',(#112),#1121,.F.);
#1173=ADVANCED_FACE('',(#113),#58,.T.);
#1174=ADVANCED_FACE('',(#114),#1122,.F.);
#1175=ADVANCED_FACE('',(#115),#59,.T.);
#1176=ADVANCED_FACE('',(#116),#1123,.F.);
#1177=ADVANCED_FACE('',(#117),#60,.T.);
#1178=ADVANCED_FACE('',(#118),#1124,.F.);
#1179=ADVANCED_FACE('',(#119),#61,.T.);
#1180=ADVANCED_FACE('',(#120),#62,.T.);
#1181=ADVANCED_FACE('',(#121),#63,.T.);
#1182=ADVANCED_FACE('',(#122,#25,#26,#27,#28,#29,#30,#31,#32,#33,#34),#64,
 .T.);
#1183=CLOSED_SHELL('',(#1125,#1126,#1127,#1128,#1129,#1130,#1131,#1132,
#1133,#1134,#1135,#1136,#1137,#1138,#1139,#1140,#1141,#1142,#1143,#1144,
#1145,#1146,#1147,#1148,#1149,#1150,#1151,#1152,#1153,#1154,#1155,#1156,
#1157,#1158,#1159,#1160,#1161,#1162,#1163,#1164,#1165,#1166,#1167,#1168,
#1169,#1170,#1171,#1172,#1173,#1174,#1175,#1176,#1177,#1178,#1179,#1180,
#1181,#1182));
#1184=DERIVED_UNIT_ELEMENT(#1186,1.);
#1185=DERIVED_UNIT_ELEMENT(#1997,-3.);
#1186=(
MASS_UNIT()
NAMED_UNIT(*)
SI_UNIT(.KILO.,.GRAM.)
);
#1187=DERIVED_UNIT((#1184,#1185));
#1188=MEASURE_REPRESENTATION_ITEM('density measure',
POSITIVE_RATIO_MEASURE(7850.),#1187);
#1189=PROPERTY_DEFINITION_REPRESENTATION(#1194,#1191);
#1190=PROPERTY_DEFINITION_REPRESENTATION(#1195,#1192);
#1191=REPRESENTATION('material name',(#1193),#1994);
#1192=REPRESENTATION('density',(#1188),#1994);
#1193=DESCRIPTIVE_REPRESENTATION_ITEM('Steel','Steel');
#1194=PROPERTY_DEFINITION('material property','material name',#2004);
#1195=PROPERTY_DEFINITION('material property','density of part',#2004);
#1196=AXIS2_PLACEMENT_3D('',#1653,#1311,#1312);
#1197=AXIS2_PLACEMENT_3D('',#1654,#1313,#1314);
#1198=AXIS2_PLACEMENT_3D('',#1656,#1315,#1316);
#1199=AXIS2_PLACEMENT_3D('',#1659,#1318,#1319);
#1200=AXIS2_PLACEMENT_3D('',#1660,#1320,#1321);
#1201=AXIS2_PLACEMENT_3D('',#1662,#1322,#1323);
#1202=AXIS2_PLACEMENT_3D('',#1665,#1325,#1326);
#1203=AXIS2_PLACEMENT_3D('',#1666,#1327,#1328);
#1204=AXIS2_PLACEMENT_3D('',#1668,#1329,#1330);
#1205=AXIS2_PLACEMENT_3D('',#1671,#1332,#1333);
#1206=AXIS2_PLACEMENT_3D('',#1672,#1334,#1335);
#1207=AXIS2_PLACEMENT_3D('',#1674,#1336,#1337);
#1208=AXIS2_PLACEMENT_3D('',#1677,#1339,#1340);
#1209=AXIS2_PLACEMENT_3D('',#1678,#1341,#1342);
#1210=AXIS2_PLACEMENT_3D('',#1681,#1343,#1344);
#1211=AXIS2_PLACEMENT_3D('',#1685,#1346,#1347);
#1212=AXIS2_PLACEMENT_3D('',#1687,#1349,#1350);
#1213=AXIS2_PLACEMENT_3D('',#1693,#1354,#1355);
#1214=AXIS2_PLACEMENT_3D('',#1697,#1357,#1358);
#1215=AXIS2_PLACEMENT_3D('',#1701,#1360,#1361);
#1216=AXIS2_PLACEMENT_3D('',#1704,#1363,#1364);
#1217=AXIS2_PLACEMENT_3D('',#1715,#1369,#1370);
#1218=AXIS2_PLACEMENT_3D('',#1719,#1372,#1373);
#1219=AXIS2_PLACEMENT_3D('',#1723,#1375,#1376);
#1220=AXIS2_PLACEMENT_3D('',#1727,#1378,#1379);
#1221=AXIS2_PLACEMENT_3D('',#1731,#1381,#1382);
#1222=AXIS2_PLACEMENT_3D('',#1735,#1384,#1385);
#1223=AXIS2_PLACEMENT_3D('',#1739,#1387,#1388);
#1224=AXIS2_PLACEMENT_3D('',#1743,#1390,#1391);
#1225=AXIS2_PLACEMENT_3D('',#1747,#1393,#1394);
#1226=AXIS2_PLACEMENT_3D('',#1751,#1396,#1397);
#1227=AXIS2_PLACEMENT_3D('',#1755,#1399,#1400);
#1228=AXIS2_PLACEMENT_3D('',#1759,#1402,#1403);
#1229=AXIS2_PLACEMENT_3D('',#1763,#1405,#1406);
#1230=AXIS2_PLACEMENT_3D('',#1767,#1408,#1409);
#1231=AXIS2_PLACEMENT_3D('',#1771,#1411,#1412);
#1232=AXIS2_PLACEMENT_3D('',#1775,#1414,#1415);
#1233=AXIS2_PLACEMENT_3D('',#1781,#1418,#1419);
#1234=AXIS2_PLACEMENT_3D('',#1785,#1421,#1422);
#1235=AXIS2_PLACEMENT_3D('',#1789,#1424,#1425);
#1236=AXIS2_PLACEMENT_3D('',#1792,#1427,#1428);
#1237=AXIS2_PLACEMENT_3D('',#1793,#1429,#1430);
#1238=AXIS2_PLACEMENT_3D('',#1796,#1431,#1432);
#1239=AXIS2_PLACEMENT_3D('',#1799,#1435,#1436);
#1240=AXIS2_PLACEMENT_3D('',#1803,#1439,#1440);
#1241=AXIS2_PLACEMENT_3D('',#1805,#1441,#1442);
#1242=AXIS2_PLACEMENT_3D('',#1807,#1444,#1445);
#1243=AXIS2_PLACEMENT_3D('',#1809,#1446,#1447);
#1244=AXIS2_PLACEMENT_3D('',#1811,#1449,#1450);
#1245=AXIS2_PLACEMENT_3D('',#1817,#1454,#1455);
#1246=AXIS2_PLACEMENT_3D('',#1821,#1458,#1459);
#1247=AXIS2_PLACEMENT_3D('',#1825,#1462,#1463);
#1248=AXIS2_PLACEMENT_3D('',#1827,#1465,#1466);
#1249=AXIS2_PLACEMENT_3D('',#1833,#1470,#1471);
#1250=AXIS2_PLACEMENT_3D('',#1835,#1472,#1473);
#1251=AXIS2_PLACEMENT_3D('',#1837,#1475,#1476);
#1252=AXIS2_PLACEMENT_3D('',#1841,#1479,#1480);
#1253=AXIS2_PLACEMENT_3D('',#1843,#1481,#1482);
#1254=AXIS2_PLACEMENT_3D('',#1845,#1484,#1485);
#1255=AXIS2_PLACEMENT_3D('',#1849,#1488,#1489);
#1256=AXIS2_PLACEMENT_3D('',#1851,#1490,#1491);
#1257=AXIS2_PLACEMENT_3D('',#1853,#1493,#1494);
#1258=AXIS2_PLACEMENT_3D('',#1857,#1497,#1498);
#1259=AXIS2_PLACEMENT_3D('',#1858,#1499,#1500);
#1260=AXIS2_PLACEMENT_3D('',#1859,#1501,#1502);
#1261=AXIS2_PLACEMENT_3D('',#1865,#1506,#1507);
#1262=AXIS2_PLACEMENT_3D('',#1867,#1508,#1509);
#1263=AXIS2_PLACEMENT_3D('',#1869,#1511,#1512);
#1264=AXIS2_PLACEMENT_3D('',#1873,#1515,#1516);
#1265=AXIS2_PLACEMENT_3D('',#1875,#1517,#1518);
#1266=AXIS2_PLACEMENT_3D('',#1877,#1520,#1521);
#1267=AXIS2_PLACEMENT_3D('',#1881,#1524,#1525);
#1268=AXIS2_PLACEMENT_3D('',#1883,#1526,#1527);
#1269=AXIS2_PLACEMENT_3D('',#1885,#1529,#1530);
#1270=AXIS2_PLACEMENT_3D('',#1889,#1533,#1534);
#1271=AXIS2_PLACEMENT_3D('',#1890,#1535,#1536);
#1272=AXIS2_PLACEMENT_3D('',#1891,#1537,#1538);
#1273=AXIS2_PLACEMENT_3D('',#1897,#1542,#1543);
#1274=AXIS2_PLACEMENT_3D('',#1899,#1544,#1545);
#1275=AXIS2_PLACEMENT_3D('',#1901,#1547,#1548);
#1276=AXIS2_PLACEMENT_3D('',#1905,#1551,#1552);
#1277=AXIS2_PLACEMENT_3D('',#1907,#1553,#1554);
#1278=AXIS2_PLACEMENT_3D('',#1909,#1556,#1557);
#1279=AXIS2_PLACEMENT_3D('',#1913,#1560,#1561);
#1280=AXIS2_PLACEMENT_3D('',#1915,#1562,#1563);
#1281=AXIS2_PLACEMENT_3D('',#1917,#1565,#1566);
#1282=AXIS2_PLACEMENT_3D('',#1921,#1569,#1570);
#1283=AXIS2_PLACEMENT_3D('',#1922,#1571,#1572);
#1284=AXIS2_PLACEMENT_3D('',#1923,#1573,#1574);
#1285=AXIS2_PLACEMENT_3D('',#1929,#1578,#1579);
#1286=AXIS2_PLACEMENT_3D('',#1931,#1580,#1581);
#1287=AXIS2_PLACEMENT_3D('',#1933,#1583,#1584);
#1288=AXIS2_PLACEMENT_3D('',#1937,#1587,#1588);
#1289=AXIS2_PLACEMENT_3D('',#1939,#1589,#1590);
#1290=AXIS2_PLACEMENT_3D('',#1941,#1592,#1593);
#1291=AXIS2_PLACEMENT_3D('',#1945,#1596,#1597);
#1292=AXIS2_PLACEMENT_3D('',#1947,#1598,#1599);
#1293=AXIS2_PLACEMENT_3D('',#1949,#1601,#1602);
#1294=AXIS2_PLACEMENT_3D('',#1953,#1605,#1606);
#1295=AXIS2_PLACEMENT_3D('',#1954,#1607,#1608);
#1296=AXIS2_PLACEMENT_3D('',#1955,#1609,#1610);
#1297=AXIS2_PLACEMENT_3D('',#1959,#1612,#1613);
#1298=AXIS2_PLACEMENT_3D('',#1961,#1615,#1616);
#1299=AXIS2_PLACEMENT_3D('',#1965,#1619,#1620);
#1300=AXIS2_PLACEMENT_3D('',#1967,#1621,#1622);
#1301=AXIS2_PLACEMENT_3D('',#1969,#1624,#1625);
#1302=AXIS2_PLACEMENT_3D('',#1973,#1628,#1629);
#1303=AXIS2_PLACEMENT_3D('',#1975,#1630,#1631);
#1304=AXIS2_PLACEMENT_3D('',#1977,#1633,#1634);
#1305=AXIS2_PLACEMENT_3D('',#1981,#1637,#1638);
#1306=AXIS2_PLACEMENT_3D('',#1983,#1639,#1640);
#1307=AXIS2_PLACEMENT_3D('',#1985,#1642,#1643);
#1308=AXIS2_PLACEMENT_3D('',#1987,#1645,#1646);
#1309=AXIS2_PLACEMENT_3D('',#1989,#1648,#1649);
#1310=AXIS2_PLACEMENT_3D('',#1991,#1651,#1652);
#1311=DIRECTION('axis',(0.,0.,1.));
#1312=DIRECTION('refdir',(1.,0.,0.));
#1313=DIRECTION('center_axis',(0.,0.,1.));
#1314=DIRECTION('ref_axis',(1.,0.,0.));
#1315=DIRECTION('center_axis',(0.,0.,1.));
#1316=DIRECTION('ref_axis',(1.,0.,0.));
#1317=DIRECTION('',(0.,0.,1.));
#1318=DIRECTION('center_axis',(0.,0.,-1.));
#1319=DIRECTION('ref_axis',(1.,0.,0.));
#1320=DIRECTION('center_axis',(0.,0.,1.));
#1321=DIRECTION('ref_axis',(1.,0.,0.));
#1322=DIRECTION('center_axis',(0.,0.,1.));
#1323=DIRECTION('ref_axis',(1.,0.,0.));
#1324=DIRECTION('',(0.,0.,1.));
#1325=DIRECTION('center_axis',(0.,0.,-1.));
#1326=DIRECTION('ref_axis',(1.,0.,0.));
#1327=DIRECTION('center_axis',(0.,0.,1.));
#1328=DIRECTION('ref_axis',(1.,0.,0.));
#1329=DIRECTION('center_axis',(0.,0.,1.));
#1330=DIRECTION('ref_axis',(1.,0.,0.));
#1331=DIRECTION('',(0.,0.,1.));
#1332=DIRECTION('center_axis',(0.,0.,-1.));
#1333=DIRECTION('ref_axis',(1.,0.,0.));
#1334=DIRECTION('center_axis',(0.,0.,1.));
#1335=DIRECTION('ref_axis',(1.,0.,0.));
#1336=DIRECTION('center_axis',(0.,0.,1.));
#1337=DIRECTION('ref_axis',(1.,0.,0.));
#1338=DIRECTION('',(0.,0.,1.));
#1339=DIRECTION('center_axis',(0.,0.,-1.));
#1340=DIRECTION('ref_axis',(1.,0.,0.));
#1341=DIRECTION('center_axis',(0.,0.,1.));
#1342=DIRECTION('ref_axis',(-0.707106781186547,0.707106781186547,0.));
#1343=DIRECTION('center_axis',(0.,0.,-1.));
#1344=DIRECTION('ref_axis',(-0.707106781186547,0.707106781186547,0.));
#1345=DIRECTION('',(0.,0.,-1.));
#1346=DIRECTION('center_axis',(0.,0.,1.));
#1347=DIRECTION('ref_axis',(-0.707106781186547,0.707106781186547,0.));
#1348=DIRECTION('',(0.,0.,1.));
#1349=DIRECTION('center_axis',(-1.,1.14745787488988E-16,0.));
#1350=DIRECTION('ref_axis',(-1.14745787488988E-16,-1.,0.));
#1351=DIRECTION('',(1.14745787488988E-16,1.,0.));
#1352=DIRECTION('',(0.,0.,-1.));
#1353=DIRECTION('',(-1.14745787488988E-16,-1.,0.));
#1354=DIRECTION('center_axis',(0.,0.,1.));
#1355=DIRECTION('ref_axis',(1.,0.,0.));
#1356=DIRECTION('',(1.,0.,0.));
#1357=DIRECTION('center_axis',(0.,0.,1.));
#1358=DIRECTION('ref_axis',(0.707106781186547,0.707106781186548,0.));
#1359=DIRECTION('',(1.14745787488988E-16,-1.,0.));
#1360=DIRECTION('center_axis',(0.,0.,1.));
#1361=DIRECTION('ref_axis',(0.707106781186547,-0.707106781186547,0.));
#1362=DIRECTION('',(-1.,0.,0.));
#1363=DIRECTION('center_axis',(0.,0.,1.));
#1364=DIRECTION('ref_axis',(-0.707106781186547,-0.707106781186548,0.));
#1365=DIRECTION('',(-1.80524069044741E-16,-1.,0.));
#1366=DIRECTION('',(1.,0.,0.));
#1367=DIRECTION('',(0.,1.,0.));
#1368=DIRECTION('',(-1.,0.,0.));
#1369=DIRECTION('center_axis',(0.,0.,-1.));
#1370=DIRECTION('ref_axis',(0.,1.,0.));
#1371=DIRECTION('',(0.,1.,0.));
#1372=DIRECTION('center_axis',(0.,0.,-1.));
#1373=DIRECTION('ref_axis',(-1.,0.,0.));
#1374=DIRECTION('',(-1.,0.,0.));
#1375=DIRECTION('center_axis',(0.,0.,-1.));
#1376=DIRECTION('ref_axis',(0.,-1.,0.));
#1377=DIRECTION('',(0.,-1.,0.));
#1378=DIRECTION('center_axis',(0.,0.,-1.));
#1379=DIRECTION('ref_axis',(1.,0.,0.));
#1380=DIRECTION('',(1.,0.,0.));
#1381=DIRECTION('center_axis',(0.,0.,-1.));
#1382=DIRECTION('ref_axis',(0.,1.,0.));
#1383=DIRECTION('',(0.,1.,0.));
#1384=DIRECTION('center_axis',(0.,0.,-1.));
#1385=DIRECTION('ref_axis',(-1.,0.,0.));
#1386=DIRECTION('',(-1.,0.,0.));
#1387=DIRECTION('center_axis',(0.,0.,-1.));
#1388=DIRECTION('ref_axis',(0.,-1.,0.));
#1389=DIRECTION('',(0.,-1.,0.));
#1390=DIRECTION('center_axis',(0.,0.,-1.));
#1391=DIRECTION('ref_axis',(1.,0.,0.));
#1392=DIRECTION('',(1.,0.,0.));
#1393=DIRECTION('center_axis',(0.,0.,-1.));
#1394=DIRECTION('ref_axis',(0.,1.,0.));
#1395=DIRECTION('',(0.,1.,0.));
#1396=DIRECTION('center_axis',(0.,0.,-1.));
#1397=DIRECTION('ref_axis',(-1.,0.,0.));
#1398=DIRECTION('',(-1.,0.,0.));
#1399=DIRECTION('center_axis',(0.,0.,-1.));
#1400=DIRECTION('ref_axis',(3.55271367880048E-14,-1.,0.));
#1401=DIRECTION('',(0.,-1.,0.));
#1402=DIRECTION('center_axis',(0.,0.,-1.));
#1403=DIRECTION('ref_axis',(1.,0.,0.));
#1404=DIRECTION('',(1.,0.,0.));
#1405=DIRECTION('center_axis',(0.,0.,-1.));
#1406=DIRECTION('ref_axis',(0.,1.,0.));
#1407=DIRECTION('',(0.,1.,0.));
#1408=DIRECTION('center_axis',(0.,0.,-1.));
#1409=DIRECTION('ref_axis',(-1.,0.,0.));
#1410=DIRECTION('',(-1.,0.,0.));
#1411=DIRECTION('center_axis',(0.,0.,-1.));
#1412=DIRECTION('ref_axis',(0.,-1.,0.));
#1413=DIRECTION('',(0.,-1.,0.));
#1414=DIRECTION('center_axis',(0.,0.,-1.));
#1415=DIRECTION('ref_axis',(1.,0.,0.));
#1416=DIRECTION('',(1.,0.,0.));
#1417=DIRECTION('',(1.,-4.44089209850063E-16,0.));
#1418=DIRECTION('center_axis',(0.,0.,-1.));
#1419=DIRECTION('ref_axis',(-4.39692286980258E-15,1.,0.));
#1420=DIRECTION('',(0.,1.,0.));
#1421=DIRECTION('center_axis',(0.,0.,-1.));
#1422=DIRECTION('ref_axis',(-1.,2.19846143490131E-15,0.));
#1423=DIRECTION('',(-1.,-2.4980018054066E-16,0.));
#1424=DIRECTION('center_axis',(0.,0.,-1.));
#1425=DIRECTION('ref_axis',(0.,-1.,0.));
#1426=DIRECTION('',(0.,-1.,0.));
#1427=DIRECTION('center_axis',(0.,0.,-1.));
#1428=DIRECTION('ref_axis',(1.,0.,0.));
#1429=DIRECTION('center_axis',(0.,0.,1.));
#1430=DIRECTION('ref_axis',(0.707106781186547,0.707106781186548,0.));
#1431=DIRECTION('center_axis',(0.,0.,-1.));
#1432=DIRECTION('ref_axis',(0.707106781186547,0.707106781186548,0.));
#1433=DIRECTION('',(0.,0.,-1.));
#1434=DIRECTION('',(0.,0.,1.));
#1435=DIRECTION('center_axis',(1.,1.14745787488988E-16,0.));
#1436=DIRECTION('ref_axis',(-1.14745787488988E-16,1.,0.));
#1437=DIRECTION('',(-1.14745787488988E-16,1.,0.));
#1438=DIRECTION('',(0.,0.,1.));
#1439=DIRECTION('center_axis',(0.,0.,1.));
#1440=DIRECTION('ref_axis',(0.707106781186547,-0.707106781186547,0.));
#1441=DIRECTION('center_axis',(0.,0.,-1.));
#1442=DIRECTION('ref_axis',(0.707106781186547,-0.707106781186547,0.));
#1443=DIRECTION('',(0.,0.,-1.));
#1444=DIRECTION('center_axis',(0.,0.,1.));
#1445=DIRECTION('ref_axis',(-0.707106781186547,-0.707106781186548,0.));
#1446=DIRECTION('center_axis',(0.,0.,-1.));
#1447=DIRECTION('ref_axis',(-0.707106781186547,-0.707106781186548,0.));
#1448=DIRECTION('',(0.,0.,1.));
#1449=DIRECTION('center_axis',(0.,-1.,0.));
#1450=DIRECTION('ref_axis',(1.,0.,0.));
#1451=DIRECTION('',(0.,0.,1.));
#1452=DIRECTION('',(1.,0.,0.));
#1453=DIRECTION('',(0.,0.,1.));
#1454=DIRECTION('center_axis',(1.,0.,0.));
#1455=DIRECTION('ref_axis',(0.,1.,0.));
#1456=DIRECTION('',(0.,1.,0.));
#1457=DIRECTION('',(0.,0.,1.));
#1458=DIRECTION('center_axis',(0.,1.,0.));
#1459=DIRECTION('ref_axis',(-1.,0.,0.));
#1460=DIRECTION('',(-1.,0.,0.));
#1461=DIRECTION('',(0.,0.,1.));
#1462=DIRECTION('center_axis',(-1.,1.80524069044741E-16,0.));
#1463=DIRECTION('ref_axis',(-1.80524069044741E-16,-1.,0.));
#1464=DIRECTION('',(-1.80524069044741E-16,-1.,0.));
#1465=DIRECTION('center_axis',(1.,0.,0.));
#1466=DIRECTION('ref_axis',(0.,1.,0.));
#1467=DIRECTION('',(0.,0.,1.));
#1468=DIRECTION('',(0.,1.,0.));
#1469=DIRECTION('',(0.,0.,1.));
#1470=DIRECTION('center_axis',(0.,0.,1.));
#1471=DIRECTION('ref_axis',(-1.,0.,0.));
#1472=DIRECTION('center_axis',(0.,0.,-1.));
#1473=DIRECTION('ref_axis',(-1.,0.,0.));
#1474=DIRECTION('',(0.,0.,1.));
#1475=DIRECTION('center_axis',(0.,1.,0.));
#1476=DIRECTION('ref_axis',(-1.,0.,0.));
#1477=DIRECTION('',(-1.,0.,0.));
#1478=DIRECTION('',(0.,0.,1.));
#1479=DIRECTION('center_axis',(0.,0.,1.));
#1480=DIRECTION('ref_axis',(0.,-1.,0.));
#1481=DIRECTION('center_axis',(0.,0.,-1.));
#1482=DIRECTION('ref_axis',(0.,-1.,0.));
#1483=DIRECTION('',(0.,0.,1.));
#1484=DIRECTION('center_axis',(-1.,0.,0.));
#1485=DIRECTION('ref_axis',(0.,-1.,0.));
#1486=DIRECTION('',(0.,-1.,0.));
#1487=DIRECTION('',(0.,0.,1.));
#1488=DIRECTION('center_axis',(0.,0.,1.));
#1489=DIRECTION('ref_axis',(1.,0.,0.));
#1490=DIRECTION('center_axis',(0.,0.,-1.));
#1491=DIRECTION('ref_axis',(1.,0.,0.));
#1492=DIRECTION('',(0.,0.,1.));
#1493=DIRECTION('center_axis',(0.,-1.,0.));
#1494=DIRECTION('ref_axis',(1.,0.,0.));
#1495=DIRECTION('',(1.,0.,0.));
#1496=DIRECTION('',(0.,0.,1.));
#1497=DIRECTION('center_axis',(0.,0.,1.));
#1498=DIRECTION('ref_axis',(0.,1.,0.));
#1499=DIRECTION('center_axis',(0.,0.,-1.));
#1500=DIRECTION('ref_axis',(0.,1.,0.));
#1501=DIRECTION('center_axis',(1.,0.,0.));
#1502=DIRECTION('ref_axis',(0.,1.,0.));
#1503=DIRECTION('',(0.,0.,1.));
#1504=DIRECTION('',(0.,1.,0.));
#1505=DIRECTION('',(0.,0.,1.));
#1506=DIRECTION('center_axis',(0.,0.,1.));
#1507=DIRECTION('ref_axis',(-1.,0.,0.));
#1508=DIRECTION('center_axis',(0.,0.,-1.));
#1509=DIRECTION('ref_axis',(-1.,0.,0.));
#1510=DIRECTION('',(0.,0.,1.));
#1511=DIRECTION('center_axis',(0.,1.,0.));
#1512=DIRECTION('ref_axis',(-1.,0.,0.));
#1513=DIRECTION('',(-1.,0.,0.));
#1514=DIRECTION('',(0.,0.,1.));
#1515=DIRECTION('center_axis',(0.,0.,1.));
#1516=DIRECTION('ref_axis',(0.,-1.,0.));
#1517=DIRECTION('center_axis',(0.,0.,-1.));
#1518=DIRECTION('ref_axis',(0.,-1.,0.));
#1519=DIRECTION('',(0.,0.,1.));
#1520=DIRECTION('center_axis',(-1.,0.,0.));
#1521=DIRECTION('ref_axis',(0.,-1.,0.));
#1522=DIRECTION('',(0.,-1.,0.));
#1523=DIRECTION('',(0.,0.,1.));
#1524=DIRECTION('center_axis',(0.,0.,1.));
#1525=DIRECTION('ref_axis',(1.,0.,0.));
#1526=DIRECTION('center_axis',(0.,0.,-1.));
#1527=DIRECTION('ref_axis',(1.,0.,0.));
#1528=DIRECTION('',(0.,0.,1.));
#1529=DIRECTION('center_axis',(0.,-1.,0.));
#1530=DIRECTION('ref_axis',(1.,0.,0.));
#1531=DIRECTION('',(1.,0.,0.));
#1532=DIRECTION('',(0.,0.,1.));
#1533=DIRECTION('center_axis',(0.,0.,1.));
#1534=DIRECTION('ref_axis',(0.,1.,0.));
#1535=DIRECTION('center_axis',(0.,0.,-1.));
#1536=DIRECTION('ref_axis',(0.,1.,0.));
#1537=DIRECTION('center_axis',(1.,0.,0.));
#1538=DIRECTION('ref_axis',(0.,1.,0.));
#1539=DIRECTION('',(0.,0.,1.));
#1540=DIRECTION('',(0.,1.,0.));
#1541=DIRECTION('',(0.,0.,1.));
#1542=DIRECTION('center_axis',(0.,0.,1.));
#1543=DIRECTION('ref_axis',(-1.,0.,0.));
#1544=DIRECTION('center_axis',(0.,0.,-1.));
#1545=DIRECTION('ref_axis',(-1.,0.,0.));
#1546=DIRECTION('',(0.,0.,1.));
#1547=DIRECTION('center_axis',(0.,1.,0.));
#1548=DIRECTION('ref_axis',(-1.,0.,0.));
#1549=DIRECTION('',(-1.,0.,0.));
#1550=DIRECTION('',(0.,0.,1.));
#1551=DIRECTION('center_axis',(0.,0.,1.));
#1552=DIRECTION('ref_axis',(3.55271367880048E-14,-1.,0.));
#1553=DIRECTION('center_axis',(0.,0.,-1.));
#1554=DIRECTION('ref_axis',(3.55271367880048E-14,-1.,0.));
#1555=DIRECTION('',(0.,0.,1.));
#1556=DIRECTION('center_axis',(-1.,0.,0.));
#1557=DIRECTION('ref_axis',(0.,-1.,0.));
#1558=DIRECTION('',(0.,-1.,0.));
#1559=DIRECTION('',(0.,0.,1.));
#1560=DIRECTION('center_axis',(0.,0.,1.));
#1561=DIRECTION('ref_axis',(1.,0.,0.));
#1562=DIRECTION('center_axis',(0.,0.,-1.));
#1563=DIRECTION('ref_axis',(1.,0.,0.));
#1564=DIRECTION('',(0.,0.,1.));
#1565=DIRECTION('center_axis',(0.,-1.,0.));
#1566=DIRECTION('ref_axis',(1.,0.,0.));
#1567=DIRECTION('',(1.,0.,0.));
#1568=DIRECTION('',(0.,0.,1.));
#1569=DIRECTION('center_axis',(0.,0.,1.));
#1570=DIRECTION('ref_axis',(0.,1.,0.));
#1571=DIRECTION('center_axis',(0.,0.,-1.));
#1572=DIRECTION('ref_axis',(0.,1.,0.));
#1573=DIRECTION('center_axis',(1.,0.,0.));
#1574=DIRECTION('ref_axis',(0.,1.,0.));
#1575=DIRECTION('',(0.,0.,1.));
#1576=DIRECTION('',(0.,1.,0.));
#1577=DIRECTION('',(0.,0.,1.));
#1578=DIRECTION('center_axis',(0.,0.,1.));
#1579=DIRECTION('ref_axis',(-1.,0.,0.));
#1580=DIRECTION('center_axis',(0.,0.,-1.));
#1581=DIRECTION('ref_axis',(-1.,0.,0.));
#1582=DIRECTION('',(0.,0.,1.));
#1583=DIRECTION('center_axis',(0.,1.,0.));
#1584=DIRECTION('ref_axis',(-1.,0.,0.));
#1585=DIRECTION('',(-1.,0.,0.));
#1586=DIRECTION('',(0.,0.,1.));
#1587=DIRECTION('center_axis',(0.,0.,1.));
#1588=DIRECTION('ref_axis',(0.,-1.,0.));
#1589=DIRECTION('center_axis',(0.,0.,-1.));
#1590=DIRECTION('ref_axis',(0.,-1.,0.));
#1591=DIRECTION('',(0.,0.,1.));
#1592=DIRECTION('center_axis',(-1.,0.,0.));
#1593=DIRECTION('ref_axis',(0.,-1.,0.));
#1594=DIRECTION('',(0.,-1.,0.));
#1595=DIRECTION('',(0.,0.,1.));
#1596=DIRECTION('center_axis',(0.,0.,1.));
#1597=DIRECTION('ref_axis',(1.,0.,0.));
#1598=DIRECTION('center_axis',(0.,0.,-1.));
#1599=DIRECTION('ref_axis',(1.,0.,0.));
#1600=DIRECTION('',(0.,0.,1.));
#1601=DIRECTION('center_axis',(0.,-1.,0.));
#1602=DIRECTION('ref_axis',(1.,0.,0.));
#1603=DIRECTION('',(1.,0.,0.));
#1604=DIRECTION('',(0.,0.,1.));
#1605=DIRECTION('center_axis',(0.,0.,1.));
#1606=DIRECTION('ref_axis',(0.,1.,0.));
#1607=DIRECTION('center_axis',(0.,0.,-1.));
#1608=DIRECTION('ref_axis',(0.,1.,0.));
#1609=DIRECTION('center_axis',(0.,0.,1.));
#1610=DIRECTION('ref_axis',(-4.39692286980258E-15,1.,0.));
#1611=DIRECTION('',(0.,0.,1.));
#1612=DIRECTION('center_axis',(0.,0.,-1.));
#1613=DIRECTION('ref_axis',(-4.39692286980258E-15,1.,0.));
#1614=DIRECTION('',(0.,0.,1.));
#1615=DIRECTION('center_axis',(1.,0.,0.));
#1616=DIRECTION('ref_axis',(0.,1.,0.));
#1617=DIRECTION('',(0.,1.,0.));
#1618=DIRECTION('',(0.,0.,1.));
#1619=DIRECTION('center_axis',(0.,0.,1.));
#1620=DIRECTION('ref_axis',(-1.,2.19846143490131E-15,0.));
#1621=DIRECTION('center_axis',(0.,0.,-1.));
#1622=DIRECTION('ref_axis',(-1.,2.19846143490131E-15,0.));
#1623=DIRECTION('',(0.,0.,1.));
#1624=DIRECTION('center_axis',(-2.4980018054066E-16,1.,0.));
#1625=DIRECTION('ref_axis',(-1.,-2.4980018054066E-16,0.));
#1626=DIRECTION('',(-1.,-2.4980018054066E-16,0.));
#1627=DIRECTION('',(0.,0.,1.));
#1628=DIRECTION('center_axis',(0.,0.,1.));
#1629=DIRECTION('ref_axis',(0.,-1.,0.));
#1630=DIRECTION('center_axis',(0.,0.,-1.));
#1631=DIRECTION('ref_axis',(0.,-1.,0.));
#1632=DIRECTION('',(0.,0.,1.));
#1633=DIRECTION('center_axis',(-1.,0.,0.));
#1634=DIRECTION('ref_axis',(0.,-1.,0.));
#1635=DIRECTION('',(0.,-1.,0.));
#1636=DIRECTION('',(0.,0.,1.));
#1637=DIRECTION('center_axis',(0.,0.,1.));
#1638=DIRECTION('ref_axis',(1.,0.,0.));
#1639=DIRECTION('center_axis',(0.,0.,-1.));
#1640=DIRECTION('ref_axis',(1.,0.,0.));
#1641=DIRECTION('',(0.,0.,1.));
#1642=DIRECTION('center_axis',(-4.44089209850063E-16,-1.,0.));
#1643=DIRECTION('ref_axis',(1.,-4.44089209850063E-16,0.));
#1644=DIRECTION('',(1.,-4.44089209850063E-16,0.));
#1645=DIRECTION('center_axis',(0.,-1.,0.));
#1646=DIRECTION('ref_axis',(1.,0.,0.));
#1647=DIRECTION('',(1.,0.,0.));
#1648=DIRECTION('center_axis',(0.,1.,0.));
#1649=DIRECTION('ref_axis',(-1.,0.,0.));
#1650=DIRECTION('',(-1.,0.,0.));
#1651=DIRECTION('center_axis',(0.,0.,1.));
#1652=DIRECTION('ref_axis',(1.,0.,0.));
#1653=CARTESIAN_POINT('',(0.,0.,0.));
#1654=CARTESIAN_POINT('Origin',(37.7660753110197,-32.4509452118316,0.));
#1655=CARTESIAN_POINT('',(36.0660753110197,-32.4509452118316,19.6));
#1656=CARTESIAN_POINT('Origin',(37.7660753110197,-32.4509452118316,19.6));
#1657=CARTESIAN_POINT('',(36.0660753110197,-32.4509452118316,22.6));
#1658=CARTESIAN_POINT('',(36.0660753110197,-32.4509452118316,0.));
#1659=CARTESIAN_POINT('Origin',(37.7660753110197,-32.4509452118316,22.6));
#1660=CARTESIAN_POINT('Origin',(37.3597593705505,32.4896720754926,0.));
#1661=CARTESIAN_POINT('',(35.6597593705505,32.4896720754926,19.6));
#1662=CARTESIAN_POINT('Origin',(37.3597593705505,32.4896720754926,19.6));
#1663=CARTESIAN_POINT('',(35.6597593705505,32.4896720754926,22.6));
#1664=CARTESIAN_POINT('',(35.6597593705505,32.4896720754926,0.));
#1665=CARTESIAN_POINT('Origin',(37.3597593705505,32.4896720754926,22.6));
#1666=CARTESIAN_POINT('Origin',(-37.001356136434,32.9086724713698,0.));
#1667=CARTESIAN_POINT('',(-38.701356136434,32.9086724713698,19.6));
#1668=CARTESIAN_POINT('Origin',(-37.001356136434,32.9086724713698,19.6));
#1669=CARTESIAN_POINT('',(-38.701356136434,32.9086724713698,22.6));
#1670=CARTESIAN_POINT('',(-38.701356136434,32.9086724713698,0.));
#1671=CARTESIAN_POINT('Origin',(-37.001356136434,32.9086724713698,22.6));
#1672=CARTESIAN_POINT('Origin',(-37.4152585794821,-32.581572226704,0.));
#1673=CARTESIAN_POINT('',(-39.1152585794821,-32.581572226704,19.6));
#1674=CARTESIAN_POINT('Origin',(-37.4152585794821,-32.581572226704,19.6));
#1675=CARTESIAN_POINT('',(-39.1152585794821,-32.581572226704,22.6));
#1676=CARTESIAN_POINT('',(-39.1152585794821,-32.581572226704,0.));
#1677=CARTESIAN_POINT('Origin',(-37.4152585794821,-32.581572226704,22.6));
#1678=CARTESIAN_POINT('Origin',(-38.654995,33.702005,19.6));
#1679=CARTESIAN_POINT('',(-43.654995,33.702005,22.6));
#1680=CARTESIAN_POINT('',(-38.654995,38.702005,22.6));
#1681=CARTESIAN_POINT('Origin',(-38.654995,33.702005,22.6));
#1682=CARTESIAN_POINT('',(-38.654995,38.702005,19.6));
#1683=CARTESIAN_POINT('',(-38.654995,38.702005,19.6));
#1684=CARTESIAN_POINT('',(-43.654995,33.702005,19.6));
#1685=CARTESIAN_POINT('Origin',(-38.654995,33.702005,19.6));
#1686=CARTESIAN_POINT('',(-43.654995,33.702005,19.6));
#1687=CARTESIAN_POINT('Origin',(-43.654995,38.702005,19.6));
#1688=CARTESIAN_POINT('',(-43.654995,-33.702006,19.6));
#1689=CARTESIAN_POINT('',(-43.654995,-38.702006,19.6));
#1690=CARTESIAN_POINT('',(-43.654995,-33.702006,22.6));
#1691=CARTESIAN_POINT('',(-43.654995,-33.702006,19.6));
#1692=CARTESIAN_POINT('',(-43.654995,-38.702006,22.6));
#1693=CARTESIAN_POINT('Origin',(-0.122704499999999,-5.00000001402157E-7,
19.6));
#1694=CARTESIAN_POINT('',(38.409586,38.702005,19.6));
#1695=CARTESIAN_POINT('',(-43.654995,38.702005,19.6));
#1696=CARTESIAN_POINT('',(43.409586,33.702005,19.6));
#1697=CARTESIAN_POINT('Origin',(38.409586,33.702005,19.6));
#1698=CARTESIAN_POINT('',(43.409586,-33.702006,19.6));
#1699=CARTESIAN_POINT('',(43.409586,38.702005,19.6));
#1700=CARTESIAN_POINT('',(38.409586,-38.702006,19.6));
#1701=CARTESIAN_POINT('Origin',(38.409586,-33.702006,19.6));
#1702=CARTESIAN_POINT('',(-38.654995,-38.702006,19.6));
#1703=CARTESIAN_POINT('',(43.409586,-38.702006,19.6));
#1704=CARTESIAN_POINT('Origin',(-38.654995,-33.702006,19.6));
#1705=CARTESIAN_POINT('',(8.175016,25.707994,19.6));
#1706=CARTESIAN_POINT('',(8.175016,13.407994,19.6));
#1707=CARTESIAN_POINT('',(8.175016,25.707994,19.6));
#1708=CARTESIAN_POINT('',(-30.324984,25.707994,19.6));
#1709=CARTESIAN_POINT('',(-30.324984,25.707994,19.6));
#1710=CARTESIAN_POINT('',(-30.324984,13.407994,19.6));
#1711=CARTESIAN_POINT('',(-30.324984,13.407994,19.6));
#1712=CARTESIAN_POINT('',(8.175016,13.407994,19.6));
#1713=CARTESIAN_POINT('',(-7.3810238676207,9.314165066708,19.6));
#1714=CARTESIAN_POINT('',(-6.8810238676207,9.814165066708,19.6));
#1715=CARTESIAN_POINT('Origin',(-6.8810238676207,9.314165066708,19.6));
#1716=CARTESIAN_POINT('',(-7.38102386762069,-3.685834933292,19.6));
#1717=CARTESIAN_POINT('',(-7.38102386762069,9.314165066708,19.6));
#1718=CARTESIAN_POINT('',(-6.8810238676207,-4.18583493329199,19.6));
#1719=CARTESIAN_POINT('Origin',(-6.8810238676207,-3.685834933292,19.6));
#1720=CARTESIAN_POINT('',(6.11897613237931,-4.185834933292,19.6));
#1721=CARTESIAN_POINT('',(-6.8810238676207,-4.185834933292,19.6));
#1722=CARTESIAN_POINT('',(6.61897613237931,-3.685834933292,19.6));
#1723=CARTESIAN_POINT('Origin',(6.11897613237931,-3.685834933292,19.6));
#1724=CARTESIAN_POINT('',(6.61897613237932,9.314165066708,19.6));
#1725=CARTESIAN_POINT('',(6.61897613237932,9.314165066708,19.6));
#1726=CARTESIAN_POINT('',(6.11897613237931,9.81416506670801,19.6));
#1727=CARTESIAN_POINT('Origin',(6.11897613237931,9.314165066708,19.6));
#1728=CARTESIAN_POINT('',(-6.8810238676207,9.814165066708,19.6));
#1729=CARTESIAN_POINT('',(11.6689761323793,-9.735834933292,19.6));
#1730=CARTESIAN_POINT('',(12.1689761323793,-9.235834933292,19.6));
#1731=CARTESIAN_POINT('Origin',(12.1689761323793,-9.735834933292,19.6));
#1732=CARTESIAN_POINT('',(11.6689761323793,-22.735834933292,19.6));
#1733=CARTESIAN_POINT('',(11.6689761323793,-9.735834933292,19.6));
#1734=CARTESIAN_POINT('',(12.1689761323793,-23.235834933292,19.6));
#1735=CARTESIAN_POINT('Origin',(12.1689761323793,-22.735834933292,19.6));
#1736=CARTESIAN_POINT('',(25.1689761323793,-23.235834933292,19.6));
#1737=CARTESIAN_POINT('',(12.1689761323793,-23.235834933292,19.6));
#1738=CARTESIAN_POINT('',(25.6689761323793,-22.735834933292,19.6));
#1739=CARTESIAN_POINT('Origin',(25.1689761323793,-22.735834933292,19.6));
#1740=CARTESIAN_POINT('',(25.6689761323793,-9.735834933292,19.6));
#1741=CARTESIAN_POINT('',(25.6689761323793,-9.735834933292,19.6));
#1742=CARTESIAN_POINT('',(25.1689761323793,-9.235834933292,19.6));
#1743=CARTESIAN_POINT('Origin',(25.1689761323793,-9.735834933292,19.6));
#1744=CARTESIAN_POINT('',(12.1689761323793,-9.235834933292,19.6));
#1745=CARTESIAN_POINT('',(-26.4310238676207,-9.735834933292,19.6));
#1746=CARTESIAN_POINT('',(-25.9310238676207,-9.235834933292,19.6));
#1747=CARTESIAN_POINT('Origin',(-25.9310238676207,-9.735834933292,19.6));
#1748=CARTESIAN_POINT('',(-26.4310238676207,-22.735834933292,19.6));
#1749=CARTESIAN_POINT('',(-26.4310238676207,-9.735834933292,19.6));
#1750=CARTESIAN_POINT('',(-25.9310238676207,-23.235834933292,19.6));
#1751=CARTESIAN_POINT('Origin',(-25.9310238676207,-22.735834933292,19.6));
#1752=CARTESIAN_POINT('',(-12.9310238676207,-23.235834933292,19.6));
#1753=CARTESIAN_POINT('',(-25.9310238676207,-23.235834933292,19.6));
#1754=CARTESIAN_POINT('',(-12.4310238676207,-22.735834933292,19.6));
#1755=CARTESIAN_POINT('Origin',(-12.9310238676207,-22.735834933292,19.6));
#1756=CARTESIAN_POINT('',(-12.4310238676207,-9.735834933292,19.6));
#1757=CARTESIAN_POINT('',(-12.4310238676207,-9.735834933292,19.6));
#1758=CARTESIAN_POINT('',(-12.9310238676207,-9.23583493329199,19.6));
#1759=CARTESIAN_POINT('Origin',(-12.9310238676207,-9.735834933292,19.6));
#1760=CARTESIAN_POINT('',(-25.9310238676207,-9.235834933292,19.6));
#1761=CARTESIAN_POINT('',(-7.38102386762069,-9.735834933292,19.6));
#1762=CARTESIAN_POINT('',(-6.8810238676207,-9.235834933292,19.6));
#1763=CARTESIAN_POINT('Origin',(-6.8810238676207,-9.735834933292,19.6));
#1764=CARTESIAN_POINT('',(-7.38102386762069,-22.735834933292,19.6));
#1765=CARTESIAN_POINT('',(-7.38102386762069,-9.735834933292,19.6));
#1766=CARTESIAN_POINT('',(-6.8810238676207,-23.235834933292,19.6));
#1767=CARTESIAN_POINT('Origin',(-6.8810238676207,-22.735834933292,19.6));
#1768=CARTESIAN_POINT('',(6.11897613237931,-23.235834933292,19.6));
#1769=CARTESIAN_POINT('',(-6.8810238676207,-23.235834933292,19.6));
#1770=CARTESIAN_POINT('',(6.61897613237931,-22.735834933292,19.6));
#1771=CARTESIAN_POINT('Origin',(6.11897613237931,-22.735834933292,19.6));
#1772=CARTESIAN_POINT('',(6.61897613237932,-9.735834933292,19.6));
#1773=CARTESIAN_POINT('',(6.61897613237932,-9.735834933292,19.6));
#1774=CARTESIAN_POINT('',(6.11897613237931,-9.23583493329199,19.6));
#1775=CARTESIAN_POINT('Origin',(6.11897613237931,-9.735834933292,19.6));
#1776=CARTESIAN_POINT('',(-6.8810238676207,-9.235834933292,19.6));
#1777=CARTESIAN_POINT('',(-25.214984,10.147994,19.6));
#1778=CARTESIAN_POINT('',(-15.214984,10.147994,19.6));
#1779=CARTESIAN_POINT('',(-15.214984,10.147994,19.6));
#1780=CARTESIAN_POINT('',(-26.224984,9.137994,19.6));
#1781=CARTESIAN_POINT('Origin',(-25.214984,9.137994,19.6));
#1782=CARTESIAN_POINT('',(-26.224984,-0.662006000000002,19.6));
#1783=CARTESIAN_POINT('',(-26.224984,9.137994,19.6));
#1784=CARTESIAN_POINT('',(-25.214984,-1.672006,19.6));
#1785=CARTESIAN_POINT('Origin',(-25.214984,-0.662006000000004,19.6));
#1786=CARTESIAN_POINT('',(-15.214984,-1.672006,19.6));
#1787=CARTESIAN_POINT('',(-25.214984,-1.672006,19.6));
#1788=CARTESIAN_POINT('',(-14.204984,-0.662005999999998,19.6));
#1789=CARTESIAN_POINT('Origin',(-15.214984,-0.662005999999997,19.6));
#1790=CARTESIAN_POINT('',(-14.204984,9.137994,19.6));
#1791=CARTESIAN_POINT('',(-14.204984,-0.662005999999998,19.6));
#1792=CARTESIAN_POINT('Origin',(-15.214984,9.137994,19.6));
#1793=CARTESIAN_POINT('Origin',(38.409586,33.702005,19.6));
#1794=CARTESIAN_POINT('',(38.409586,38.702005,22.6));
#1795=CARTESIAN_POINT('',(43.409586,33.702005,22.6));
#1796=CARTESIAN_POINT('Origin',(38.409586,33.702005,22.6));
#1797=CARTESIAN_POINT('',(43.409586,33.702005,19.6));
#1798=CARTESIAN_POINT('',(38.409586,38.702005,19.6));
#1799=CARTESIAN_POINT('Origin',(43.409586,-38.702006,19.6));
#1800=CARTESIAN_POINT('',(43.409586,-33.702006,22.6));
#1801=CARTESIAN_POINT('',(43.409586,38.702005,22.6));
#1802=CARTESIAN_POINT('',(43.409586,-33.702006,19.6));
#1803=CARTESIAN_POINT('Origin',(38.409586,-33.702006,19.6));
#1804=CARTESIAN_POINT('',(38.409586,-38.702006,22.6));
#1805=CARTESIAN_POINT('Origin',(38.409586,-33.702006,22.6));
#1806=CARTESIAN_POINT('',(38.409586,-38.702006,19.6));
#1807=CARTESIAN_POINT('Origin',(-38.654995,-33.702006,19.6));
#1808=CARTESIAN_POINT('',(-38.654995,-38.702006,22.6));
#1809=CARTESIAN_POINT('Origin',(-38.654995,-33.702006,22.6));
#1810=CARTESIAN_POINT('',(-38.654995,-38.702006,19.6));
#1811=CARTESIAN_POINT('Origin',(-30.324984,25.707994,19.6));
#1812=CARTESIAN_POINT('',(8.175016,25.707994,22.6));
#1813=CARTESIAN_POINT('',(8.175016,25.707994,19.6));
#1814=CARTESIAN_POINT('',(-30.324984,25.707994,22.6));
#1815=CARTESIAN_POINT('',(-30.324984,25.707994,22.6));
#1816=CARTESIAN_POINT('',(-30.324984,25.707994,19.6));
#1817=CARTESIAN_POINT('Origin',(-30.324984,13.407994,19.6));
#1818=CARTESIAN_POINT('',(-30.324984,13.407994,22.6));
#1819=CARTESIAN_POINT('',(-30.324984,13.407994,22.6));
#1820=CARTESIAN_POINT('',(-30.324984,13.407994,19.6));
#1821=CARTESIAN_POINT('Origin',(8.175016,13.407994,19.6));
#1822=CARTESIAN_POINT('',(8.175016,13.407994,22.6));
#1823=CARTESIAN_POINT('',(8.175016,13.407994,22.6));
#1824=CARTESIAN_POINT('',(8.175016,13.407994,19.6));
#1825=CARTESIAN_POINT('Origin',(8.175016,25.707994,19.6));
#1826=CARTESIAN_POINT('',(8.175016,25.707994,22.6));
#1827=CARTESIAN_POINT('Origin',(-7.38102386762069,-3.685834933292,19.6));
#1828=CARTESIAN_POINT('',(-7.3810238676207,9.314165066708,22.6));
#1829=CARTESIAN_POINT('',(-7.3810238676207,9.314165066708,19.6));
#1830=CARTESIAN_POINT('',(-7.38102386762069,-3.685834933292,22.6));
#1831=CARTESIAN_POINT('',(-7.38102386762069,9.314165066708,22.6));
#1832=CARTESIAN_POINT('',(-7.38102386762069,-3.685834933292,19.6));
#1833=CARTESIAN_POINT('Origin',(-6.8810238676207,-3.685834933292,19.6));
#1834=CARTESIAN_POINT('',(-6.8810238676207,-4.18583493329199,22.6));
#1835=CARTESIAN_POINT('Origin',(-6.8810238676207,-3.685834933292,22.6));
#1836=CARTESIAN_POINT('',(-6.8810238676207,-4.18583493329199,19.6));
#1837=CARTESIAN_POINT('Origin',(6.11897613237931,-4.185834933292,19.6));
#1838=CARTESIAN_POINT('',(6.11897613237931,-4.185834933292,22.6));
#1839=CARTESIAN_POINT('',(-6.8810238676207,-4.185834933292,22.6));
#1840=CARTESIAN_POINT('',(6.11897613237931,-4.185834933292,19.6));
#1841=CARTESIAN_POINT('Origin',(6.11897613237931,-3.685834933292,19.6));
#1842=CARTESIAN_POINT('',(6.61897613237931,-3.685834933292,22.6));
#1843=CARTESIAN_POINT('Origin',(6.11897613237931,-3.685834933292,22.6));
#1844=CARTESIAN_POINT('',(6.61897613237931,-3.685834933292,19.6));
#1845=CARTESIAN_POINT('Origin',(6.61897613237932,9.314165066708,19.6));
#1846=CARTESIAN_POINT('',(6.61897613237932,9.314165066708,22.6));
#1847=CARTESIAN_POINT('',(6.61897613237932,9.314165066708,22.6));
#1848=CARTESIAN_POINT('',(6.61897613237932,9.314165066708,19.6));
#1849=CARTESIAN_POINT('Origin',(6.11897613237931,9.314165066708,19.6));
#1850=CARTESIAN_POINT('',(6.11897613237931,9.81416506670801,22.6));
#1851=CARTESIAN_POINT('Origin',(6.11897613237931,9.314165066708,22.6));
#1852=CARTESIAN_POINT('',(6.11897613237931,9.81416506670801,19.6));
#1853=CARTESIAN_POINT('Origin',(-6.8810238676207,9.814165066708,19.6));
#1854=CARTESIAN_POINT('',(-6.8810238676207,9.814165066708,22.6));
#1855=CARTESIAN_POINT('',(-6.8810238676207,9.814165066708,22.6));
#1856=CARTESIAN_POINT('',(-6.8810238676207,9.814165066708,19.6));
#1857=CARTESIAN_POINT('Origin',(-6.8810238676207,9.314165066708,19.6));
#1858=CARTESIAN_POINT('Origin',(-6.8810238676207,9.314165066708,22.6));
#1859=CARTESIAN_POINT('Origin',(11.6689761323793,-22.735834933292,19.6));
#1860=CARTESIAN_POINT('',(11.6689761323793,-9.735834933292,22.6));
#1861=CARTESIAN_POINT('',(11.6689761323793,-9.735834933292,19.6));
#1862=CARTESIAN_POINT('',(11.6689761323793,-22.735834933292,22.6));
#1863=CARTESIAN_POINT('',(11.6689761323793,-9.735834933292,22.6));
#1864=CARTESIAN_POINT('',(11.6689761323793,-22.735834933292,19.6));
#1865=CARTESIAN_POINT('Origin',(12.1689761323793,-22.735834933292,19.6));
#1866=CARTESIAN_POINT('',(12.1689761323793,-23.235834933292,22.6));
#1867=CARTESIAN_POINT('Origin',(12.1689761323793,-22.735834933292,22.6));
#1868=CARTESIAN_POINT('',(12.1689761323793,-23.235834933292,19.6));
#1869=CARTESIAN_POINT('Origin',(25.1689761323793,-23.235834933292,19.6));
#1870=CARTESIAN_POINT('',(25.1689761323793,-23.235834933292,22.6));
#1871=CARTESIAN_POINT('',(12.1689761323793,-23.235834933292,22.6));
#1872=CARTESIAN_POINT('',(25.1689761323793,-23.235834933292,19.6));
#1873=CARTESIAN_POINT('Origin',(25.1689761323793,-22.735834933292,19.6));
#1874=CARTESIAN_POINT('',(25.6689761323793,-22.735834933292,22.6));
#1875=CARTESIAN_POINT('Origin',(25.1689761323793,-22.735834933292,22.6));
#1876=CARTESIAN_POINT('',(25.6689761323793,-22.735834933292,19.6));
#1877=CARTESIAN_POINT('Origin',(25.6689761323793,-9.735834933292,19.6));
#1878=CARTESIAN_POINT('',(25.6689761323793,-9.735834933292,22.6));
#1879=CARTESIAN_POINT('',(25.6689761323793,-9.735834933292,22.6));
#1880=CARTESIAN_POINT('',(25.6689761323793,-9.735834933292,19.6));
#1881=CARTESIAN_POINT('Origin',(25.1689761323793,-9.735834933292,19.6));
#1882=CARTESIAN_POINT('',(25.1689761323793,-9.235834933292,22.6));
#1883=CARTESIAN_POINT('Origin',(25.1689761323793,-9.735834933292,22.6));
#1884=CARTESIAN_POINT('',(25.1689761323793,-9.235834933292,19.6));
#1885=CARTESIAN_POINT('Origin',(12.1689761323793,-9.235834933292,19.6));
#1886=CARTESIAN_POINT('',(12.1689761323793,-9.235834933292,22.6));
#1887=CARTESIAN_POINT('',(12.1689761323793,-9.235834933292,22.6));
#1888=CARTESIAN_POINT('',(12.1689761323793,-9.235834933292,19.6));
#1889=CARTESIAN_POINT('Origin',(12.1689761323793,-9.735834933292,19.6));
#1890=CARTESIAN_POINT('Origin',(12.1689761323793,-9.735834933292,22.6));
#1891=CARTESIAN_POINT('Origin',(-26.4310238676207,-22.735834933292,19.6));
#1892=CARTESIAN_POINT('',(-26.4310238676207,-9.735834933292,22.6));
#1893=CARTESIAN_POINT('',(-26.4310238676207,-9.735834933292,19.6));
#1894=CARTESIAN_POINT('',(-26.4310238676207,-22.735834933292,22.6));
#1895=CARTESIAN_POINT('',(-26.4310238676207,-9.735834933292,22.6));
#1896=CARTESIAN_POINT('',(-26.4310238676207,-22.735834933292,19.6));
#1897=CARTESIAN_POINT('Origin',(-25.9310238676207,-22.735834933292,19.6));
#1898=CARTESIAN_POINT('',(-25.9310238676207,-23.235834933292,22.6));
#1899=CARTESIAN_POINT('Origin',(-25.9310238676207,-22.735834933292,22.6));
#1900=CARTESIAN_POINT('',(-25.9310238676207,-23.235834933292,19.6));
#1901=CARTESIAN_POINT('Origin',(-12.9310238676207,-23.235834933292,19.6));
#1902=CARTESIAN_POINT('',(-12.9310238676207,-23.235834933292,22.6));
#1903=CARTESIAN_POINT('',(-25.9310238676207,-23.235834933292,22.6));
#1904=CARTESIAN_POINT('',(-12.9310238676207,-23.235834933292,19.6));
#1905=CARTESIAN_POINT('Origin',(-12.9310238676207,-22.735834933292,19.6));
#1906=CARTESIAN_POINT('',(-12.4310238676207,-22.735834933292,22.6));
#1907=CARTESIAN_POINT('Origin',(-12.9310238676207,-22.735834933292,22.6));
#1908=CARTESIAN_POINT('',(-12.4310238676207,-22.735834933292,19.6));
#1909=CARTESIAN_POINT('Origin',(-12.4310238676207,-9.735834933292,19.6));
#1910=CARTESIAN_POINT('',(-12.4310238676207,-9.735834933292,22.6));
#1911=CARTESIAN_POINT('',(-12.4310238676207,-9.735834933292,22.6));
#1912=CARTESIAN_POINT('',(-12.4310238676207,-9.735834933292,19.6));
#1913=CARTESIAN_POINT('Origin',(-12.9310238676207,-9.735834933292,19.6));
#1914=CARTESIAN_POINT('',(-12.9310238676207,-9.23583493329199,22.6));
#1915=CARTESIAN_POINT('Origin',(-12.9310238676207,-9.735834933292,22.6));
#1916=CARTESIAN_POINT('',(-12.9310238676207,-9.23583493329199,19.6));
#1917=CARTESIAN_POINT('Origin',(-25.9310238676207,-9.235834933292,19.6));
#1918=CARTESIAN_POINT('',(-25.9310238676207,-9.235834933292,22.6));
#1919=CARTESIAN_POINT('',(-25.9310238676207,-9.235834933292,22.6));
#1920=CARTESIAN_POINT('',(-25.9310238676207,-9.235834933292,19.6));
#1921=CARTESIAN_POINT('Origin',(-25.9310238676207,-9.735834933292,19.6));
#1922=CARTESIAN_POINT('Origin',(-25.9310238676207,-9.735834933292,22.6));
#1923=CARTESIAN_POINT('Origin',(-7.38102386762069,-22.735834933292,19.6));
#1924=CARTESIAN_POINT('',(-7.3810238676207,-9.735834933292,22.6));
#1925=CARTESIAN_POINT('',(-7.38102386762069,-9.735834933292,19.6));
#1926=CARTESIAN_POINT('',(-7.38102386762069,-22.735834933292,22.6));
#1927=CARTESIAN_POINT('',(-7.38102386762069,-9.735834933292,22.6));
#1928=CARTESIAN_POINT('',(-7.38102386762069,-22.735834933292,19.6));
#1929=CARTESIAN_POINT('Origin',(-6.8810238676207,-22.735834933292,19.6));
#1930=CARTESIAN_POINT('',(-6.8810238676207,-23.235834933292,22.6));
#1931=CARTESIAN_POINT('Origin',(-6.8810238676207,-22.735834933292,22.6));
#1932=CARTESIAN_POINT('',(-6.8810238676207,-23.235834933292,19.6));
#1933=CARTESIAN_POINT('Origin',(6.11897613237931,-23.235834933292,19.6));
#1934=CARTESIAN_POINT('',(6.11897613237931,-23.235834933292,22.6));
#1935=CARTESIAN_POINT('',(-6.8810238676207,-23.235834933292,22.6));
#1936=CARTESIAN_POINT('',(6.11897613237931,-23.235834933292,19.6));
#1937=CARTESIAN_POINT('Origin',(6.11897613237931,-22.735834933292,19.6));
#1938=CARTESIAN_POINT('',(6.61897613237931,-22.735834933292,22.6));
#1939=CARTESIAN_POINT('Origin',(6.11897613237931,-22.735834933292,22.6));
#1940=CARTESIAN_POINT('',(6.61897613237931,-22.735834933292,19.6));
#1941=CARTESIAN_POINT('Origin',(6.61897613237932,-9.735834933292,19.6));
#1942=CARTESIAN_POINT('',(6.61897613237932,-9.735834933292,22.6));
#1943=CARTESIAN_POINT('',(6.61897613237932,-9.735834933292,22.6));
#1944=CARTESIAN_POINT('',(6.61897613237932,-9.735834933292,19.6));
#1945=CARTESIAN_POINT('Origin',(6.11897613237931,-9.735834933292,19.6));
#1946=CARTESIAN_POINT('',(6.11897613237931,-9.23583493329199,22.6));
#1947=CARTESIAN_POINT('Origin',(6.11897613237931,-9.735834933292,22.6));
#1948=CARTESIAN_POINT('',(6.11897613237931,-9.23583493329199,19.6));
#1949=CARTESIAN_POINT('Origin',(-6.8810238676207,-9.235834933292,19.6));
#1950=CARTESIAN_POINT('',(-6.8810238676207,-9.235834933292,22.6));
#1951=CARTESIAN_POINT('',(-6.8810238676207,-9.235834933292,22.6));
#1952=CARTESIAN_POINT('',(-6.8810238676207,-9.235834933292,19.6));
#1953=CARTESIAN_POINT('Origin',(-6.8810238676207,-9.735834933292,19.6));
#1954=CARTESIAN_POINT('Origin',(-6.8810238676207,-9.735834933292,22.6));
#1955=CARTESIAN_POINT('Origin',(-25.214984,9.137994,19.6));
#1956=CARTESIAN_POINT('',(-25.214984,10.147994,22.6));
#1957=CARTESIAN_POINT('',(-25.214984,10.147994,19.6));
#1958=CARTESIAN_POINT('',(-26.224984,9.137994,22.6));
#1959=CARTESIAN_POINT('Origin',(-25.214984,9.137994,22.6));
#1960=CARTESIAN_POINT('',(-26.224984,9.137994,19.6));
#1961=CARTESIAN_POINT('Origin',(-26.224984,-0.662006000000002,19.6));
#1962=CARTESIAN_POINT('',(-26.224984,-0.662006000000002,22.6));
#1963=CARTESIAN_POINT('',(-26.224984,9.137994,22.6));
#1964=CARTESIAN_POINT('',(-26.224984,-0.662006000000002,19.6));
#1965=CARTESIAN_POINT('Origin',(-25.214984,-0.662006000000004,19.6));
#1966=CARTESIAN_POINT('',(-25.214984,-1.672006,22.6));
#1967=CARTESIAN_POINT('Origin',(-25.214984,-0.662006000000004,22.6));
#1968=CARTESIAN_POINT('',(-25.214984,-1.672006,19.6));
#1969=CARTESIAN_POINT('Origin',(-15.214984,-1.672006,19.6));
#1970=CARTESIAN_POINT('',(-15.214984,-1.672006,22.6));
#1971=CARTESIAN_POINT('',(-25.214984,-1.672006,22.6));
#1972=CARTESIAN_POINT('',(-15.214984,-1.672006,19.6));
#1973=CARTESIAN_POINT('Origin',(-15.214984,-0.662005999999997,19.6));
#1974=CARTESIAN_POINT('',(-14.204984,-0.662005999999997,22.6));
#1975=CARTESIAN_POINT('Origin',(-15.214984,-0.662005999999997,22.6));
#1976=CARTESIAN_POINT('',(-14.204984,-0.662005999999998,19.6));
#1977=CARTESIAN_POINT('Origin',(-14.204984,9.137994,19.6));
#1978=CARTESIAN_POINT('',(-14.204984,9.137994,22.6));
#1979=CARTESIAN_POINT('',(-14.204984,-0.662005999999998,22.6));
#1980=CARTESIAN_POINT('',(-14.204984,9.137994,19.6));
#1981=CARTESIAN_POINT('Origin',(-15.214984,9.137994,19.6));
#1982=CARTESIAN_POINT('',(-15.214984,10.147994,22.6));
#1983=CARTESIAN_POINT('Origin',(-15.214984,9.137994,22.6));
#1984=CARTESIAN_POINT('',(-15.214984,10.147994,19.6));
#1985=CARTESIAN_POINT('Origin',(-25.214984,10.147994,19.6));
#1986=CARTESIAN_POINT('',(-15.214984,10.147994,22.6));
#1987=CARTESIAN_POINT('Origin',(-43.654995,-38.702006,19.6));
#1988=CARTESIAN_POINT('',(43.409586,-38.702006,22.6));
#1989=CARTESIAN_POINT('Origin',(43.409586,38.702005,19.6));
#1990=CARTESIAN_POINT('',(-43.654995,38.702005,22.6));
#1991=CARTESIAN_POINT('Origin',(-0.122704499999999,-5.00000001402157E-7,
22.6));
#1992=UNCERTAINTY_MEASURE_WITH_UNIT(LENGTH_MEASURE(0.01),#1996,
'DISTANCE_ACCURACY_VALUE',
'Maximum model space distance between geometric entities at asserted c
onnectivities');
#1993=UNCERTAINTY_MEASURE_WITH_UNIT(LENGTH_MEASURE(0.01),#1996,
'DISTANCE_ACCURACY_VALUE',
'Maximum model space distance between geometric entities at asserted c
onnectivities');
#1994=(
GEOMETRIC_REPRESENTATION_CONTEXT(3)
GLOBAL_UNCERTAINTY_ASSIGNED_CONTEXT((#1992))
GLOBAL_UNIT_ASSIGNED_CONTEXT((#1996,#1998,#1999))
REPRESENTATION_CONTEXT('','3D')
);
#1995=(
GEOMETRIC_REPRESENTATION_CONTEXT(3)
GLOBAL_UNCERTAINTY_ASSIGNED_CONTEXT((#1993))
GLOBAL_UNIT_ASSIGNED_CONTEXT((#1996,#1998,#1999))
REPRESENTATION_CONTEXT('','3D')
);
#1996=(
LENGTH_UNIT()
NAMED_UNIT(*)
SI_UNIT(.MILLI.,.METRE.)
);
#1997=(
LENGTH_UNIT()
NAMED_UNIT(*)
SI_UNIT($,.METRE.)
);
#1998=(
NAMED_UNIT(*)
PLANE_ANGLE_UNIT()
SI_UNIT($,.RADIAN.)
);
#1999=(
NAMED_UNIT(*)
SI_UNIT($,.STERADIAN.)
SOLID_ANGLE_UNIT()
);
#2000=SHAPE_DEFINITION_REPRESENTATION(#2001,#2002);
#2001=PRODUCT_DEFINITION_SHAPE('',$,#2004);
#2002=SHAPE_REPRESENTATION('',(#1196),#1994);
#2003=PRODUCT_DEFINITION_CONTEXT('part definition',#2008,'design');
#2004=PRODUCT_DEFINITION('2026-09-27-09-13-37-047','Plate',#2005,#2003);
#2005=PRODUCT_DEFINITION_FORMATION('',$,#2010);
#2006=PRODUCT_RELATED_PRODUCT_CATEGORY('Plate','Plate',(#2010));
#2007=APPLICATION_PROTOCOL_DEFINITION('international standard',
'automotive_design',2009,#2008);
#2008=APPLICATION_CONTEXT(
'Core Data for Automotive Mechanical Design Process');
#2009=PRODUCT_CONTEXT('part definition',#2008,'mechanical');
#2010=PRODUCT('2026-09-27-09-13-37-047','Plate',$,(#2009));
#2011=PRESENTATION_STYLE_ASSIGNMENT((#2013));
#2012=PRESENTATION_STYLE_ASSIGNMENT((#2014));
#2013=SURFACE_STYLE_USAGE(.BOTH.,#2015);
#2014=SURFACE_STYLE_USAGE(.BOTH.,#2016);
#2015=SURFACE_SIDE_STYLE('',(#2017));
#2016=SURFACE_SIDE_STYLE('',(#2018));
#2017=SURFACE_STYLE_FILL_AREA(#2019);
#2018=SURFACE_STYLE_FILL_AREA(#2020);
#2019=FILL_AREA_STYLE('Steel - Satin',(#2021));
#2020=FILL_AREA_STYLE('Plastic - Translucent Glossy (Blue)',(#2022));
#2021=FILL_AREA_STYLE_COLOUR('Steel - Satin',#2023);
#2022=FILL_AREA_STYLE_COLOUR('Plastic - Translucent Glossy (Blue)',#2024);
#2023=COLOUR_RGB('Steel - Satin',0.627450980392157,0.627450980392157,0.627450980392157);
#2024=COLOUR_RGB('Plastic - Translucent Glossy (Blue)',0.188235294117647,
0.231372549019608,0.588235294117647);
ENDSEC;
END-ISO-10303-21;
